<mxfile host="Electron" modified="2024-06-29T15:50:50.373Z" agent="Mozilla/5.0 (X11; Linux x86_64) AppleWebKit/537.36 (KHTML, like Gecko) draw.io/24.5.3 Chrome/124.0.6367.207 Electron/30.0.6 Safari/537.36" etag="fJ4ZQr8idQ1YQg8LNrDV" version="24.5.3" type="device" pages="2">
  <diagram name="Fat-tree" id="E8buucfL_6qRPMjb0l8s">
    <mxGraphModel dx="1964" dy="1775" grid="1" gridSize="10" guides="1" tooltips="1" connect="1" arrows="1" fold="1" page="1" pageScale="1" pageWidth="850" pageHeight="1100" math="0" shadow="0">
      <root>
        <mxCell id="0" />
        <mxCell id="1" parent="0" />
        <mxCell id="jsK3o387VsPH1s1Hy42P-122" value="Computing&lt;br style=&quot;font-size: 9px;&quot;&gt;Units" style="rounded=1;whiteSpace=wrap;html=1;align=left;fontSize=9;fontStyle=3;fillColor=#eeeeee;strokeColor=#36393d;" parent="1" vertex="1">
          <mxGeometry x="-840" y="-550" width="529" height="40" as="geometry" />
        </mxCell>
        <mxCell id="jsK3o387VsPH1s1Hy42P-121" value="Edge&lt;br style=&quot;font-size: 9px;&quot;&gt;Switches" style="rounded=1;whiteSpace=wrap;html=1;align=left;fontSize=9;fontStyle=3;fillColor=#eeeeee;strokeColor=#36393d;" parent="1" vertex="1">
          <mxGeometry x="-840" y="-601" width="529" height="40" as="geometry" />
        </mxCell>
        <mxCell id="jsK3o387VsPH1s1Hy42P-120" value="Aggregate&lt;br style=&quot;font-size: 9px;&quot;&gt;Switches" style="rounded=1;whiteSpace=wrap;html=1;align=left;fontSize=9;fontStyle=3;fillColor=#eeeeee;strokeColor=#36393d;" parent="1" vertex="1">
          <mxGeometry x="-840" y="-651" width="529" height="40" as="geometry" />
        </mxCell>
        <mxCell id="jsK3o387VsPH1s1Hy42P-119" value="Core Switches" style="rounded=1;whiteSpace=wrap;html=1;align=left;fontSize=9;fontStyle=3;fillColor=#eeeeee;strokeColor=#36393d;" parent="1" vertex="1">
          <mxGeometry x="-840" y="-726" width="529" height="40" as="geometry" />
        </mxCell>
        <mxCell id="jsK3o387VsPH1s1Hy42P-1" value="0" style="rounded=0;whiteSpace=wrap;html=1;fontStyle=1" parent="1" vertex="1">
          <mxGeometry x="-720" y="-715" width="49" height="18" as="geometry" />
        </mxCell>
        <mxCell id="jsK3o387VsPH1s1Hy42P-2" value="1" style="rounded=0;whiteSpace=wrap;html=1;fontStyle=1" parent="1" vertex="1">
          <mxGeometry x="-623" y="-715" width="49" height="18" as="geometry" />
        </mxCell>
        <mxCell id="jsK3o387VsPH1s1Hy42P-111" style="rounded=0;orthogonalLoop=1;jettySize=auto;html=1;exitX=0;exitY=1;exitDx=0;exitDy=0;entryX=0.25;entryY=0;entryDx=0;entryDy=0;endArrow=none;endFill=0;fontStyle=1" parent="1" source="jsK3o387VsPH1s1Hy42P-3" target="jsK3o387VsPH1s1Hy42P-6" edge="1">
          <mxGeometry relative="1" as="geometry" />
        </mxCell>
        <mxCell id="jsK3o387VsPH1s1Hy42P-3" value="2" style="rounded=0;whiteSpace=wrap;html=1;fontStyle=1" parent="1" vertex="1">
          <mxGeometry x="-526" y="-715" width="49" height="18" as="geometry" />
        </mxCell>
        <mxCell id="jsK3o387VsPH1s1Hy42P-4" value="3" style="rounded=0;whiteSpace=wrap;html=1;fontStyle=1" parent="1" vertex="1">
          <mxGeometry x="-429" y="-715" width="49" height="18" as="geometry" />
        </mxCell>
        <mxCell id="jsK3o387VsPH1s1Hy42P-45" style="rounded=0;orthogonalLoop=1;jettySize=auto;html=1;exitX=0.25;exitY=1;exitDx=0;exitDy=0;entryX=0.25;entryY=0;entryDx=0;entryDy=0;endArrow=none;endFill=0;fontStyle=1" parent="1" source="jsK3o387VsPH1s1Hy42P-5" target="jsK3o387VsPH1s1Hy42P-13" edge="1">
          <mxGeometry relative="1" as="geometry" />
        </mxCell>
        <mxCell id="jsK3o387VsPH1s1Hy42P-5" value="0" style="rounded=0;whiteSpace=wrap;html=1;fontStyle=1" parent="1" vertex="1">
          <mxGeometry x="-780" y="-640" width="40" height="18" as="geometry" />
        </mxCell>
        <mxCell id="jsK3o387VsPH1s1Hy42P-6" value="1" style="rounded=0;whiteSpace=wrap;html=1;fontStyle=1" parent="1" vertex="1">
          <mxGeometry x="-720" y="-640" width="40" height="18" as="geometry" />
        </mxCell>
        <mxCell id="jsK3o387VsPH1s1Hy42P-38" style="rounded=0;orthogonalLoop=1;jettySize=auto;html=1;exitX=0.25;exitY=1;exitDx=0;exitDy=0;entryX=0.5;entryY=0;entryDx=0;entryDy=0;endArrow=none;endFill=0;fontStyle=1" parent="1" source="jsK3o387VsPH1s1Hy42P-13" target="jsK3o387VsPH1s1Hy42P-21" edge="1">
          <mxGeometry relative="1" as="geometry" />
        </mxCell>
        <mxCell id="jsK3o387VsPH1s1Hy42P-39" style="rounded=0;orthogonalLoop=1;jettySize=auto;html=1;exitX=0.75;exitY=1;exitDx=0;exitDy=0;entryX=0.5;entryY=0;entryDx=0;entryDy=0;endArrow=none;endFill=0;fontStyle=1" parent="1" source="jsK3o387VsPH1s1Hy42P-13" target="jsK3o387VsPH1s1Hy42P-22" edge="1">
          <mxGeometry relative="1" as="geometry" />
        </mxCell>
        <mxCell id="jsK3o387VsPH1s1Hy42P-46" style="rounded=0;orthogonalLoop=1;jettySize=auto;html=1;exitX=0.75;exitY=0;exitDx=0;exitDy=0;entryX=0.25;entryY=1;entryDx=0;entryDy=0;endArrow=none;endFill=0;fontStyle=1" parent="1" source="jsK3o387VsPH1s1Hy42P-13" target="jsK3o387VsPH1s1Hy42P-6" edge="1">
          <mxGeometry relative="1" as="geometry" />
        </mxCell>
        <mxCell id="jsK3o387VsPH1s1Hy42P-13" value="0" style="rounded=0;whiteSpace=wrap;html=1;fontStyle=1" parent="1" vertex="1">
          <mxGeometry x="-780" y="-590" width="40" height="18" as="geometry" />
        </mxCell>
        <mxCell id="jsK3o387VsPH1s1Hy42P-21" value="0" style="ellipse;whiteSpace=wrap;html=1;aspect=fixed;fillColor=#000000;verticalAlign=top;fontStyle=1" parent="1" vertex="1">
          <mxGeometry x="-780" y="-533" width="5" height="5" as="geometry" />
        </mxCell>
        <mxCell id="jsK3o387VsPH1s1Hy42P-22" value="1" style="ellipse;whiteSpace=wrap;html=1;aspect=fixed;fillColor=#000000;verticalAlign=top;fontStyle=1" parent="1" vertex="1">
          <mxGeometry x="-745" y="-533" width="5" height="5" as="geometry" />
        </mxCell>
        <mxCell id="jsK3o387VsPH1s1Hy42P-40" style="rounded=0;orthogonalLoop=1;jettySize=auto;html=1;exitX=0.25;exitY=1;exitDx=0;exitDy=0;entryX=0.5;entryY=0;entryDx=0;entryDy=0;endArrow=none;endFill=0;fontStyle=1" parent="1" source="jsK3o387VsPH1s1Hy42P-42" target="jsK3o387VsPH1s1Hy42P-43" edge="1">
          <mxGeometry relative="1" as="geometry" />
        </mxCell>
        <mxCell id="jsK3o387VsPH1s1Hy42P-41" style="rounded=0;orthogonalLoop=1;jettySize=auto;html=1;exitX=0.75;exitY=1;exitDx=0;exitDy=0;entryX=0.5;entryY=0;entryDx=0;entryDy=0;endArrow=none;endFill=0;fontStyle=1" parent="1" source="jsK3o387VsPH1s1Hy42P-42" target="jsK3o387VsPH1s1Hy42P-44" edge="1">
          <mxGeometry relative="1" as="geometry" />
        </mxCell>
        <mxCell id="jsK3o387VsPH1s1Hy42P-42" value="1" style="rounded=0;whiteSpace=wrap;html=1;fontStyle=1" parent="1" vertex="1">
          <mxGeometry x="-720" y="-590" width="40" height="18" as="geometry" />
        </mxCell>
        <mxCell id="jsK3o387VsPH1s1Hy42P-43" value="2" style="ellipse;whiteSpace=wrap;html=1;aspect=fixed;fillColor=#000000;verticalAlign=top;fontStyle=1" parent="1" vertex="1">
          <mxGeometry x="-720" y="-533" width="5" height="5" as="geometry" />
        </mxCell>
        <mxCell id="jsK3o387VsPH1s1Hy42P-44" value="3" style="ellipse;whiteSpace=wrap;html=1;aspect=fixed;fillColor=#000000;verticalAlign=top;fontStyle=1" parent="1" vertex="1">
          <mxGeometry x="-685" y="-533" width="5" height="5" as="geometry" />
        </mxCell>
        <mxCell id="jsK3o387VsPH1s1Hy42P-48" style="rounded=0;orthogonalLoop=1;jettySize=auto;html=1;exitX=0.25;exitY=0;exitDx=0;exitDy=0;entryX=0.75;entryY=1;entryDx=0;entryDy=0;endArrow=none;endFill=0;fontStyle=1" parent="1" source="jsK3o387VsPH1s1Hy42P-42" target="jsK3o387VsPH1s1Hy42P-5" edge="1">
          <mxGeometry relative="1" as="geometry">
            <mxPoint x="-740" y="-580" as="sourcePoint" />
            <mxPoint x="-700" y="-612" as="targetPoint" />
          </mxGeometry>
        </mxCell>
        <mxCell id="jsK3o387VsPH1s1Hy42P-49" style="rounded=0;orthogonalLoop=1;jettySize=auto;html=1;exitX=0.75;exitY=1;exitDx=0;exitDy=0;entryX=0.75;entryY=0;entryDx=0;entryDy=0;endArrow=none;endFill=0;fontStyle=1" parent="1" source="jsK3o387VsPH1s1Hy42P-6" target="jsK3o387VsPH1s1Hy42P-42" edge="1">
          <mxGeometry relative="1" as="geometry">
            <mxPoint x="-760" y="-612" as="sourcePoint" />
            <mxPoint x="-760" y="-580" as="targetPoint" />
          </mxGeometry>
        </mxCell>
        <mxCell id="jsK3o387VsPH1s1Hy42P-50" style="rounded=0;orthogonalLoop=1;jettySize=auto;html=1;exitX=0.25;exitY=1;exitDx=0;exitDy=0;entryX=0.25;entryY=0;entryDx=0;entryDy=0;endArrow=none;endFill=0;fontStyle=1" parent="1" source="jsK3o387VsPH1s1Hy42P-51" target="jsK3o387VsPH1s1Hy42P-56" edge="1">
          <mxGeometry relative="1" as="geometry" />
        </mxCell>
        <mxCell id="jsK3o387VsPH1s1Hy42P-51" value="2" style="rounded=0;whiteSpace=wrap;html=1;fontStyle=1" parent="1" vertex="1">
          <mxGeometry x="-660" y="-640" width="40" height="18" as="geometry" />
        </mxCell>
        <mxCell id="jsK3o387VsPH1s1Hy42P-52" value="3" style="rounded=0;whiteSpace=wrap;html=1;fontStyle=1" parent="1" vertex="1">
          <mxGeometry x="-600" y="-640" width="40" height="18" as="geometry" />
        </mxCell>
        <mxCell id="jsK3o387VsPH1s1Hy42P-53" style="rounded=0;orthogonalLoop=1;jettySize=auto;html=1;exitX=0.25;exitY=1;exitDx=0;exitDy=0;entryX=0.5;entryY=0;entryDx=0;entryDy=0;endArrow=none;endFill=0;fontStyle=1" parent="1" source="jsK3o387VsPH1s1Hy42P-56" target="jsK3o387VsPH1s1Hy42P-57" edge="1">
          <mxGeometry relative="1" as="geometry" />
        </mxCell>
        <mxCell id="jsK3o387VsPH1s1Hy42P-54" style="rounded=0;orthogonalLoop=1;jettySize=auto;html=1;exitX=0.75;exitY=1;exitDx=0;exitDy=0;entryX=0.5;entryY=0;entryDx=0;entryDy=0;endArrow=none;endFill=0;fontStyle=1" parent="1" source="jsK3o387VsPH1s1Hy42P-56" target="jsK3o387VsPH1s1Hy42P-58" edge="1">
          <mxGeometry relative="1" as="geometry" />
        </mxCell>
        <mxCell id="jsK3o387VsPH1s1Hy42P-55" style="rounded=0;orthogonalLoop=1;jettySize=auto;html=1;exitX=0.75;exitY=0;exitDx=0;exitDy=0;entryX=0.25;entryY=1;entryDx=0;entryDy=0;endArrow=none;endFill=0;fontStyle=1" parent="1" source="jsK3o387VsPH1s1Hy42P-56" target="jsK3o387VsPH1s1Hy42P-52" edge="1">
          <mxGeometry relative="1" as="geometry" />
        </mxCell>
        <mxCell id="jsK3o387VsPH1s1Hy42P-56" value="2" style="rounded=0;whiteSpace=wrap;html=1;fontStyle=1" parent="1" vertex="1">
          <mxGeometry x="-660" y="-590" width="40" height="18" as="geometry" />
        </mxCell>
        <mxCell id="jsK3o387VsPH1s1Hy42P-57" value="4" style="ellipse;whiteSpace=wrap;html=1;aspect=fixed;fillColor=#000000;verticalAlign=top;fontStyle=1" parent="1" vertex="1">
          <mxGeometry x="-660" y="-533" width="5" height="5" as="geometry" />
        </mxCell>
        <mxCell id="jsK3o387VsPH1s1Hy42P-58" value="5" style="ellipse;whiteSpace=wrap;html=1;aspect=fixed;fillColor=#000000;verticalAlign=top;fontStyle=1" parent="1" vertex="1">
          <mxGeometry x="-625" y="-533" width="5" height="5" as="geometry" />
        </mxCell>
        <mxCell id="jsK3o387VsPH1s1Hy42P-59" style="rounded=0;orthogonalLoop=1;jettySize=auto;html=1;exitX=0.25;exitY=1;exitDx=0;exitDy=0;entryX=0.5;entryY=0;entryDx=0;entryDy=0;endArrow=none;endFill=0;fontStyle=1" parent="1" source="jsK3o387VsPH1s1Hy42P-61" target="jsK3o387VsPH1s1Hy42P-62" edge="1">
          <mxGeometry relative="1" as="geometry" />
        </mxCell>
        <mxCell id="jsK3o387VsPH1s1Hy42P-60" style="rounded=0;orthogonalLoop=1;jettySize=auto;html=1;exitX=0.75;exitY=1;exitDx=0;exitDy=0;entryX=0.5;entryY=0;entryDx=0;entryDy=0;endArrow=none;endFill=0;fontStyle=1" parent="1" source="jsK3o387VsPH1s1Hy42P-61" target="jsK3o387VsPH1s1Hy42P-63" edge="1">
          <mxGeometry relative="1" as="geometry" />
        </mxCell>
        <mxCell id="jsK3o387VsPH1s1Hy42P-61" value="3" style="rounded=0;whiteSpace=wrap;html=1;fontStyle=1" parent="1" vertex="1">
          <mxGeometry x="-600" y="-590" width="40" height="18" as="geometry" />
        </mxCell>
        <mxCell id="jsK3o387VsPH1s1Hy42P-62" value="6" style="ellipse;whiteSpace=wrap;html=1;aspect=fixed;fillColor=#000000;verticalAlign=top;fontStyle=1" parent="1" vertex="1">
          <mxGeometry x="-600" y="-533" width="5" height="5" as="geometry" />
        </mxCell>
        <mxCell id="jsK3o387VsPH1s1Hy42P-63" value="7" style="ellipse;whiteSpace=wrap;html=1;aspect=fixed;fillColor=#000000;verticalAlign=top;fontStyle=1" parent="1" vertex="1">
          <mxGeometry x="-565" y="-533" width="5" height="5" as="geometry" />
        </mxCell>
        <mxCell id="jsK3o387VsPH1s1Hy42P-64" style="rounded=0;orthogonalLoop=1;jettySize=auto;html=1;exitX=0.25;exitY=0;exitDx=0;exitDy=0;entryX=0.75;entryY=1;entryDx=0;entryDy=0;endArrow=none;endFill=0;fontStyle=1" parent="1" source="jsK3o387VsPH1s1Hy42P-61" target="jsK3o387VsPH1s1Hy42P-51" edge="1">
          <mxGeometry relative="1" as="geometry">
            <mxPoint x="-620" y="-580" as="sourcePoint" />
            <mxPoint x="-580" y="-612" as="targetPoint" />
          </mxGeometry>
        </mxCell>
        <mxCell id="jsK3o387VsPH1s1Hy42P-65" style="rounded=0;orthogonalLoop=1;jettySize=auto;html=1;exitX=0.75;exitY=1;exitDx=0;exitDy=0;entryX=0.75;entryY=0;entryDx=0;entryDy=0;endArrow=none;endFill=0;fontStyle=1" parent="1" source="jsK3o387VsPH1s1Hy42P-52" target="jsK3o387VsPH1s1Hy42P-61" edge="1">
          <mxGeometry relative="1" as="geometry">
            <mxPoint x="-640" y="-612" as="sourcePoint" />
            <mxPoint x="-640" y="-580" as="targetPoint" />
          </mxGeometry>
        </mxCell>
        <mxCell id="jsK3o387VsPH1s1Hy42P-66" style="rounded=0;orthogonalLoop=1;jettySize=auto;html=1;exitX=0.25;exitY=1;exitDx=0;exitDy=0;entryX=0.25;entryY=0;entryDx=0;entryDy=0;endArrow=none;endFill=0;fontStyle=1" parent="1" source="jsK3o387VsPH1s1Hy42P-67" target="jsK3o387VsPH1s1Hy42P-72" edge="1">
          <mxGeometry relative="1" as="geometry" />
        </mxCell>
        <mxCell id="jsK3o387VsPH1s1Hy42P-67" value="4" style="rounded=0;whiteSpace=wrap;html=1;fontStyle=1" parent="1" vertex="1">
          <mxGeometry x="-540" y="-640" width="40" height="18" as="geometry" />
        </mxCell>
        <mxCell id="jsK3o387VsPH1s1Hy42P-68" value="5" style="rounded=0;whiteSpace=wrap;html=1;fontStyle=1" parent="1" vertex="1">
          <mxGeometry x="-480" y="-640" width="40" height="18" as="geometry" />
        </mxCell>
        <mxCell id="jsK3o387VsPH1s1Hy42P-69" style="rounded=0;orthogonalLoop=1;jettySize=auto;html=1;exitX=0.25;exitY=1;exitDx=0;exitDy=0;entryX=0.5;entryY=0;entryDx=0;entryDy=0;endArrow=none;endFill=0;fontStyle=1" parent="1" source="jsK3o387VsPH1s1Hy42P-72" target="jsK3o387VsPH1s1Hy42P-73" edge="1">
          <mxGeometry relative="1" as="geometry" />
        </mxCell>
        <mxCell id="jsK3o387VsPH1s1Hy42P-70" style="rounded=0;orthogonalLoop=1;jettySize=auto;html=1;exitX=0.75;exitY=1;exitDx=0;exitDy=0;entryX=0.5;entryY=0;entryDx=0;entryDy=0;endArrow=none;endFill=0;fontStyle=1" parent="1" source="jsK3o387VsPH1s1Hy42P-72" target="jsK3o387VsPH1s1Hy42P-74" edge="1">
          <mxGeometry relative="1" as="geometry" />
        </mxCell>
        <mxCell id="jsK3o387VsPH1s1Hy42P-71" style="rounded=0;orthogonalLoop=1;jettySize=auto;html=1;exitX=0.75;exitY=0;exitDx=0;exitDy=0;entryX=0.25;entryY=1;entryDx=0;entryDy=0;endArrow=none;endFill=0;fontStyle=1" parent="1" source="jsK3o387VsPH1s1Hy42P-72" target="jsK3o387VsPH1s1Hy42P-68" edge="1">
          <mxGeometry relative="1" as="geometry" />
        </mxCell>
        <mxCell id="jsK3o387VsPH1s1Hy42P-72" value="4" style="rounded=0;whiteSpace=wrap;html=1;fontStyle=1" parent="1" vertex="1">
          <mxGeometry x="-540" y="-590" width="40" height="18" as="geometry" />
        </mxCell>
        <mxCell id="jsK3o387VsPH1s1Hy42P-73" value="8" style="ellipse;whiteSpace=wrap;html=1;aspect=fixed;fillColor=#000000;verticalAlign=top;fontStyle=1" parent="1" vertex="1">
          <mxGeometry x="-540" y="-533" width="5" height="5" as="geometry" />
        </mxCell>
        <mxCell id="jsK3o387VsPH1s1Hy42P-74" value="9" style="ellipse;whiteSpace=wrap;html=1;aspect=fixed;fillColor=#000000;verticalAlign=top;fontStyle=1" parent="1" vertex="1">
          <mxGeometry x="-505" y="-533" width="5" height="5" as="geometry" />
        </mxCell>
        <mxCell id="jsK3o387VsPH1s1Hy42P-75" style="rounded=0;orthogonalLoop=1;jettySize=auto;html=1;exitX=0.25;exitY=1;exitDx=0;exitDy=0;entryX=0.5;entryY=0;entryDx=0;entryDy=0;endArrow=none;endFill=0;fontStyle=1" parent="1" source="jsK3o387VsPH1s1Hy42P-77" target="jsK3o387VsPH1s1Hy42P-78" edge="1">
          <mxGeometry relative="1" as="geometry" />
        </mxCell>
        <mxCell id="jsK3o387VsPH1s1Hy42P-76" style="rounded=0;orthogonalLoop=1;jettySize=auto;html=1;exitX=0.75;exitY=1;exitDx=0;exitDy=0;entryX=0.5;entryY=0;entryDx=0;entryDy=0;endArrow=none;endFill=0;fontStyle=1" parent="1" source="jsK3o387VsPH1s1Hy42P-77" target="jsK3o387VsPH1s1Hy42P-79" edge="1">
          <mxGeometry relative="1" as="geometry" />
        </mxCell>
        <mxCell id="jsK3o387VsPH1s1Hy42P-77" value="5" style="rounded=0;whiteSpace=wrap;html=1;fontStyle=1" parent="1" vertex="1">
          <mxGeometry x="-480" y="-590" width="40" height="18" as="geometry" />
        </mxCell>
        <mxCell id="jsK3o387VsPH1s1Hy42P-78" value="10" style="ellipse;whiteSpace=wrap;html=1;aspect=fixed;fillColor=#000000;verticalAlign=top;fontStyle=1" parent="1" vertex="1">
          <mxGeometry x="-480" y="-533" width="5" height="5" as="geometry" />
        </mxCell>
        <mxCell id="jsK3o387VsPH1s1Hy42P-79" value="11" style="ellipse;whiteSpace=wrap;html=1;aspect=fixed;fillColor=#000000;verticalAlign=top;fontStyle=1" parent="1" vertex="1">
          <mxGeometry x="-445" y="-533" width="5" height="5" as="geometry" />
        </mxCell>
        <mxCell id="jsK3o387VsPH1s1Hy42P-80" style="rounded=0;orthogonalLoop=1;jettySize=auto;html=1;exitX=0.25;exitY=0;exitDx=0;exitDy=0;entryX=0.75;entryY=1;entryDx=0;entryDy=0;endArrow=none;endFill=0;fontStyle=1" parent="1" source="jsK3o387VsPH1s1Hy42P-77" target="jsK3o387VsPH1s1Hy42P-67" edge="1">
          <mxGeometry relative="1" as="geometry">
            <mxPoint x="-500" y="-580" as="sourcePoint" />
            <mxPoint x="-460" y="-612" as="targetPoint" />
          </mxGeometry>
        </mxCell>
        <mxCell id="jsK3o387VsPH1s1Hy42P-81" style="rounded=0;orthogonalLoop=1;jettySize=auto;html=1;exitX=0.75;exitY=1;exitDx=0;exitDy=0;entryX=0.75;entryY=0;entryDx=0;entryDy=0;endArrow=none;endFill=0;fontStyle=1" parent="1" source="jsK3o387VsPH1s1Hy42P-68" target="jsK3o387VsPH1s1Hy42P-77" edge="1">
          <mxGeometry relative="1" as="geometry">
            <mxPoint x="-520" y="-612" as="sourcePoint" />
            <mxPoint x="-520" y="-580" as="targetPoint" />
          </mxGeometry>
        </mxCell>
        <mxCell id="jsK3o387VsPH1s1Hy42P-82" style="rounded=0;orthogonalLoop=1;jettySize=auto;html=1;exitX=0.25;exitY=1;exitDx=0;exitDy=0;entryX=0.25;entryY=0;entryDx=0;entryDy=0;endArrow=none;endFill=0;fontStyle=1" parent="1" source="jsK3o387VsPH1s1Hy42P-83" target="jsK3o387VsPH1s1Hy42P-88" edge="1">
          <mxGeometry relative="1" as="geometry" />
        </mxCell>
        <mxCell id="jsK3o387VsPH1s1Hy42P-83" value="6" style="rounded=0;whiteSpace=wrap;html=1;fontStyle=1" parent="1" vertex="1">
          <mxGeometry x="-420" y="-640" width="40" height="18" as="geometry" />
        </mxCell>
        <mxCell id="jsK3o387VsPH1s1Hy42P-84" value="7" style="rounded=0;whiteSpace=wrap;html=1;fontStyle=1" parent="1" vertex="1">
          <mxGeometry x="-360" y="-640" width="40" height="18" as="geometry" />
        </mxCell>
        <mxCell id="jsK3o387VsPH1s1Hy42P-85" style="rounded=0;orthogonalLoop=1;jettySize=auto;html=1;exitX=0.25;exitY=1;exitDx=0;exitDy=0;entryX=0.5;entryY=0;entryDx=0;entryDy=0;endArrow=none;endFill=0;fontStyle=1" parent="1" source="jsK3o387VsPH1s1Hy42P-88" target="jsK3o387VsPH1s1Hy42P-89" edge="1">
          <mxGeometry relative="1" as="geometry" />
        </mxCell>
        <mxCell id="jsK3o387VsPH1s1Hy42P-86" style="rounded=0;orthogonalLoop=1;jettySize=auto;html=1;exitX=0.75;exitY=1;exitDx=0;exitDy=0;entryX=0.5;entryY=0;entryDx=0;entryDy=0;endArrow=none;endFill=0;fontStyle=1" parent="1" source="jsK3o387VsPH1s1Hy42P-88" target="jsK3o387VsPH1s1Hy42P-90" edge="1">
          <mxGeometry relative="1" as="geometry" />
        </mxCell>
        <mxCell id="jsK3o387VsPH1s1Hy42P-87" style="rounded=0;orthogonalLoop=1;jettySize=auto;html=1;exitX=0.75;exitY=0;exitDx=0;exitDy=0;entryX=0.25;entryY=1;entryDx=0;entryDy=0;endArrow=none;endFill=0;fontStyle=1" parent="1" source="jsK3o387VsPH1s1Hy42P-88" target="jsK3o387VsPH1s1Hy42P-84" edge="1">
          <mxGeometry relative="1" as="geometry" />
        </mxCell>
        <mxCell id="jsK3o387VsPH1s1Hy42P-88" value="6" style="rounded=0;whiteSpace=wrap;html=1;fontStyle=1" parent="1" vertex="1">
          <mxGeometry x="-420" y="-590" width="40" height="18" as="geometry" />
        </mxCell>
        <mxCell id="jsK3o387VsPH1s1Hy42P-89" value="12" style="ellipse;whiteSpace=wrap;html=1;aspect=fixed;fillColor=#000000;verticalAlign=top;fontStyle=1" parent="1" vertex="1">
          <mxGeometry x="-420" y="-533" width="5" height="5" as="geometry" />
        </mxCell>
        <mxCell id="jsK3o387VsPH1s1Hy42P-90" value="13" style="ellipse;whiteSpace=wrap;html=1;aspect=fixed;fillColor=#000000;verticalAlign=top;fontStyle=1" parent="1" vertex="1">
          <mxGeometry x="-385" y="-533" width="5" height="5" as="geometry" />
        </mxCell>
        <mxCell id="jsK3o387VsPH1s1Hy42P-91" style="rounded=0;orthogonalLoop=1;jettySize=auto;html=1;exitX=0.25;exitY=1;exitDx=0;exitDy=0;entryX=0.5;entryY=0;entryDx=0;entryDy=0;endArrow=none;endFill=0;fontStyle=1" parent="1" source="jsK3o387VsPH1s1Hy42P-93" target="jsK3o387VsPH1s1Hy42P-94" edge="1">
          <mxGeometry relative="1" as="geometry" />
        </mxCell>
        <mxCell id="jsK3o387VsPH1s1Hy42P-92" style="rounded=0;orthogonalLoop=1;jettySize=auto;html=1;exitX=0.75;exitY=1;exitDx=0;exitDy=0;entryX=0.5;entryY=0;entryDx=0;entryDy=0;endArrow=none;endFill=0;fontStyle=1" parent="1" source="jsK3o387VsPH1s1Hy42P-93" target="jsK3o387VsPH1s1Hy42P-95" edge="1">
          <mxGeometry relative="1" as="geometry" />
        </mxCell>
        <mxCell id="jsK3o387VsPH1s1Hy42P-93" value="7" style="rounded=0;whiteSpace=wrap;html=1;fontStyle=1" parent="1" vertex="1">
          <mxGeometry x="-360" y="-590" width="40" height="18" as="geometry" />
        </mxCell>
        <mxCell id="jsK3o387VsPH1s1Hy42P-94" value="14" style="ellipse;whiteSpace=wrap;html=1;aspect=fixed;fillColor=#000000;verticalAlign=top;fontStyle=1" parent="1" vertex="1">
          <mxGeometry x="-360" y="-533" width="5" height="5" as="geometry" />
        </mxCell>
        <mxCell id="jsK3o387VsPH1s1Hy42P-95" value="15" style="ellipse;whiteSpace=wrap;html=1;aspect=fixed;fillColor=#000000;verticalAlign=top;fontStyle=1" parent="1" vertex="1">
          <mxGeometry x="-325" y="-533" width="5" height="5" as="geometry" />
        </mxCell>
        <mxCell id="jsK3o387VsPH1s1Hy42P-96" style="rounded=0;orthogonalLoop=1;jettySize=auto;html=1;exitX=0.25;exitY=0;exitDx=0;exitDy=0;entryX=0.75;entryY=1;entryDx=0;entryDy=0;endArrow=none;endFill=0;fontStyle=1" parent="1" source="jsK3o387VsPH1s1Hy42P-93" target="jsK3o387VsPH1s1Hy42P-83" edge="1">
          <mxGeometry relative="1" as="geometry">
            <mxPoint x="-380" y="-580" as="sourcePoint" />
            <mxPoint x="-340" y="-612" as="targetPoint" />
          </mxGeometry>
        </mxCell>
        <mxCell id="jsK3o387VsPH1s1Hy42P-97" style="rounded=0;orthogonalLoop=1;jettySize=auto;html=1;exitX=0.75;exitY=1;exitDx=0;exitDy=0;entryX=0.75;entryY=0;entryDx=0;entryDy=0;endArrow=none;endFill=0;fontStyle=1" parent="1" source="jsK3o387VsPH1s1Hy42P-84" target="jsK3o387VsPH1s1Hy42P-93" edge="1">
          <mxGeometry relative="1" as="geometry">
            <mxPoint x="-400" y="-612" as="sourcePoint" />
            <mxPoint x="-400" y="-580" as="targetPoint" />
          </mxGeometry>
        </mxCell>
        <mxCell id="jsK3o387VsPH1s1Hy42P-99" style="rounded=0;orthogonalLoop=1;jettySize=auto;html=1;exitX=0.25;exitY=0;exitDx=0;exitDy=0;entryX=0;entryY=1;entryDx=0;entryDy=0;endArrow=none;endFill=0;fontStyle=1" parent="1" source="jsK3o387VsPH1s1Hy42P-5" target="jsK3o387VsPH1s1Hy42P-1" edge="1">
          <mxGeometry relative="1" as="geometry">
            <mxPoint x="-700" y="-580" as="sourcePoint" />
            <mxPoint x="-740" y="-612" as="targetPoint" />
          </mxGeometry>
        </mxCell>
        <mxCell id="jsK3o387VsPH1s1Hy42P-100" style="rounded=0;orthogonalLoop=1;jettySize=auto;html=1;exitX=0.25;exitY=0;exitDx=0;exitDy=0;entryX=0.25;entryY=1;entryDx=0;entryDy=0;endArrow=none;endFill=0;fontStyle=1" parent="1" source="jsK3o387VsPH1s1Hy42P-51" target="jsK3o387VsPH1s1Hy42P-1" edge="1">
          <mxGeometry relative="1" as="geometry">
            <mxPoint x="-690" y="-570" as="sourcePoint" />
            <mxPoint x="-730" y="-602" as="targetPoint" />
          </mxGeometry>
        </mxCell>
        <mxCell id="jsK3o387VsPH1s1Hy42P-101" style="rounded=0;orthogonalLoop=1;jettySize=auto;html=1;exitX=0.75;exitY=1;exitDx=0;exitDy=0;entryX=0.25;entryY=0;entryDx=0;entryDy=0;endArrow=none;endFill=0;fontStyle=1" parent="1" source="jsK3o387VsPH1s1Hy42P-1" target="jsK3o387VsPH1s1Hy42P-67" edge="1">
          <mxGeometry relative="1" as="geometry">
            <mxPoint x="-680" y="-560" as="sourcePoint" />
            <mxPoint x="-720" y="-592" as="targetPoint" />
          </mxGeometry>
        </mxCell>
        <mxCell id="jsK3o387VsPH1s1Hy42P-102" style="rounded=0;orthogonalLoop=1;jettySize=auto;html=1;exitX=1;exitY=1;exitDx=0;exitDy=0;entryX=0.25;entryY=0;entryDx=0;entryDy=0;endArrow=none;endFill=0;fontStyle=1" parent="1" source="jsK3o387VsPH1s1Hy42P-1" target="jsK3o387VsPH1s1Hy42P-83" edge="1">
          <mxGeometry relative="1" as="geometry">
            <mxPoint x="-620" y="-662" as="sourcePoint" />
            <mxPoint x="-520" y="-630" as="targetPoint" />
          </mxGeometry>
        </mxCell>
        <mxCell id="jsK3o387VsPH1s1Hy42P-104" style="rounded=0;orthogonalLoop=1;jettySize=auto;html=1;exitX=0.75;exitY=0;exitDx=0;exitDy=0;entryX=0.25;entryY=1;entryDx=0;entryDy=0;endArrow=none;endFill=0;fontStyle=1" parent="1" source="jsK3o387VsPH1s1Hy42P-51" target="jsK3o387VsPH1s1Hy42P-2" edge="1">
          <mxGeometry relative="1" as="geometry">
            <mxPoint x="-585" y="-640" as="sourcePoint" />
            <mxPoint x="-585" y="-672" as="targetPoint" />
          </mxGeometry>
        </mxCell>
        <mxCell id="jsK3o387VsPH1s1Hy42P-105" style="rounded=0;orthogonalLoop=1;jettySize=auto;html=1;exitX=0.75;exitY=1;exitDx=0;exitDy=0;entryX=0.75;entryY=0;entryDx=0;entryDy=0;endArrow=none;endFill=0;fontStyle=1" parent="1" source="jsK3o387VsPH1s1Hy42P-2" target="jsK3o387VsPH1s1Hy42P-67" edge="1">
          <mxGeometry relative="1" as="geometry">
            <mxPoint x="-565" y="-672" as="sourcePoint" />
            <mxPoint x="-465" y="-640" as="targetPoint" />
          </mxGeometry>
        </mxCell>
        <mxCell id="jsK3o387VsPH1s1Hy42P-106" style="rounded=0;orthogonalLoop=1;jettySize=auto;html=1;exitX=1;exitY=1;exitDx=0;exitDy=0;entryX=0.75;entryY=0;entryDx=0;entryDy=0;endArrow=none;endFill=0;fontStyle=1" parent="1" source="jsK3o387VsPH1s1Hy42P-2" target="jsK3o387VsPH1s1Hy42P-83" edge="1">
          <mxGeometry relative="1" as="geometry">
            <mxPoint x="-555" y="-672" as="sourcePoint" />
            <mxPoint x="-345" y="-640" as="targetPoint" />
          </mxGeometry>
        </mxCell>
        <mxCell id="jsK3o387VsPH1s1Hy42P-107" style="rounded=0;orthogonalLoop=1;jettySize=auto;html=1;exitX=0.75;exitY=0;exitDx=0;exitDy=0;endArrow=none;endFill=0;entryX=0;entryY=1;entryDx=0;entryDy=0;fontStyle=1" parent="1" source="jsK3o387VsPH1s1Hy42P-5" target="jsK3o387VsPH1s1Hy42P-2" edge="1">
          <mxGeometry relative="1" as="geometry">
            <mxPoint x="-630" y="-640" as="sourcePoint" />
            <mxPoint x="-539" y="-702" as="targetPoint" />
          </mxGeometry>
        </mxCell>
        <mxCell id="jsK3o387VsPH1s1Hy42P-108" style="rounded=0;orthogonalLoop=1;jettySize=auto;html=1;exitX=0.25;exitY=0;exitDx=0;exitDy=0;entryX=0.25;entryY=1;entryDx=0;entryDy=0;endArrow=none;endFill=0;fontStyle=1" parent="1" source="jsK3o387VsPH1s1Hy42P-52" target="jsK3o387VsPH1s1Hy42P-3" edge="1">
          <mxGeometry relative="1" as="geometry">
            <mxPoint x="-530" y="-640" as="sourcePoint" />
            <mxPoint x="-530" y="-702" as="targetPoint" />
          </mxGeometry>
        </mxCell>
        <mxCell id="jsK3o387VsPH1s1Hy42P-109" style="rounded=0;orthogonalLoop=1;jettySize=auto;html=1;exitX=0.75;exitY=1;exitDx=0;exitDy=0;entryX=0.25;entryY=0;entryDx=0;entryDy=0;endArrow=none;endFill=0;fontStyle=1" parent="1" source="jsK3o387VsPH1s1Hy42P-3" target="jsK3o387VsPH1s1Hy42P-68" edge="1">
          <mxGeometry relative="1" as="geometry">
            <mxPoint x="-510" y="-702" as="sourcePoint" />
            <mxPoint x="-410" y="-640" as="targetPoint" />
          </mxGeometry>
        </mxCell>
        <mxCell id="jsK3o387VsPH1s1Hy42P-110" style="rounded=0;orthogonalLoop=1;jettySize=auto;html=1;entryX=0.25;entryY=0;entryDx=0;entryDy=0;endArrow=none;endFill=0;exitX=1;exitY=1;exitDx=0;exitDy=0;fontStyle=1" parent="1" source="jsK3o387VsPH1s1Hy42P-3" target="jsK3o387VsPH1s1Hy42P-84" edge="1">
          <mxGeometry relative="1" as="geometry">
            <mxPoint x="-490" y="-700" as="sourcePoint" />
            <mxPoint x="-300" y="-640" as="targetPoint" />
          </mxGeometry>
        </mxCell>
        <mxCell id="jsK3o387VsPH1s1Hy42P-113" style="rounded=0;orthogonalLoop=1;jettySize=auto;html=1;exitX=0.75;exitY=0;exitDx=0;exitDy=0;entryX=0;entryY=1;entryDx=0;entryDy=0;endArrow=none;endFill=0;fontStyle=1" parent="1" source="jsK3o387VsPH1s1Hy42P-6" target="jsK3o387VsPH1s1Hy42P-4" edge="1">
          <mxGeometry relative="1" as="geometry">
            <mxPoint x="-760" y="-630" as="sourcePoint" />
            <mxPoint x="-650" y="-712" as="targetPoint" />
          </mxGeometry>
        </mxCell>
        <mxCell id="jsK3o387VsPH1s1Hy42P-114" style="rounded=0;orthogonalLoop=1;jettySize=auto;html=1;exitX=0.75;exitY=0;exitDx=0;exitDy=0;entryX=0.25;entryY=1;entryDx=0;entryDy=0;endArrow=none;endFill=0;fontStyle=1" parent="1" source="jsK3o387VsPH1s1Hy42P-52" target="jsK3o387VsPH1s1Hy42P-4" edge="1">
          <mxGeometry relative="1" as="geometry">
            <mxPoint x="-750" y="-620" as="sourcePoint" />
            <mxPoint x="-640" y="-702" as="targetPoint" />
          </mxGeometry>
        </mxCell>
        <mxCell id="jsK3o387VsPH1s1Hy42P-115" style="rounded=0;orthogonalLoop=1;jettySize=auto;html=1;exitX=0.75;exitY=0;exitDx=0;exitDy=0;entryX=0.75;entryY=1;entryDx=0;entryDy=0;endArrow=none;endFill=0;fontStyle=1" parent="1" source="jsK3o387VsPH1s1Hy42P-68" target="jsK3o387VsPH1s1Hy42P-4" edge="1">
          <mxGeometry relative="1" as="geometry">
            <mxPoint x="-740" y="-610" as="sourcePoint" />
            <mxPoint x="-630" y="-692" as="targetPoint" />
          </mxGeometry>
        </mxCell>
        <mxCell id="jsK3o387VsPH1s1Hy42P-116" style="rounded=0;orthogonalLoop=1;jettySize=auto;html=1;exitX=0.75;exitY=0;exitDx=0;exitDy=0;entryX=1;entryY=1;entryDx=0;entryDy=0;endArrow=none;endFill=0;fontStyle=1" parent="1" source="jsK3o387VsPH1s1Hy42P-84" target="jsK3o387VsPH1s1Hy42P-4" edge="1">
          <mxGeometry relative="1" as="geometry">
            <mxPoint x="-730" y="-600" as="sourcePoint" />
            <mxPoint x="-620" y="-682" as="targetPoint" />
          </mxGeometry>
        </mxCell>
      </root>
    </mxGraphModel>
  </diagram>
  <diagram id="31BZ6Zv2q3TFw-8c-IhM" name="Barrier">
    <mxGraphModel dx="1965" dy="1749" grid="0" gridSize="10" guides="1" tooltips="1" connect="1" arrows="1" fold="1" page="1" pageScale="1" pageWidth="850" pageHeight="1100" math="0" shadow="0">
      <root>
        <mxCell id="0" />
        <mxCell id="1" parent="0" />
        <mxCell id="FDoTcAjNK_FnxD9gBWbV-1" value="0" style="rounded=0;whiteSpace=wrap;html=1;fontStyle=1" parent="1" vertex="1">
          <mxGeometry x="-710" y="-1080" width="49" height="18" as="geometry" />
        </mxCell>
        <mxCell id="FDoTcAjNK_FnxD9gBWbV-2" value="1" style="rounded=0;whiteSpace=wrap;html=1;fontStyle=1" parent="1" vertex="1">
          <mxGeometry x="-613" y="-1080" width="49" height="18" as="geometry" />
        </mxCell>
        <mxCell id="FDoTcAjNK_FnxD9gBWbV-3" style="rounded=0;orthogonalLoop=1;jettySize=auto;html=1;exitX=0;exitY=1;exitDx=0;exitDy=0;entryX=0.25;entryY=0;entryDx=0;entryDy=0;endArrow=none;endFill=0;fontStyle=1" parent="1" source="FDoTcAjNK_FnxD9gBWbV-4" target="FDoTcAjNK_FnxD9gBWbV-8" edge="1">
          <mxGeometry relative="1" as="geometry" />
        </mxCell>
        <mxCell id="FDoTcAjNK_FnxD9gBWbV-4" value="2" style="rounded=0;whiteSpace=wrap;html=1;fontStyle=1" parent="1" vertex="1">
          <mxGeometry x="-516" y="-1080" width="49" height="18" as="geometry" />
        </mxCell>
        <mxCell id="FDoTcAjNK_FnxD9gBWbV-5" value="3" style="rounded=0;whiteSpace=wrap;html=1;fontStyle=1" parent="1" vertex="1">
          <mxGeometry x="-419" y="-1080" width="49" height="18" as="geometry" />
        </mxCell>
        <mxCell id="FDoTcAjNK_FnxD9gBWbV-6" style="rounded=0;orthogonalLoop=1;jettySize=auto;html=1;exitX=0.25;exitY=1;exitDx=0;exitDy=0;entryX=0.25;entryY=0;entryDx=0;entryDy=0;endArrow=none;endFill=0;fontStyle=1" parent="1" source="FDoTcAjNK_FnxD9gBWbV-7" target="FDoTcAjNK_FnxD9gBWbV-12" edge="1">
          <mxGeometry relative="1" as="geometry" />
        </mxCell>
        <mxCell id="FDoTcAjNK_FnxD9gBWbV-7" value="0" style="rounded=0;whiteSpace=wrap;html=1;fontStyle=1" parent="1" vertex="1">
          <mxGeometry x="-770" y="-1005" width="40" height="18" as="geometry" />
        </mxCell>
        <mxCell id="FDoTcAjNK_FnxD9gBWbV-8" value="1" style="rounded=0;whiteSpace=wrap;html=1;fontStyle=1" parent="1" vertex="1">
          <mxGeometry x="-710" y="-1005" width="40" height="18" as="geometry" />
        </mxCell>
        <mxCell id="FDoTcAjNK_FnxD9gBWbV-9" style="rounded=0;orthogonalLoop=1;jettySize=auto;html=1;exitX=0.25;exitY=1;exitDx=0;exitDy=0;entryX=0.5;entryY=0;entryDx=0;entryDy=0;endArrow=none;endFill=0;fontStyle=1" parent="1" source="FDoTcAjNK_FnxD9gBWbV-12" target="FDoTcAjNK_FnxD9gBWbV-13" edge="1">
          <mxGeometry relative="1" as="geometry" />
        </mxCell>
        <mxCell id="FDoTcAjNK_FnxD9gBWbV-10" style="rounded=0;orthogonalLoop=1;jettySize=auto;html=1;exitX=0.75;exitY=1;exitDx=0;exitDy=0;entryX=0.5;entryY=0;entryDx=0;entryDy=0;endArrow=none;endFill=0;fontStyle=1" parent="1" source="FDoTcAjNK_FnxD9gBWbV-12" target="FDoTcAjNK_FnxD9gBWbV-15" edge="1">
          <mxGeometry relative="1" as="geometry" />
        </mxCell>
        <mxCell id="FDoTcAjNK_FnxD9gBWbV-11" style="rounded=0;orthogonalLoop=1;jettySize=auto;html=1;exitX=0.75;exitY=0;exitDx=0;exitDy=0;entryX=0.25;entryY=1;entryDx=0;entryDy=0;endArrow=none;endFill=0;fontStyle=1" parent="1" source="FDoTcAjNK_FnxD9gBWbV-12" target="FDoTcAjNK_FnxD9gBWbV-8" edge="1">
          <mxGeometry relative="1" as="geometry" />
        </mxCell>
        <mxCell id="FDoTcAjNK_FnxD9gBWbV-12" value="0" style="rounded=0;whiteSpace=wrap;html=1;fontStyle=1" parent="1" vertex="1">
          <mxGeometry x="-770" y="-955" width="40" height="18" as="geometry" />
        </mxCell>
        <mxCell id="FDoTcAjNK_FnxD9gBWbV-13" value="0" style="ellipse;whiteSpace=wrap;html=1;aspect=fixed;fillColor=#000000;verticalAlign=top;fontStyle=1" parent="1" vertex="1">
          <mxGeometry x="-770" y="-898" width="5" height="5" as="geometry" />
        </mxCell>
        <mxCell id="FDoTcAjNK_FnxD9gBWbV-15" value="1" style="ellipse;whiteSpace=wrap;html=1;aspect=fixed;fillColor=#000000;verticalAlign=top;fontStyle=1" parent="1" vertex="1">
          <mxGeometry x="-735" y="-898" width="5" height="5" as="geometry" />
        </mxCell>
        <mxCell id="FDoTcAjNK_FnxD9gBWbV-16" style="rounded=0;orthogonalLoop=1;jettySize=auto;html=1;exitX=0.25;exitY=1;exitDx=0;exitDy=0;entryX=0.5;entryY=0;entryDx=0;entryDy=0;endArrow=none;endFill=0;fontStyle=1" parent="1" source="FDoTcAjNK_FnxD9gBWbV-18" target="FDoTcAjNK_FnxD9gBWbV-19" edge="1">
          <mxGeometry relative="1" as="geometry" />
        </mxCell>
        <mxCell id="FDoTcAjNK_FnxD9gBWbV-17" style="rounded=0;orthogonalLoop=1;jettySize=auto;html=1;exitX=0.75;exitY=1;exitDx=0;exitDy=0;entryX=0.5;entryY=0;entryDx=0;entryDy=0;endArrow=none;endFill=0;fontStyle=1" parent="1" source="FDoTcAjNK_FnxD9gBWbV-18" target="FDoTcAjNK_FnxD9gBWbV-20" edge="1">
          <mxGeometry relative="1" as="geometry" />
        </mxCell>
        <mxCell id="FDoTcAjNK_FnxD9gBWbV-18" value="1" style="rounded=0;whiteSpace=wrap;html=1;fontStyle=1" parent="1" vertex="1">
          <mxGeometry x="-710" y="-955" width="40" height="18" as="geometry" />
        </mxCell>
        <mxCell id="FDoTcAjNK_FnxD9gBWbV-19" value="2" style="ellipse;whiteSpace=wrap;html=1;aspect=fixed;fillColor=#000000;verticalAlign=top;fontStyle=1" parent="1" vertex="1">
          <mxGeometry x="-710" y="-898" width="5" height="5" as="geometry" />
        </mxCell>
        <mxCell id="FDoTcAjNK_FnxD9gBWbV-20" value="3" style="ellipse;whiteSpace=wrap;html=1;aspect=fixed;fillColor=#000000;verticalAlign=top;fontStyle=1" parent="1" vertex="1">
          <mxGeometry x="-675" y="-898" width="5" height="5" as="geometry" />
        </mxCell>
        <mxCell id="FDoTcAjNK_FnxD9gBWbV-21" style="rounded=0;orthogonalLoop=1;jettySize=auto;html=1;exitX=0.25;exitY=0;exitDx=0;exitDy=0;entryX=0.75;entryY=1;entryDx=0;entryDy=0;endArrow=none;endFill=0;fontStyle=1" parent="1" source="FDoTcAjNK_FnxD9gBWbV-18" target="FDoTcAjNK_FnxD9gBWbV-7" edge="1">
          <mxGeometry relative="1" as="geometry">
            <mxPoint x="-730" y="-945" as="sourcePoint" />
            <mxPoint x="-690" y="-977" as="targetPoint" />
          </mxGeometry>
        </mxCell>
        <mxCell id="FDoTcAjNK_FnxD9gBWbV-22" style="rounded=0;orthogonalLoop=1;jettySize=auto;html=1;exitX=0.75;exitY=1;exitDx=0;exitDy=0;entryX=0.75;entryY=0;entryDx=0;entryDy=0;endArrow=none;endFill=0;fontStyle=1" parent="1" source="FDoTcAjNK_FnxD9gBWbV-8" target="FDoTcAjNK_FnxD9gBWbV-18" edge="1">
          <mxGeometry relative="1" as="geometry">
            <mxPoint x="-750" y="-977" as="sourcePoint" />
            <mxPoint x="-750" y="-945" as="targetPoint" />
          </mxGeometry>
        </mxCell>
        <mxCell id="FDoTcAjNK_FnxD9gBWbV-23" style="rounded=0;orthogonalLoop=1;jettySize=auto;html=1;exitX=0.25;exitY=1;exitDx=0;exitDy=0;entryX=0.25;entryY=0;entryDx=0;entryDy=0;endArrow=none;endFill=0;fontStyle=1" parent="1" source="FDoTcAjNK_FnxD9gBWbV-24" target="FDoTcAjNK_FnxD9gBWbV-29" edge="1">
          <mxGeometry relative="1" as="geometry" />
        </mxCell>
        <mxCell id="FDoTcAjNK_FnxD9gBWbV-24" value="2" style="rounded=0;whiteSpace=wrap;html=1;fontStyle=1" parent="1" vertex="1">
          <mxGeometry x="-650" y="-1005" width="40" height="18" as="geometry" />
        </mxCell>
        <mxCell id="FDoTcAjNK_FnxD9gBWbV-25" value="3" style="rounded=0;whiteSpace=wrap;html=1;fontStyle=1" parent="1" vertex="1">
          <mxGeometry x="-590" y="-1005" width="40" height="18" as="geometry" />
        </mxCell>
        <mxCell id="FDoTcAjNK_FnxD9gBWbV-26" style="rounded=0;orthogonalLoop=1;jettySize=auto;html=1;exitX=0.25;exitY=1;exitDx=0;exitDy=0;entryX=0.5;entryY=0;entryDx=0;entryDy=0;endArrow=none;endFill=0;fontStyle=1" parent="1" source="FDoTcAjNK_FnxD9gBWbV-29" target="FDoTcAjNK_FnxD9gBWbV-30" edge="1">
          <mxGeometry relative="1" as="geometry" />
        </mxCell>
        <mxCell id="FDoTcAjNK_FnxD9gBWbV-27" style="rounded=0;orthogonalLoop=1;jettySize=auto;html=1;exitX=0.75;exitY=1;exitDx=0;exitDy=0;entryX=0.5;entryY=0;entryDx=0;entryDy=0;endArrow=none;endFill=0;fontStyle=1" parent="1" source="FDoTcAjNK_FnxD9gBWbV-29" target="FDoTcAjNK_FnxD9gBWbV-31" edge="1">
          <mxGeometry relative="1" as="geometry" />
        </mxCell>
        <mxCell id="FDoTcAjNK_FnxD9gBWbV-28" style="rounded=0;orthogonalLoop=1;jettySize=auto;html=1;exitX=0.75;exitY=0;exitDx=0;exitDy=0;entryX=0.25;entryY=1;entryDx=0;entryDy=0;endArrow=none;endFill=0;fontStyle=1" parent="1" source="FDoTcAjNK_FnxD9gBWbV-29" target="FDoTcAjNK_FnxD9gBWbV-25" edge="1">
          <mxGeometry relative="1" as="geometry" />
        </mxCell>
        <mxCell id="FDoTcAjNK_FnxD9gBWbV-29" value="2" style="rounded=0;whiteSpace=wrap;html=1;fontStyle=1" parent="1" vertex="1">
          <mxGeometry x="-650" y="-955" width="40" height="18" as="geometry" />
        </mxCell>
        <mxCell id="FDoTcAjNK_FnxD9gBWbV-30" value="4" style="ellipse;whiteSpace=wrap;html=1;aspect=fixed;fillColor=#000000;verticalAlign=top;fontStyle=1" parent="1" vertex="1">
          <mxGeometry x="-650" y="-898" width="5" height="5" as="geometry" />
        </mxCell>
        <mxCell id="FDoTcAjNK_FnxD9gBWbV-31" value="5" style="ellipse;whiteSpace=wrap;html=1;aspect=fixed;fillColor=#000000;verticalAlign=top;fontStyle=1" parent="1" vertex="1">
          <mxGeometry x="-615" y="-898" width="5" height="5" as="geometry" />
        </mxCell>
        <mxCell id="FDoTcAjNK_FnxD9gBWbV-32" style="rounded=0;orthogonalLoop=1;jettySize=auto;html=1;exitX=0.25;exitY=1;exitDx=0;exitDy=0;entryX=0.5;entryY=0;entryDx=0;entryDy=0;endArrow=none;endFill=0;fontStyle=1" parent="1" source="FDoTcAjNK_FnxD9gBWbV-34" target="FDoTcAjNK_FnxD9gBWbV-35" edge="1">
          <mxGeometry relative="1" as="geometry" />
        </mxCell>
        <mxCell id="FDoTcAjNK_FnxD9gBWbV-33" style="rounded=0;orthogonalLoop=1;jettySize=auto;html=1;exitX=0.75;exitY=1;exitDx=0;exitDy=0;entryX=0.5;entryY=0;entryDx=0;entryDy=0;endArrow=none;endFill=0;fontStyle=1" parent="1" source="FDoTcAjNK_FnxD9gBWbV-34" target="FDoTcAjNK_FnxD9gBWbV-36" edge="1">
          <mxGeometry relative="1" as="geometry" />
        </mxCell>
        <mxCell id="FDoTcAjNK_FnxD9gBWbV-34" value="3" style="rounded=0;whiteSpace=wrap;html=1;fontStyle=1" parent="1" vertex="1">
          <mxGeometry x="-590" y="-955" width="40" height="18" as="geometry" />
        </mxCell>
        <mxCell id="FDoTcAjNK_FnxD9gBWbV-35" value="6" style="ellipse;whiteSpace=wrap;html=1;aspect=fixed;fillColor=#000000;verticalAlign=top;fontStyle=1" parent="1" vertex="1">
          <mxGeometry x="-590" y="-898" width="5" height="5" as="geometry" />
        </mxCell>
        <mxCell id="FDoTcAjNK_FnxD9gBWbV-36" value="7" style="ellipse;whiteSpace=wrap;html=1;aspect=fixed;fillColor=#000000;verticalAlign=top;fontStyle=1" parent="1" vertex="1">
          <mxGeometry x="-555" y="-898" width="5" height="5" as="geometry" />
        </mxCell>
        <mxCell id="FDoTcAjNK_FnxD9gBWbV-37" style="rounded=0;orthogonalLoop=1;jettySize=auto;html=1;exitX=0.25;exitY=0;exitDx=0;exitDy=0;entryX=0.75;entryY=1;entryDx=0;entryDy=0;endArrow=none;endFill=0;fontStyle=1" parent="1" source="FDoTcAjNK_FnxD9gBWbV-34" target="FDoTcAjNK_FnxD9gBWbV-24" edge="1">
          <mxGeometry relative="1" as="geometry">
            <mxPoint x="-610" y="-945" as="sourcePoint" />
            <mxPoint x="-570" y="-977" as="targetPoint" />
          </mxGeometry>
        </mxCell>
        <mxCell id="FDoTcAjNK_FnxD9gBWbV-38" style="rounded=0;orthogonalLoop=1;jettySize=auto;html=1;exitX=0.75;exitY=1;exitDx=0;exitDy=0;entryX=0.75;entryY=0;entryDx=0;entryDy=0;endArrow=none;endFill=0;fontStyle=1" parent="1" source="FDoTcAjNK_FnxD9gBWbV-25" target="FDoTcAjNK_FnxD9gBWbV-34" edge="1">
          <mxGeometry relative="1" as="geometry">
            <mxPoint x="-630" y="-977" as="sourcePoint" />
            <mxPoint x="-630" y="-945" as="targetPoint" />
          </mxGeometry>
        </mxCell>
        <mxCell id="FDoTcAjNK_FnxD9gBWbV-39" style="rounded=0;orthogonalLoop=1;jettySize=auto;html=1;exitX=0.25;exitY=1;exitDx=0;exitDy=0;entryX=0.25;entryY=0;entryDx=0;entryDy=0;endArrow=none;endFill=0;fontStyle=1" parent="1" source="FDoTcAjNK_FnxD9gBWbV-40" target="FDoTcAjNK_FnxD9gBWbV-45" edge="1">
          <mxGeometry relative="1" as="geometry" />
        </mxCell>
        <mxCell id="FDoTcAjNK_FnxD9gBWbV-40" value="4" style="rounded=0;whiteSpace=wrap;html=1;fontStyle=1" parent="1" vertex="1">
          <mxGeometry x="-530" y="-1005" width="40" height="18" as="geometry" />
        </mxCell>
        <mxCell id="FDoTcAjNK_FnxD9gBWbV-41" value="5" style="rounded=0;whiteSpace=wrap;html=1;fontStyle=1" parent="1" vertex="1">
          <mxGeometry x="-470" y="-1005" width="40" height="18" as="geometry" />
        </mxCell>
        <mxCell id="FDoTcAjNK_FnxD9gBWbV-42" style="rounded=0;orthogonalLoop=1;jettySize=auto;html=1;exitX=0.25;exitY=1;exitDx=0;exitDy=0;entryX=0.5;entryY=0;entryDx=0;entryDy=0;endArrow=none;endFill=0;fontStyle=1" parent="1" source="FDoTcAjNK_FnxD9gBWbV-45" target="FDoTcAjNK_FnxD9gBWbV-46" edge="1">
          <mxGeometry relative="1" as="geometry" />
        </mxCell>
        <mxCell id="FDoTcAjNK_FnxD9gBWbV-43" style="rounded=0;orthogonalLoop=1;jettySize=auto;html=1;exitX=0.75;exitY=1;exitDx=0;exitDy=0;entryX=0.5;entryY=0;entryDx=0;entryDy=0;endArrow=none;endFill=0;fontStyle=1" parent="1" source="FDoTcAjNK_FnxD9gBWbV-45" target="FDoTcAjNK_FnxD9gBWbV-47" edge="1">
          <mxGeometry relative="1" as="geometry" />
        </mxCell>
        <mxCell id="FDoTcAjNK_FnxD9gBWbV-44" style="rounded=0;orthogonalLoop=1;jettySize=auto;html=1;exitX=0.75;exitY=0;exitDx=0;exitDy=0;entryX=0.25;entryY=1;entryDx=0;entryDy=0;endArrow=none;endFill=0;fontStyle=1" parent="1" source="FDoTcAjNK_FnxD9gBWbV-45" target="FDoTcAjNK_FnxD9gBWbV-41" edge="1">
          <mxGeometry relative="1" as="geometry" />
        </mxCell>
        <mxCell id="FDoTcAjNK_FnxD9gBWbV-45" value="4" style="rounded=0;whiteSpace=wrap;html=1;fontStyle=1" parent="1" vertex="1">
          <mxGeometry x="-530" y="-955" width="40" height="18" as="geometry" />
        </mxCell>
        <mxCell id="FDoTcAjNK_FnxD9gBWbV-46" value="8" style="ellipse;whiteSpace=wrap;html=1;aspect=fixed;fillColor=#000000;verticalAlign=top;fontStyle=1" parent="1" vertex="1">
          <mxGeometry x="-530" y="-898" width="5" height="5" as="geometry" />
        </mxCell>
        <mxCell id="FDoTcAjNK_FnxD9gBWbV-47" value="9" style="ellipse;whiteSpace=wrap;html=1;aspect=fixed;fillColor=#000000;verticalAlign=top;fontStyle=1" parent="1" vertex="1">
          <mxGeometry x="-495" y="-898" width="5" height="5" as="geometry" />
        </mxCell>
        <mxCell id="FDoTcAjNK_FnxD9gBWbV-48" style="rounded=0;orthogonalLoop=1;jettySize=auto;html=1;exitX=0.25;exitY=1;exitDx=0;exitDy=0;entryX=0.5;entryY=0;entryDx=0;entryDy=0;endArrow=none;endFill=0;fontStyle=1" parent="1" source="FDoTcAjNK_FnxD9gBWbV-50" target="FDoTcAjNK_FnxD9gBWbV-51" edge="1">
          <mxGeometry relative="1" as="geometry" />
        </mxCell>
        <mxCell id="FDoTcAjNK_FnxD9gBWbV-49" style="rounded=0;orthogonalLoop=1;jettySize=auto;html=1;exitX=0.75;exitY=1;exitDx=0;exitDy=0;entryX=0.5;entryY=0;entryDx=0;entryDy=0;endArrow=none;endFill=0;fontStyle=1" parent="1" source="FDoTcAjNK_FnxD9gBWbV-50" target="FDoTcAjNK_FnxD9gBWbV-52" edge="1">
          <mxGeometry relative="1" as="geometry" />
        </mxCell>
        <mxCell id="FDoTcAjNK_FnxD9gBWbV-50" value="5" style="rounded=0;whiteSpace=wrap;html=1;fontStyle=1" parent="1" vertex="1">
          <mxGeometry x="-470" y="-955" width="40" height="18" as="geometry" />
        </mxCell>
        <mxCell id="FDoTcAjNK_FnxD9gBWbV-51" value="10" style="ellipse;whiteSpace=wrap;html=1;aspect=fixed;fillColor=#000000;verticalAlign=top;fontStyle=1" parent="1" vertex="1">
          <mxGeometry x="-470" y="-898" width="5" height="5" as="geometry" />
        </mxCell>
        <mxCell id="FDoTcAjNK_FnxD9gBWbV-52" value="11" style="ellipse;whiteSpace=wrap;html=1;aspect=fixed;fillColor=#000000;verticalAlign=top;fontStyle=1" parent="1" vertex="1">
          <mxGeometry x="-435" y="-898" width="5" height="5" as="geometry" />
        </mxCell>
        <mxCell id="FDoTcAjNK_FnxD9gBWbV-53" style="rounded=0;orthogonalLoop=1;jettySize=auto;html=1;exitX=0.25;exitY=0;exitDx=0;exitDy=0;entryX=0.75;entryY=1;entryDx=0;entryDy=0;endArrow=none;endFill=0;fontStyle=1" parent="1" source="FDoTcAjNK_FnxD9gBWbV-50" target="FDoTcAjNK_FnxD9gBWbV-40" edge="1">
          <mxGeometry relative="1" as="geometry">
            <mxPoint x="-490" y="-945" as="sourcePoint" />
            <mxPoint x="-450" y="-977" as="targetPoint" />
          </mxGeometry>
        </mxCell>
        <mxCell id="FDoTcAjNK_FnxD9gBWbV-54" style="rounded=0;orthogonalLoop=1;jettySize=auto;html=1;exitX=0.75;exitY=1;exitDx=0;exitDy=0;entryX=0.75;entryY=0;entryDx=0;entryDy=0;endArrow=none;endFill=0;fontStyle=1" parent="1" source="FDoTcAjNK_FnxD9gBWbV-41" target="FDoTcAjNK_FnxD9gBWbV-50" edge="1">
          <mxGeometry relative="1" as="geometry">
            <mxPoint x="-510" y="-977" as="sourcePoint" />
            <mxPoint x="-510" y="-945" as="targetPoint" />
          </mxGeometry>
        </mxCell>
        <mxCell id="FDoTcAjNK_FnxD9gBWbV-55" style="rounded=0;orthogonalLoop=1;jettySize=auto;html=1;exitX=0.25;exitY=1;exitDx=0;exitDy=0;entryX=0.25;entryY=0;entryDx=0;entryDy=0;endArrow=none;endFill=0;fontStyle=1" parent="1" source="FDoTcAjNK_FnxD9gBWbV-56" target="FDoTcAjNK_FnxD9gBWbV-61" edge="1">
          <mxGeometry relative="1" as="geometry" />
        </mxCell>
        <mxCell id="FDoTcAjNK_FnxD9gBWbV-56" value="6" style="rounded=0;whiteSpace=wrap;html=1;fontStyle=1" parent="1" vertex="1">
          <mxGeometry x="-410" y="-1005" width="40" height="18" as="geometry" />
        </mxCell>
        <mxCell id="FDoTcAjNK_FnxD9gBWbV-57" value="7" style="rounded=0;whiteSpace=wrap;html=1;fontStyle=1" parent="1" vertex="1">
          <mxGeometry x="-350" y="-1005" width="40" height="18" as="geometry" />
        </mxCell>
        <mxCell id="FDoTcAjNK_FnxD9gBWbV-58" style="rounded=0;orthogonalLoop=1;jettySize=auto;html=1;exitX=0.25;exitY=1;exitDx=0;exitDy=0;entryX=0.5;entryY=0;entryDx=0;entryDy=0;endArrow=none;endFill=0;fontStyle=1" parent="1" source="FDoTcAjNK_FnxD9gBWbV-61" target="FDoTcAjNK_FnxD9gBWbV-62" edge="1">
          <mxGeometry relative="1" as="geometry" />
        </mxCell>
        <mxCell id="FDoTcAjNK_FnxD9gBWbV-59" style="rounded=0;orthogonalLoop=1;jettySize=auto;html=1;exitX=0.75;exitY=1;exitDx=0;exitDy=0;entryX=0.5;entryY=0;entryDx=0;entryDy=0;endArrow=none;endFill=0;fontStyle=1" parent="1" source="FDoTcAjNK_FnxD9gBWbV-61" target="FDoTcAjNK_FnxD9gBWbV-63" edge="1">
          <mxGeometry relative="1" as="geometry" />
        </mxCell>
        <mxCell id="FDoTcAjNK_FnxD9gBWbV-60" style="rounded=0;orthogonalLoop=1;jettySize=auto;html=1;exitX=0.75;exitY=0;exitDx=0;exitDy=0;entryX=0.25;entryY=1;entryDx=0;entryDy=0;endArrow=none;endFill=0;fontStyle=1" parent="1" source="FDoTcAjNK_FnxD9gBWbV-61" target="FDoTcAjNK_FnxD9gBWbV-57" edge="1">
          <mxGeometry relative="1" as="geometry" />
        </mxCell>
        <mxCell id="FDoTcAjNK_FnxD9gBWbV-61" value="6" style="rounded=0;whiteSpace=wrap;html=1;fontStyle=1" parent="1" vertex="1">
          <mxGeometry x="-410" y="-955" width="40" height="18" as="geometry" />
        </mxCell>
        <mxCell id="FDoTcAjNK_FnxD9gBWbV-62" value="12" style="ellipse;whiteSpace=wrap;html=1;aspect=fixed;fillColor=#000000;verticalAlign=top;fontStyle=1" parent="1" vertex="1">
          <mxGeometry x="-410" y="-898" width="5" height="5" as="geometry" />
        </mxCell>
        <mxCell id="FDoTcAjNK_FnxD9gBWbV-63" value="13" style="ellipse;whiteSpace=wrap;html=1;aspect=fixed;fillColor=#000000;verticalAlign=top;fontStyle=1" parent="1" vertex="1">
          <mxGeometry x="-375" y="-898" width="5" height="5" as="geometry" />
        </mxCell>
        <mxCell id="FDoTcAjNK_FnxD9gBWbV-64" style="rounded=0;orthogonalLoop=1;jettySize=auto;html=1;exitX=0.25;exitY=1;exitDx=0;exitDy=0;entryX=0.5;entryY=0;entryDx=0;entryDy=0;endArrow=none;endFill=0;fontStyle=1" parent="1" source="FDoTcAjNK_FnxD9gBWbV-66" target="FDoTcAjNK_FnxD9gBWbV-67" edge="1">
          <mxGeometry relative="1" as="geometry" />
        </mxCell>
        <mxCell id="FDoTcAjNK_FnxD9gBWbV-65" style="rounded=0;orthogonalLoop=1;jettySize=auto;html=1;exitX=0.75;exitY=1;exitDx=0;exitDy=0;entryX=0.5;entryY=0;entryDx=0;entryDy=0;endArrow=none;endFill=0;fontStyle=1" parent="1" source="FDoTcAjNK_FnxD9gBWbV-66" target="FDoTcAjNK_FnxD9gBWbV-68" edge="1">
          <mxGeometry relative="1" as="geometry" />
        </mxCell>
        <mxCell id="FDoTcAjNK_FnxD9gBWbV-66" value="7" style="rounded=0;whiteSpace=wrap;html=1;fontStyle=1" parent="1" vertex="1">
          <mxGeometry x="-350" y="-955" width="40" height="18" as="geometry" />
        </mxCell>
        <mxCell id="FDoTcAjNK_FnxD9gBWbV-67" value="14" style="ellipse;whiteSpace=wrap;html=1;aspect=fixed;fillColor=#000000;verticalAlign=top;fontStyle=1" parent="1" vertex="1">
          <mxGeometry x="-350" y="-898" width="5" height="5" as="geometry" />
        </mxCell>
        <mxCell id="FDoTcAjNK_FnxD9gBWbV-68" value="15" style="ellipse;whiteSpace=wrap;html=1;aspect=fixed;fillColor=#000000;verticalAlign=top;fontStyle=1" parent="1" vertex="1">
          <mxGeometry x="-315" y="-898" width="5" height="5" as="geometry" />
        </mxCell>
        <mxCell id="FDoTcAjNK_FnxD9gBWbV-69" style="rounded=0;orthogonalLoop=1;jettySize=auto;html=1;exitX=0.25;exitY=0;exitDx=0;exitDy=0;entryX=0.75;entryY=1;entryDx=0;entryDy=0;endArrow=none;endFill=0;fontStyle=1" parent="1" source="FDoTcAjNK_FnxD9gBWbV-66" target="FDoTcAjNK_FnxD9gBWbV-56" edge="1">
          <mxGeometry relative="1" as="geometry">
            <mxPoint x="-370" y="-945" as="sourcePoint" />
            <mxPoint x="-330" y="-977" as="targetPoint" />
          </mxGeometry>
        </mxCell>
        <mxCell id="FDoTcAjNK_FnxD9gBWbV-70" style="rounded=0;orthogonalLoop=1;jettySize=auto;html=1;exitX=0.75;exitY=1;exitDx=0;exitDy=0;entryX=0.75;entryY=0;entryDx=0;entryDy=0;endArrow=none;endFill=0;fontStyle=1" parent="1" source="FDoTcAjNK_FnxD9gBWbV-57" target="FDoTcAjNK_FnxD9gBWbV-66" edge="1">
          <mxGeometry relative="1" as="geometry">
            <mxPoint x="-390" y="-977" as="sourcePoint" />
            <mxPoint x="-390" y="-945" as="targetPoint" />
          </mxGeometry>
        </mxCell>
        <mxCell id="FDoTcAjNK_FnxD9gBWbV-71" style="rounded=0;orthogonalLoop=1;jettySize=auto;html=1;exitX=0.25;exitY=0;exitDx=0;exitDy=0;entryX=0;entryY=1;entryDx=0;entryDy=0;endArrow=none;endFill=0;fontStyle=1" parent="1" source="FDoTcAjNK_FnxD9gBWbV-7" target="FDoTcAjNK_FnxD9gBWbV-1" edge="1">
          <mxGeometry relative="1" as="geometry">
            <mxPoint x="-690" y="-945" as="sourcePoint" />
            <mxPoint x="-730" y="-977" as="targetPoint" />
          </mxGeometry>
        </mxCell>
        <mxCell id="FDoTcAjNK_FnxD9gBWbV-72" style="rounded=0;orthogonalLoop=1;jettySize=auto;html=1;exitX=0.25;exitY=0;exitDx=0;exitDy=0;entryX=0.25;entryY=1;entryDx=0;entryDy=0;endArrow=none;endFill=0;fontStyle=1" parent="1" source="FDoTcAjNK_FnxD9gBWbV-24" target="FDoTcAjNK_FnxD9gBWbV-1" edge="1">
          <mxGeometry relative="1" as="geometry">
            <mxPoint x="-680" y="-935" as="sourcePoint" />
            <mxPoint x="-720" y="-967" as="targetPoint" />
          </mxGeometry>
        </mxCell>
        <mxCell id="FDoTcAjNK_FnxD9gBWbV-73" style="rounded=0;orthogonalLoop=1;jettySize=auto;html=1;exitX=0.75;exitY=1;exitDx=0;exitDy=0;entryX=0.25;entryY=0;entryDx=0;entryDy=0;endArrow=none;endFill=0;fontStyle=1" parent="1" source="FDoTcAjNK_FnxD9gBWbV-1" target="FDoTcAjNK_FnxD9gBWbV-40" edge="1">
          <mxGeometry relative="1" as="geometry">
            <mxPoint x="-670" y="-925" as="sourcePoint" />
            <mxPoint x="-710" y="-957" as="targetPoint" />
          </mxGeometry>
        </mxCell>
        <mxCell id="FDoTcAjNK_FnxD9gBWbV-74" style="rounded=0;orthogonalLoop=1;jettySize=auto;html=1;exitX=1;exitY=1;exitDx=0;exitDy=0;entryX=0.25;entryY=0;entryDx=0;entryDy=0;endArrow=none;endFill=0;fontStyle=1" parent="1" source="FDoTcAjNK_FnxD9gBWbV-1" target="FDoTcAjNK_FnxD9gBWbV-56" edge="1">
          <mxGeometry relative="1" as="geometry">
            <mxPoint x="-610" y="-1027" as="sourcePoint" />
            <mxPoint x="-510" y="-995" as="targetPoint" />
          </mxGeometry>
        </mxCell>
        <mxCell id="FDoTcAjNK_FnxD9gBWbV-75" style="rounded=0;orthogonalLoop=1;jettySize=auto;html=1;exitX=0.75;exitY=0;exitDx=0;exitDy=0;entryX=0.25;entryY=1;entryDx=0;entryDy=0;endArrow=none;endFill=0;fontStyle=1" parent="1" source="FDoTcAjNK_FnxD9gBWbV-24" target="FDoTcAjNK_FnxD9gBWbV-2" edge="1">
          <mxGeometry relative="1" as="geometry">
            <mxPoint x="-575" y="-1005" as="sourcePoint" />
            <mxPoint x="-575" y="-1037" as="targetPoint" />
          </mxGeometry>
        </mxCell>
        <mxCell id="FDoTcAjNK_FnxD9gBWbV-76" style="rounded=0;orthogonalLoop=1;jettySize=auto;html=1;exitX=0.75;exitY=1;exitDx=0;exitDy=0;entryX=0.75;entryY=0;entryDx=0;entryDy=0;endArrow=none;endFill=0;fontStyle=1" parent="1" source="FDoTcAjNK_FnxD9gBWbV-2" target="FDoTcAjNK_FnxD9gBWbV-40" edge="1">
          <mxGeometry relative="1" as="geometry">
            <mxPoint x="-555" y="-1037" as="sourcePoint" />
            <mxPoint x="-455" y="-1005" as="targetPoint" />
          </mxGeometry>
        </mxCell>
        <mxCell id="FDoTcAjNK_FnxD9gBWbV-77" style="rounded=0;orthogonalLoop=1;jettySize=auto;html=1;exitX=1;exitY=1;exitDx=0;exitDy=0;entryX=0.75;entryY=0;entryDx=0;entryDy=0;endArrow=none;endFill=0;fontStyle=1" parent="1" source="FDoTcAjNK_FnxD9gBWbV-2" target="FDoTcAjNK_FnxD9gBWbV-56" edge="1">
          <mxGeometry relative="1" as="geometry">
            <mxPoint x="-545" y="-1037" as="sourcePoint" />
            <mxPoint x="-335" y="-1005" as="targetPoint" />
          </mxGeometry>
        </mxCell>
        <mxCell id="FDoTcAjNK_FnxD9gBWbV-78" style="rounded=0;orthogonalLoop=1;jettySize=auto;html=1;exitX=0.75;exitY=0;exitDx=0;exitDy=0;endArrow=none;endFill=0;entryX=0;entryY=1;entryDx=0;entryDy=0;fontStyle=1" parent="1" source="FDoTcAjNK_FnxD9gBWbV-7" target="FDoTcAjNK_FnxD9gBWbV-2" edge="1">
          <mxGeometry relative="1" as="geometry">
            <mxPoint x="-620" y="-1005" as="sourcePoint" />
            <mxPoint x="-529" y="-1067" as="targetPoint" />
          </mxGeometry>
        </mxCell>
        <mxCell id="FDoTcAjNK_FnxD9gBWbV-79" style="rounded=0;orthogonalLoop=1;jettySize=auto;html=1;exitX=0.25;exitY=0;exitDx=0;exitDy=0;entryX=0.25;entryY=1;entryDx=0;entryDy=0;endArrow=none;endFill=0;fontStyle=1" parent="1" source="FDoTcAjNK_FnxD9gBWbV-25" target="FDoTcAjNK_FnxD9gBWbV-4" edge="1">
          <mxGeometry relative="1" as="geometry">
            <mxPoint x="-520" y="-1005" as="sourcePoint" />
            <mxPoint x="-520" y="-1067" as="targetPoint" />
          </mxGeometry>
        </mxCell>
        <mxCell id="FDoTcAjNK_FnxD9gBWbV-80" style="rounded=0;orthogonalLoop=1;jettySize=auto;html=1;exitX=0.75;exitY=1;exitDx=0;exitDy=0;entryX=0.25;entryY=0;entryDx=0;entryDy=0;endArrow=none;endFill=0;fontStyle=1" parent="1" source="FDoTcAjNK_FnxD9gBWbV-4" target="FDoTcAjNK_FnxD9gBWbV-41" edge="1">
          <mxGeometry relative="1" as="geometry">
            <mxPoint x="-500" y="-1067" as="sourcePoint" />
            <mxPoint x="-400" y="-1005" as="targetPoint" />
          </mxGeometry>
        </mxCell>
        <mxCell id="FDoTcAjNK_FnxD9gBWbV-81" style="rounded=0;orthogonalLoop=1;jettySize=auto;html=1;entryX=0.25;entryY=0;entryDx=0;entryDy=0;endArrow=none;endFill=0;exitX=1;exitY=1;exitDx=0;exitDy=0;fontStyle=1" parent="1" source="FDoTcAjNK_FnxD9gBWbV-4" target="FDoTcAjNK_FnxD9gBWbV-57" edge="1">
          <mxGeometry relative="1" as="geometry">
            <mxPoint x="-480" y="-1065" as="sourcePoint" />
            <mxPoint x="-290" y="-1005" as="targetPoint" />
          </mxGeometry>
        </mxCell>
        <mxCell id="FDoTcAjNK_FnxD9gBWbV-82" style="rounded=0;orthogonalLoop=1;jettySize=auto;html=1;exitX=0.75;exitY=0;exitDx=0;exitDy=0;entryX=0;entryY=1;entryDx=0;entryDy=0;endArrow=none;endFill=0;fontStyle=1" parent="1" source="FDoTcAjNK_FnxD9gBWbV-8" target="FDoTcAjNK_FnxD9gBWbV-5" edge="1">
          <mxGeometry relative="1" as="geometry">
            <mxPoint x="-750" y="-995" as="sourcePoint" />
            <mxPoint x="-640" y="-1077" as="targetPoint" />
          </mxGeometry>
        </mxCell>
        <mxCell id="FDoTcAjNK_FnxD9gBWbV-83" style="rounded=0;orthogonalLoop=1;jettySize=auto;html=1;exitX=0.75;exitY=0;exitDx=0;exitDy=0;entryX=0.25;entryY=1;entryDx=0;entryDy=0;endArrow=none;endFill=0;fontStyle=1" parent="1" source="FDoTcAjNK_FnxD9gBWbV-25" target="FDoTcAjNK_FnxD9gBWbV-5" edge="1">
          <mxGeometry relative="1" as="geometry">
            <mxPoint x="-740" y="-985" as="sourcePoint" />
            <mxPoint x="-630" y="-1067" as="targetPoint" />
          </mxGeometry>
        </mxCell>
        <mxCell id="FDoTcAjNK_FnxD9gBWbV-84" style="rounded=0;orthogonalLoop=1;jettySize=auto;html=1;exitX=0.75;exitY=0;exitDx=0;exitDy=0;entryX=0.75;entryY=1;entryDx=0;entryDy=0;endArrow=none;endFill=0;fontStyle=1" parent="1" source="FDoTcAjNK_FnxD9gBWbV-41" target="FDoTcAjNK_FnxD9gBWbV-5" edge="1">
          <mxGeometry relative="1" as="geometry">
            <mxPoint x="-730" y="-975" as="sourcePoint" />
            <mxPoint x="-620" y="-1057" as="targetPoint" />
          </mxGeometry>
        </mxCell>
        <mxCell id="FDoTcAjNK_FnxD9gBWbV-85" style="rounded=0;orthogonalLoop=1;jettySize=auto;html=1;exitX=0.75;exitY=0;exitDx=0;exitDy=0;entryX=1;entryY=1;entryDx=0;entryDy=0;endArrow=none;endFill=0;fontStyle=1" parent="1" source="FDoTcAjNK_FnxD9gBWbV-57" target="FDoTcAjNK_FnxD9gBWbV-5" edge="1">
          <mxGeometry relative="1" as="geometry">
            <mxPoint x="-720" y="-965" as="sourcePoint" />
            <mxPoint x="-610" y="-1047" as="targetPoint" />
          </mxGeometry>
        </mxCell>
        <mxCell id="FDoTcAjNK_FnxD9gBWbV-91" value="0" style="rounded=0;whiteSpace=wrap;html=1;fontStyle=1" parent="1" vertex="1">
          <mxGeometry x="-722.5" y="-700" width="49" height="18" as="geometry" />
        </mxCell>
        <mxCell id="FDoTcAjNK_FnxD9gBWbV-92" value="1" style="rounded=0;whiteSpace=wrap;html=1;fontStyle=1" parent="1" vertex="1">
          <mxGeometry x="-625.5" y="-700" width="49" height="18" as="geometry" />
        </mxCell>
        <mxCell id="FDoTcAjNK_FnxD9gBWbV-93" style="rounded=0;orthogonalLoop=1;jettySize=auto;html=1;exitX=0;exitY=1;exitDx=0;exitDy=0;entryX=0.25;entryY=0;entryDx=0;entryDy=0;endArrow=none;endFill=0;fontStyle=1" parent="1" source="FDoTcAjNK_FnxD9gBWbV-94" target="FDoTcAjNK_FnxD9gBWbV-98" edge="1">
          <mxGeometry relative="1" as="geometry" />
        </mxCell>
        <mxCell id="FDoTcAjNK_FnxD9gBWbV-94" value="2" style="rounded=0;whiteSpace=wrap;html=1;fontStyle=1" parent="1" vertex="1">
          <mxGeometry x="-528.5" y="-700" width="49" height="18" as="geometry" />
        </mxCell>
        <mxCell id="FDoTcAjNK_FnxD9gBWbV-95" value="3" style="rounded=0;whiteSpace=wrap;html=1;fontStyle=1" parent="1" vertex="1">
          <mxGeometry x="-431.5" y="-700" width="49" height="18" as="geometry" />
        </mxCell>
        <mxCell id="FDoTcAjNK_FnxD9gBWbV-96" style="rounded=0;orthogonalLoop=1;jettySize=auto;html=1;exitX=0.25;exitY=1;exitDx=0;exitDy=0;entryX=0.25;entryY=0;entryDx=0;entryDy=0;endArrow=none;endFill=0;fontStyle=1" parent="1" source="FDoTcAjNK_FnxD9gBWbV-97" target="FDoTcAjNK_FnxD9gBWbV-102" edge="1">
          <mxGeometry relative="1" as="geometry" />
        </mxCell>
        <mxCell id="FDoTcAjNK_FnxD9gBWbV-97" value="0" style="rounded=0;whiteSpace=wrap;html=1;fontStyle=1" parent="1" vertex="1">
          <mxGeometry x="-782.5" y="-625" width="40" height="18" as="geometry" />
        </mxCell>
        <mxCell id="FDoTcAjNK_FnxD9gBWbV-98" value="1" style="rounded=0;whiteSpace=wrap;html=1;fontStyle=1" parent="1" vertex="1">
          <mxGeometry x="-722.5" y="-625" width="40" height="18" as="geometry" />
        </mxCell>
        <mxCell id="FDoTcAjNK_FnxD9gBWbV-99" style="rounded=0;orthogonalLoop=1;jettySize=auto;html=1;exitX=0.25;exitY=1;exitDx=0;exitDy=0;entryX=0.5;entryY=0;entryDx=0;entryDy=0;endArrow=none;endFill=0;fontStyle=1" parent="1" source="FDoTcAjNK_FnxD9gBWbV-102" target="FDoTcAjNK_FnxD9gBWbV-103" edge="1">
          <mxGeometry relative="1" as="geometry" />
        </mxCell>
        <mxCell id="FDoTcAjNK_FnxD9gBWbV-100" style="rounded=0;orthogonalLoop=1;jettySize=auto;html=1;exitX=0.75;exitY=1;exitDx=0;exitDy=0;entryX=0.5;entryY=0;entryDx=0;entryDy=0;endArrow=none;endFill=0;fontStyle=1" parent="1" source="FDoTcAjNK_FnxD9gBWbV-102" target="FDoTcAjNK_FnxD9gBWbV-104" edge="1">
          <mxGeometry relative="1" as="geometry" />
        </mxCell>
        <mxCell id="FDoTcAjNK_FnxD9gBWbV-101" style="rounded=0;orthogonalLoop=1;jettySize=auto;html=1;exitX=0.75;exitY=0;exitDx=0;exitDy=0;entryX=0.25;entryY=1;entryDx=0;entryDy=0;endArrow=none;endFill=0;fontStyle=1" parent="1" source="FDoTcAjNK_FnxD9gBWbV-102" target="FDoTcAjNK_FnxD9gBWbV-98" edge="1">
          <mxGeometry relative="1" as="geometry" />
        </mxCell>
        <mxCell id="FDoTcAjNK_FnxD9gBWbV-102" value="0" style="rounded=0;whiteSpace=wrap;html=1;fontStyle=1" parent="1" vertex="1">
          <mxGeometry x="-782.5" y="-575" width="40" height="18" as="geometry" />
        </mxCell>
        <mxCell id="FDoTcAjNK_FnxD9gBWbV-103" value="0" style="ellipse;whiteSpace=wrap;html=1;aspect=fixed;fillColor=#000000;verticalAlign=top;fontStyle=1" parent="1" vertex="1">
          <mxGeometry x="-782.5" y="-518" width="5" height="5" as="geometry" />
        </mxCell>
        <mxCell id="FDoTcAjNK_FnxD9gBWbV-104" value="1" style="ellipse;whiteSpace=wrap;html=1;aspect=fixed;fillColor=#000000;verticalAlign=top;fontStyle=1" parent="1" vertex="1">
          <mxGeometry x="-747.5" y="-518" width="5" height="5" as="geometry" />
        </mxCell>
        <mxCell id="FDoTcAjNK_FnxD9gBWbV-105" style="rounded=0;orthogonalLoop=1;jettySize=auto;html=1;exitX=0.25;exitY=1;exitDx=0;exitDy=0;entryX=0.5;entryY=0;entryDx=0;entryDy=0;endArrow=none;endFill=0;fontStyle=1" parent="1" source="FDoTcAjNK_FnxD9gBWbV-107" target="FDoTcAjNK_FnxD9gBWbV-108" edge="1">
          <mxGeometry relative="1" as="geometry" />
        </mxCell>
        <mxCell id="FDoTcAjNK_FnxD9gBWbV-106" style="rounded=0;orthogonalLoop=1;jettySize=auto;html=1;exitX=0.75;exitY=1;exitDx=0;exitDy=0;entryX=0.5;entryY=0;entryDx=0;entryDy=0;endArrow=none;endFill=0;fontStyle=1" parent="1" source="FDoTcAjNK_FnxD9gBWbV-107" target="FDoTcAjNK_FnxD9gBWbV-109" edge="1">
          <mxGeometry relative="1" as="geometry" />
        </mxCell>
        <mxCell id="FDoTcAjNK_FnxD9gBWbV-107" value="1" style="rounded=0;whiteSpace=wrap;html=1;fontStyle=1" parent="1" vertex="1">
          <mxGeometry x="-722.5" y="-575" width="40" height="18" as="geometry" />
        </mxCell>
        <mxCell id="FDoTcAjNK_FnxD9gBWbV-108" value="2" style="ellipse;whiteSpace=wrap;html=1;aspect=fixed;fillColor=#000000;verticalAlign=top;fontStyle=1" parent="1" vertex="1">
          <mxGeometry x="-722.5" y="-518" width="5" height="5" as="geometry" />
        </mxCell>
        <mxCell id="FDoTcAjNK_FnxD9gBWbV-109" value="3" style="ellipse;whiteSpace=wrap;html=1;aspect=fixed;fillColor=#000000;verticalAlign=top;fontStyle=1" parent="1" vertex="1">
          <mxGeometry x="-687.5" y="-518" width="5" height="5" as="geometry" />
        </mxCell>
        <mxCell id="FDoTcAjNK_FnxD9gBWbV-110" style="rounded=0;orthogonalLoop=1;jettySize=auto;html=1;exitX=0.25;exitY=0;exitDx=0;exitDy=0;entryX=0.75;entryY=1;entryDx=0;entryDy=0;endArrow=none;endFill=0;fontStyle=1" parent="1" source="FDoTcAjNK_FnxD9gBWbV-107" target="FDoTcAjNK_FnxD9gBWbV-97" edge="1">
          <mxGeometry relative="1" as="geometry">
            <mxPoint x="-742.5" y="-565" as="sourcePoint" />
            <mxPoint x="-702.5" y="-597" as="targetPoint" />
          </mxGeometry>
        </mxCell>
        <mxCell id="FDoTcAjNK_FnxD9gBWbV-111" style="rounded=0;orthogonalLoop=1;jettySize=auto;html=1;exitX=0.75;exitY=1;exitDx=0;exitDy=0;entryX=0.75;entryY=0;entryDx=0;entryDy=0;endArrow=none;endFill=0;fontStyle=1" parent="1" source="FDoTcAjNK_FnxD9gBWbV-98" target="FDoTcAjNK_FnxD9gBWbV-107" edge="1">
          <mxGeometry relative="1" as="geometry">
            <mxPoint x="-762.5" y="-597" as="sourcePoint" />
            <mxPoint x="-762.5" y="-565" as="targetPoint" />
          </mxGeometry>
        </mxCell>
        <mxCell id="FDoTcAjNK_FnxD9gBWbV-112" style="rounded=0;orthogonalLoop=1;jettySize=auto;html=1;exitX=0.25;exitY=1;exitDx=0;exitDy=0;entryX=0.25;entryY=0;entryDx=0;entryDy=0;endArrow=none;endFill=0;fontStyle=1" parent="1" source="FDoTcAjNK_FnxD9gBWbV-113" target="FDoTcAjNK_FnxD9gBWbV-118" edge="1">
          <mxGeometry relative="1" as="geometry" />
        </mxCell>
        <mxCell id="FDoTcAjNK_FnxD9gBWbV-113" value="2" style="rounded=0;whiteSpace=wrap;html=1;fontStyle=1" parent="1" vertex="1">
          <mxGeometry x="-662.5" y="-625" width="40" height="18" as="geometry" />
        </mxCell>
        <mxCell id="FDoTcAjNK_FnxD9gBWbV-114" value="3" style="rounded=0;whiteSpace=wrap;html=1;fontStyle=1" parent="1" vertex="1">
          <mxGeometry x="-602.5" y="-625" width="40" height="18" as="geometry" />
        </mxCell>
        <mxCell id="FDoTcAjNK_FnxD9gBWbV-115" style="rounded=0;orthogonalLoop=1;jettySize=auto;html=1;exitX=0.25;exitY=1;exitDx=0;exitDy=0;entryX=0.5;entryY=0;entryDx=0;entryDy=0;endArrow=none;endFill=0;fontStyle=1" parent="1" source="FDoTcAjNK_FnxD9gBWbV-118" target="FDoTcAjNK_FnxD9gBWbV-119" edge="1">
          <mxGeometry relative="1" as="geometry" />
        </mxCell>
        <mxCell id="FDoTcAjNK_FnxD9gBWbV-116" style="rounded=0;orthogonalLoop=1;jettySize=auto;html=1;exitX=0.75;exitY=1;exitDx=0;exitDy=0;entryX=0.5;entryY=0;entryDx=0;entryDy=0;endArrow=none;endFill=0;fontStyle=1" parent="1" source="FDoTcAjNK_FnxD9gBWbV-118" target="FDoTcAjNK_FnxD9gBWbV-120" edge="1">
          <mxGeometry relative="1" as="geometry" />
        </mxCell>
        <mxCell id="FDoTcAjNK_FnxD9gBWbV-117" style="rounded=0;orthogonalLoop=1;jettySize=auto;html=1;exitX=0.75;exitY=0;exitDx=0;exitDy=0;entryX=0.25;entryY=1;entryDx=0;entryDy=0;endArrow=none;endFill=0;fontStyle=1" parent="1" source="FDoTcAjNK_FnxD9gBWbV-118" target="FDoTcAjNK_FnxD9gBWbV-114" edge="1">
          <mxGeometry relative="1" as="geometry" />
        </mxCell>
        <mxCell id="FDoTcAjNK_FnxD9gBWbV-118" value="2" style="rounded=0;whiteSpace=wrap;html=1;fontStyle=1" parent="1" vertex="1">
          <mxGeometry x="-662.5" y="-575" width="40" height="18" as="geometry" />
        </mxCell>
        <mxCell id="FDoTcAjNK_FnxD9gBWbV-119" value="4" style="ellipse;whiteSpace=wrap;html=1;aspect=fixed;fillColor=#000000;verticalAlign=top;fontStyle=1" parent="1" vertex="1">
          <mxGeometry x="-662.5" y="-518" width="5" height="5" as="geometry" />
        </mxCell>
        <mxCell id="FDoTcAjNK_FnxD9gBWbV-120" value="5" style="ellipse;whiteSpace=wrap;html=1;aspect=fixed;fillColor=#000000;verticalAlign=top;fontStyle=1" parent="1" vertex="1">
          <mxGeometry x="-627.5" y="-518" width="5" height="5" as="geometry" />
        </mxCell>
        <mxCell id="FDoTcAjNK_FnxD9gBWbV-121" style="rounded=0;orthogonalLoop=1;jettySize=auto;html=1;exitX=0.25;exitY=1;exitDx=0;exitDy=0;entryX=0.5;entryY=0;entryDx=0;entryDy=0;endArrow=none;endFill=0;fontStyle=1" parent="1" source="FDoTcAjNK_FnxD9gBWbV-123" target="FDoTcAjNK_FnxD9gBWbV-124" edge="1">
          <mxGeometry relative="1" as="geometry" />
        </mxCell>
        <mxCell id="FDoTcAjNK_FnxD9gBWbV-122" style="rounded=0;orthogonalLoop=1;jettySize=auto;html=1;exitX=0.75;exitY=1;exitDx=0;exitDy=0;entryX=0.5;entryY=0;entryDx=0;entryDy=0;endArrow=none;endFill=0;fontStyle=1" parent="1" source="FDoTcAjNK_FnxD9gBWbV-123" target="FDoTcAjNK_FnxD9gBWbV-125" edge="1">
          <mxGeometry relative="1" as="geometry" />
        </mxCell>
        <mxCell id="FDoTcAjNK_FnxD9gBWbV-123" value="3" style="rounded=0;whiteSpace=wrap;html=1;fontStyle=1" parent="1" vertex="1">
          <mxGeometry x="-602.5" y="-575" width="40" height="18" as="geometry" />
        </mxCell>
        <mxCell id="FDoTcAjNK_FnxD9gBWbV-124" value="6" style="ellipse;whiteSpace=wrap;html=1;aspect=fixed;fillColor=#000000;verticalAlign=top;fontStyle=1" parent="1" vertex="1">
          <mxGeometry x="-602.5" y="-518" width="5" height="5" as="geometry" />
        </mxCell>
        <mxCell id="FDoTcAjNK_FnxD9gBWbV-125" value="7" style="ellipse;whiteSpace=wrap;html=1;aspect=fixed;fillColor=#000000;verticalAlign=top;fontStyle=1" parent="1" vertex="1">
          <mxGeometry x="-567.5" y="-518" width="5" height="5" as="geometry" />
        </mxCell>
        <mxCell id="FDoTcAjNK_FnxD9gBWbV-126" style="rounded=0;orthogonalLoop=1;jettySize=auto;html=1;exitX=0.25;exitY=0;exitDx=0;exitDy=0;entryX=0.75;entryY=1;entryDx=0;entryDy=0;endArrow=none;endFill=0;fontStyle=1" parent="1" source="FDoTcAjNK_FnxD9gBWbV-123" target="FDoTcAjNK_FnxD9gBWbV-113" edge="1">
          <mxGeometry relative="1" as="geometry">
            <mxPoint x="-622.5" y="-565" as="sourcePoint" />
            <mxPoint x="-582.5" y="-597" as="targetPoint" />
          </mxGeometry>
        </mxCell>
        <mxCell id="FDoTcAjNK_FnxD9gBWbV-127" style="rounded=0;orthogonalLoop=1;jettySize=auto;html=1;exitX=0.75;exitY=1;exitDx=0;exitDy=0;entryX=0.75;entryY=0;entryDx=0;entryDy=0;endArrow=none;endFill=0;fontStyle=1" parent="1" source="FDoTcAjNK_FnxD9gBWbV-114" target="FDoTcAjNK_FnxD9gBWbV-123" edge="1">
          <mxGeometry relative="1" as="geometry">
            <mxPoint x="-642.5" y="-597" as="sourcePoint" />
            <mxPoint x="-642.5" y="-565" as="targetPoint" />
          </mxGeometry>
        </mxCell>
        <mxCell id="FDoTcAjNK_FnxD9gBWbV-128" style="rounded=0;orthogonalLoop=1;jettySize=auto;html=1;exitX=0.25;exitY=1;exitDx=0;exitDy=0;entryX=0.25;entryY=0;entryDx=0;entryDy=0;endArrow=none;endFill=0;fontStyle=1" parent="1" source="FDoTcAjNK_FnxD9gBWbV-129" target="FDoTcAjNK_FnxD9gBWbV-134" edge="1">
          <mxGeometry relative="1" as="geometry" />
        </mxCell>
        <mxCell id="FDoTcAjNK_FnxD9gBWbV-129" value="4" style="rounded=0;whiteSpace=wrap;html=1;fontStyle=1" parent="1" vertex="1">
          <mxGeometry x="-542.5" y="-625" width="40" height="18" as="geometry" />
        </mxCell>
        <mxCell id="FDoTcAjNK_FnxD9gBWbV-130" value="5" style="rounded=0;whiteSpace=wrap;html=1;fontStyle=1" parent="1" vertex="1">
          <mxGeometry x="-482.5" y="-625" width="40" height="18" as="geometry" />
        </mxCell>
        <mxCell id="FDoTcAjNK_FnxD9gBWbV-131" style="rounded=0;orthogonalLoop=1;jettySize=auto;html=1;exitX=0.25;exitY=1;exitDx=0;exitDy=0;entryX=0.5;entryY=0;entryDx=0;entryDy=0;endArrow=none;endFill=0;fontStyle=1" parent="1" source="FDoTcAjNK_FnxD9gBWbV-134" target="FDoTcAjNK_FnxD9gBWbV-135" edge="1">
          <mxGeometry relative="1" as="geometry" />
        </mxCell>
        <mxCell id="FDoTcAjNK_FnxD9gBWbV-132" style="rounded=0;orthogonalLoop=1;jettySize=auto;html=1;exitX=0.75;exitY=1;exitDx=0;exitDy=0;entryX=0.5;entryY=0;entryDx=0;entryDy=0;endArrow=none;endFill=0;fontStyle=1" parent="1" source="FDoTcAjNK_FnxD9gBWbV-134" target="FDoTcAjNK_FnxD9gBWbV-136" edge="1">
          <mxGeometry relative="1" as="geometry" />
        </mxCell>
        <mxCell id="FDoTcAjNK_FnxD9gBWbV-133" style="rounded=0;orthogonalLoop=1;jettySize=auto;html=1;exitX=0.75;exitY=0;exitDx=0;exitDy=0;entryX=0.25;entryY=1;entryDx=0;entryDy=0;endArrow=none;endFill=0;fontStyle=1" parent="1" source="FDoTcAjNK_FnxD9gBWbV-134" target="FDoTcAjNK_FnxD9gBWbV-130" edge="1">
          <mxGeometry relative="1" as="geometry" />
        </mxCell>
        <mxCell id="FDoTcAjNK_FnxD9gBWbV-134" value="4" style="rounded=0;whiteSpace=wrap;html=1;fontStyle=1" parent="1" vertex="1">
          <mxGeometry x="-542.5" y="-575" width="40" height="18" as="geometry" />
        </mxCell>
        <mxCell id="FDoTcAjNK_FnxD9gBWbV-135" value="8" style="ellipse;whiteSpace=wrap;html=1;aspect=fixed;fillColor=#000000;verticalAlign=top;fontStyle=1" parent="1" vertex="1">
          <mxGeometry x="-542.5" y="-518" width="5" height="5" as="geometry" />
        </mxCell>
        <mxCell id="FDoTcAjNK_FnxD9gBWbV-136" value="9" style="ellipse;whiteSpace=wrap;html=1;aspect=fixed;fillColor=#000000;verticalAlign=top;fontStyle=1" parent="1" vertex="1">
          <mxGeometry x="-507.5" y="-518" width="5" height="5" as="geometry" />
        </mxCell>
        <mxCell id="FDoTcAjNK_FnxD9gBWbV-137" style="rounded=0;orthogonalLoop=1;jettySize=auto;html=1;exitX=0.25;exitY=1;exitDx=0;exitDy=0;entryX=0.5;entryY=0;entryDx=0;entryDy=0;endArrow=none;endFill=0;fontStyle=1" parent="1" source="FDoTcAjNK_FnxD9gBWbV-139" target="FDoTcAjNK_FnxD9gBWbV-140" edge="1">
          <mxGeometry relative="1" as="geometry" />
        </mxCell>
        <mxCell id="FDoTcAjNK_FnxD9gBWbV-138" style="rounded=0;orthogonalLoop=1;jettySize=auto;html=1;exitX=0.75;exitY=1;exitDx=0;exitDy=0;entryX=0.5;entryY=0;entryDx=0;entryDy=0;endArrow=none;endFill=0;fontStyle=1" parent="1" source="FDoTcAjNK_FnxD9gBWbV-139" target="FDoTcAjNK_FnxD9gBWbV-141" edge="1">
          <mxGeometry relative="1" as="geometry" />
        </mxCell>
        <mxCell id="FDoTcAjNK_FnxD9gBWbV-139" value="5" style="rounded=0;whiteSpace=wrap;html=1;fontStyle=1" parent="1" vertex="1">
          <mxGeometry x="-482.5" y="-575" width="40" height="18" as="geometry" />
        </mxCell>
        <mxCell id="FDoTcAjNK_FnxD9gBWbV-140" value="10" style="ellipse;whiteSpace=wrap;html=1;aspect=fixed;fillColor=#000000;verticalAlign=top;fontStyle=1" parent="1" vertex="1">
          <mxGeometry x="-482.5" y="-518" width="5" height="5" as="geometry" />
        </mxCell>
        <mxCell id="FDoTcAjNK_FnxD9gBWbV-141" value="11" style="ellipse;whiteSpace=wrap;html=1;aspect=fixed;fillColor=#000000;verticalAlign=top;fontStyle=1" parent="1" vertex="1">
          <mxGeometry x="-447.5" y="-518" width="5" height="5" as="geometry" />
        </mxCell>
        <mxCell id="FDoTcAjNK_FnxD9gBWbV-142" style="rounded=0;orthogonalLoop=1;jettySize=auto;html=1;exitX=0.25;exitY=0;exitDx=0;exitDy=0;entryX=0.75;entryY=1;entryDx=0;entryDy=0;endArrow=none;endFill=0;fontStyle=1" parent="1" source="FDoTcAjNK_FnxD9gBWbV-139" target="FDoTcAjNK_FnxD9gBWbV-129" edge="1">
          <mxGeometry relative="1" as="geometry">
            <mxPoint x="-502.5" y="-565" as="sourcePoint" />
            <mxPoint x="-462.5" y="-597" as="targetPoint" />
          </mxGeometry>
        </mxCell>
        <mxCell id="FDoTcAjNK_FnxD9gBWbV-143" style="rounded=0;orthogonalLoop=1;jettySize=auto;html=1;exitX=0.75;exitY=1;exitDx=0;exitDy=0;entryX=0.75;entryY=0;entryDx=0;entryDy=0;endArrow=none;endFill=0;fontStyle=1" parent="1" source="FDoTcAjNK_FnxD9gBWbV-130" target="FDoTcAjNK_FnxD9gBWbV-139" edge="1">
          <mxGeometry relative="1" as="geometry">
            <mxPoint x="-522.5" y="-597" as="sourcePoint" />
            <mxPoint x="-522.5" y="-565" as="targetPoint" />
          </mxGeometry>
        </mxCell>
        <mxCell id="FDoTcAjNK_FnxD9gBWbV-144" style="rounded=0;orthogonalLoop=1;jettySize=auto;html=1;exitX=0.25;exitY=1;exitDx=0;exitDy=0;entryX=0.25;entryY=0;entryDx=0;entryDy=0;endArrow=none;endFill=0;fontStyle=1" parent="1" source="FDoTcAjNK_FnxD9gBWbV-145" target="FDoTcAjNK_FnxD9gBWbV-150" edge="1">
          <mxGeometry relative="1" as="geometry" />
        </mxCell>
        <mxCell id="FDoTcAjNK_FnxD9gBWbV-145" value="6" style="rounded=0;whiteSpace=wrap;html=1;fontStyle=1" parent="1" vertex="1">
          <mxGeometry x="-422.5" y="-625" width="40" height="18" as="geometry" />
        </mxCell>
        <mxCell id="FDoTcAjNK_FnxD9gBWbV-146" value="7" style="rounded=0;whiteSpace=wrap;html=1;fontStyle=1" parent="1" vertex="1">
          <mxGeometry x="-362.5" y="-625" width="40" height="18" as="geometry" />
        </mxCell>
        <mxCell id="FDoTcAjNK_FnxD9gBWbV-147" style="rounded=0;orthogonalLoop=1;jettySize=auto;html=1;exitX=0.25;exitY=1;exitDx=0;exitDy=0;entryX=0.5;entryY=0;entryDx=0;entryDy=0;endArrow=none;endFill=0;fontStyle=1" parent="1" source="FDoTcAjNK_FnxD9gBWbV-150" target="FDoTcAjNK_FnxD9gBWbV-151" edge="1">
          <mxGeometry relative="1" as="geometry" />
        </mxCell>
        <mxCell id="FDoTcAjNK_FnxD9gBWbV-148" style="rounded=0;orthogonalLoop=1;jettySize=auto;html=1;exitX=0.75;exitY=1;exitDx=0;exitDy=0;entryX=0.5;entryY=0;entryDx=0;entryDy=0;endArrow=none;endFill=0;fontStyle=1" parent="1" source="FDoTcAjNK_FnxD9gBWbV-150" target="FDoTcAjNK_FnxD9gBWbV-152" edge="1">
          <mxGeometry relative="1" as="geometry" />
        </mxCell>
        <mxCell id="FDoTcAjNK_FnxD9gBWbV-149" style="rounded=0;orthogonalLoop=1;jettySize=auto;html=1;exitX=0.75;exitY=0;exitDx=0;exitDy=0;entryX=0.25;entryY=1;entryDx=0;entryDy=0;endArrow=none;endFill=0;fontStyle=1" parent="1" source="FDoTcAjNK_FnxD9gBWbV-150" target="FDoTcAjNK_FnxD9gBWbV-146" edge="1">
          <mxGeometry relative="1" as="geometry" />
        </mxCell>
        <mxCell id="FDoTcAjNK_FnxD9gBWbV-150" value="6" style="rounded=0;whiteSpace=wrap;html=1;fontStyle=1" parent="1" vertex="1">
          <mxGeometry x="-422.5" y="-575" width="40" height="18" as="geometry" />
        </mxCell>
        <mxCell id="FDoTcAjNK_FnxD9gBWbV-151" value="12" style="ellipse;whiteSpace=wrap;html=1;aspect=fixed;fillColor=#000000;verticalAlign=top;fontStyle=1" parent="1" vertex="1">
          <mxGeometry x="-422.5" y="-518" width="5" height="5" as="geometry" />
        </mxCell>
        <mxCell id="FDoTcAjNK_FnxD9gBWbV-152" value="13" style="ellipse;whiteSpace=wrap;html=1;aspect=fixed;fillColor=#000000;verticalAlign=top;fontStyle=1" parent="1" vertex="1">
          <mxGeometry x="-387.5" y="-518" width="5" height="5" as="geometry" />
        </mxCell>
        <mxCell id="FDoTcAjNK_FnxD9gBWbV-153" style="rounded=0;orthogonalLoop=1;jettySize=auto;html=1;exitX=0.25;exitY=1;exitDx=0;exitDy=0;entryX=0.5;entryY=0;entryDx=0;entryDy=0;endArrow=none;endFill=0;fontStyle=1" parent="1" source="FDoTcAjNK_FnxD9gBWbV-155" target="FDoTcAjNK_FnxD9gBWbV-156" edge="1">
          <mxGeometry relative="1" as="geometry" />
        </mxCell>
        <mxCell id="FDoTcAjNK_FnxD9gBWbV-154" style="rounded=0;orthogonalLoop=1;jettySize=auto;html=1;exitX=0.75;exitY=1;exitDx=0;exitDy=0;entryX=0.5;entryY=0;entryDx=0;entryDy=0;endArrow=none;endFill=0;fontStyle=1" parent="1" source="FDoTcAjNK_FnxD9gBWbV-155" target="FDoTcAjNK_FnxD9gBWbV-157" edge="1">
          <mxGeometry relative="1" as="geometry" />
        </mxCell>
        <mxCell id="FDoTcAjNK_FnxD9gBWbV-155" value="7" style="rounded=0;whiteSpace=wrap;html=1;fontStyle=1" parent="1" vertex="1">
          <mxGeometry x="-362.5" y="-575" width="40" height="18" as="geometry" />
        </mxCell>
        <mxCell id="FDoTcAjNK_FnxD9gBWbV-156" value="14" style="ellipse;whiteSpace=wrap;html=1;aspect=fixed;fillColor=#000000;verticalAlign=top;fontStyle=1" parent="1" vertex="1">
          <mxGeometry x="-362.5" y="-518" width="5" height="5" as="geometry" />
        </mxCell>
        <mxCell id="FDoTcAjNK_FnxD9gBWbV-157" value="15" style="ellipse;whiteSpace=wrap;html=1;aspect=fixed;fillColor=#000000;verticalAlign=top;fontStyle=1" parent="1" vertex="1">
          <mxGeometry x="-327.5" y="-518" width="5" height="5" as="geometry" />
        </mxCell>
        <mxCell id="FDoTcAjNK_FnxD9gBWbV-158" style="rounded=0;orthogonalLoop=1;jettySize=auto;html=1;exitX=0.25;exitY=0;exitDx=0;exitDy=0;entryX=0.75;entryY=1;entryDx=0;entryDy=0;endArrow=none;endFill=0;fontStyle=1" parent="1" source="FDoTcAjNK_FnxD9gBWbV-155" target="FDoTcAjNK_FnxD9gBWbV-145" edge="1">
          <mxGeometry relative="1" as="geometry">
            <mxPoint x="-382.5" y="-565" as="sourcePoint" />
            <mxPoint x="-342.5" y="-597" as="targetPoint" />
          </mxGeometry>
        </mxCell>
        <mxCell id="FDoTcAjNK_FnxD9gBWbV-159" style="rounded=0;orthogonalLoop=1;jettySize=auto;html=1;exitX=0.75;exitY=1;exitDx=0;exitDy=0;entryX=0.75;entryY=0;entryDx=0;entryDy=0;endArrow=none;endFill=0;fontStyle=1" parent="1" source="FDoTcAjNK_FnxD9gBWbV-146" target="FDoTcAjNK_FnxD9gBWbV-155" edge="1">
          <mxGeometry relative="1" as="geometry">
            <mxPoint x="-402.5" y="-597" as="sourcePoint" />
            <mxPoint x="-402.5" y="-565" as="targetPoint" />
          </mxGeometry>
        </mxCell>
        <mxCell id="FDoTcAjNK_FnxD9gBWbV-160" style="rounded=0;orthogonalLoop=1;jettySize=auto;html=1;exitX=0.25;exitY=0;exitDx=0;exitDy=0;entryX=0;entryY=1;entryDx=0;entryDy=0;endArrow=none;endFill=0;fontStyle=1" parent="1" source="FDoTcAjNK_FnxD9gBWbV-97" target="FDoTcAjNK_FnxD9gBWbV-91" edge="1">
          <mxGeometry relative="1" as="geometry">
            <mxPoint x="-702.5" y="-565" as="sourcePoint" />
            <mxPoint x="-742.5" y="-597" as="targetPoint" />
          </mxGeometry>
        </mxCell>
        <mxCell id="FDoTcAjNK_FnxD9gBWbV-161" style="rounded=0;orthogonalLoop=1;jettySize=auto;html=1;exitX=0.25;exitY=0;exitDx=0;exitDy=0;entryX=0.25;entryY=1;entryDx=0;entryDy=0;endArrow=none;endFill=0;fontStyle=1" parent="1" source="FDoTcAjNK_FnxD9gBWbV-113" target="FDoTcAjNK_FnxD9gBWbV-91" edge="1">
          <mxGeometry relative="1" as="geometry">
            <mxPoint x="-692.5" y="-555" as="sourcePoint" />
            <mxPoint x="-732.5" y="-587" as="targetPoint" />
          </mxGeometry>
        </mxCell>
        <mxCell id="FDoTcAjNK_FnxD9gBWbV-162" style="rounded=0;orthogonalLoop=1;jettySize=auto;html=1;exitX=0.75;exitY=1;exitDx=0;exitDy=0;entryX=0.25;entryY=0;entryDx=0;entryDy=0;endArrow=none;endFill=0;fontStyle=1" parent="1" source="FDoTcAjNK_FnxD9gBWbV-91" target="FDoTcAjNK_FnxD9gBWbV-129" edge="1">
          <mxGeometry relative="1" as="geometry">
            <mxPoint x="-682.5" y="-545" as="sourcePoint" />
            <mxPoint x="-722.5" y="-577" as="targetPoint" />
          </mxGeometry>
        </mxCell>
        <mxCell id="FDoTcAjNK_FnxD9gBWbV-163" style="rounded=0;orthogonalLoop=1;jettySize=auto;html=1;exitX=1;exitY=1;exitDx=0;exitDy=0;entryX=0.25;entryY=0;entryDx=0;entryDy=0;endArrow=none;endFill=0;fontStyle=1" parent="1" source="FDoTcAjNK_FnxD9gBWbV-91" target="FDoTcAjNK_FnxD9gBWbV-145" edge="1">
          <mxGeometry relative="1" as="geometry">
            <mxPoint x="-622.5" y="-647" as="sourcePoint" />
            <mxPoint x="-522.5" y="-615" as="targetPoint" />
          </mxGeometry>
        </mxCell>
        <mxCell id="FDoTcAjNK_FnxD9gBWbV-164" style="rounded=0;orthogonalLoop=1;jettySize=auto;html=1;exitX=0.75;exitY=0;exitDx=0;exitDy=0;entryX=0.25;entryY=1;entryDx=0;entryDy=0;endArrow=none;endFill=0;fontStyle=1" parent="1" source="FDoTcAjNK_FnxD9gBWbV-113" target="FDoTcAjNK_FnxD9gBWbV-92" edge="1">
          <mxGeometry relative="1" as="geometry">
            <mxPoint x="-587.5" y="-625" as="sourcePoint" />
            <mxPoint x="-587.5" y="-657" as="targetPoint" />
          </mxGeometry>
        </mxCell>
        <mxCell id="FDoTcAjNK_FnxD9gBWbV-165" style="rounded=0;orthogonalLoop=1;jettySize=auto;html=1;exitX=0.75;exitY=1;exitDx=0;exitDy=0;entryX=0.75;entryY=0;entryDx=0;entryDy=0;endArrow=none;endFill=0;fontStyle=1" parent="1" source="FDoTcAjNK_FnxD9gBWbV-92" target="FDoTcAjNK_FnxD9gBWbV-129" edge="1">
          <mxGeometry relative="1" as="geometry">
            <mxPoint x="-567.5" y="-657" as="sourcePoint" />
            <mxPoint x="-467.5" y="-625" as="targetPoint" />
          </mxGeometry>
        </mxCell>
        <mxCell id="FDoTcAjNK_FnxD9gBWbV-166" style="rounded=0;orthogonalLoop=1;jettySize=auto;html=1;exitX=1;exitY=1;exitDx=0;exitDy=0;entryX=0.75;entryY=0;entryDx=0;entryDy=0;endArrow=none;endFill=0;fontStyle=1" parent="1" source="FDoTcAjNK_FnxD9gBWbV-92" target="FDoTcAjNK_FnxD9gBWbV-145" edge="1">
          <mxGeometry relative="1" as="geometry">
            <mxPoint x="-557.5" y="-657" as="sourcePoint" />
            <mxPoint x="-347.5" y="-625" as="targetPoint" />
          </mxGeometry>
        </mxCell>
        <mxCell id="FDoTcAjNK_FnxD9gBWbV-167" style="rounded=0;orthogonalLoop=1;jettySize=auto;html=1;exitX=0.75;exitY=0;exitDx=0;exitDy=0;endArrow=none;endFill=0;entryX=0;entryY=1;entryDx=0;entryDy=0;fontStyle=1" parent="1" source="FDoTcAjNK_FnxD9gBWbV-97" target="FDoTcAjNK_FnxD9gBWbV-92" edge="1">
          <mxGeometry relative="1" as="geometry">
            <mxPoint x="-632.5" y="-625" as="sourcePoint" />
            <mxPoint x="-541.5" y="-687" as="targetPoint" />
          </mxGeometry>
        </mxCell>
        <mxCell id="FDoTcAjNK_FnxD9gBWbV-168" style="rounded=0;orthogonalLoop=1;jettySize=auto;html=1;exitX=0.25;exitY=0;exitDx=0;exitDy=0;entryX=0.25;entryY=1;entryDx=0;entryDy=0;endArrow=none;endFill=0;fontStyle=1" parent="1" source="FDoTcAjNK_FnxD9gBWbV-114" target="FDoTcAjNK_FnxD9gBWbV-94" edge="1">
          <mxGeometry relative="1" as="geometry">
            <mxPoint x="-532.5" y="-625" as="sourcePoint" />
            <mxPoint x="-532.5" y="-687" as="targetPoint" />
          </mxGeometry>
        </mxCell>
        <mxCell id="FDoTcAjNK_FnxD9gBWbV-169" style="rounded=0;orthogonalLoop=1;jettySize=auto;html=1;exitX=0.75;exitY=1;exitDx=0;exitDy=0;entryX=0.25;entryY=0;entryDx=0;entryDy=0;endArrow=none;endFill=0;fontStyle=1" parent="1" source="FDoTcAjNK_FnxD9gBWbV-94" target="FDoTcAjNK_FnxD9gBWbV-130" edge="1">
          <mxGeometry relative="1" as="geometry">
            <mxPoint x="-512.5" y="-687" as="sourcePoint" />
            <mxPoint x="-412.5" y="-625" as="targetPoint" />
          </mxGeometry>
        </mxCell>
        <mxCell id="FDoTcAjNK_FnxD9gBWbV-170" style="rounded=0;orthogonalLoop=1;jettySize=auto;html=1;entryX=0.25;entryY=0;entryDx=0;entryDy=0;endArrow=none;endFill=0;exitX=1;exitY=1;exitDx=0;exitDy=0;fontStyle=1" parent="1" source="FDoTcAjNK_FnxD9gBWbV-94" target="FDoTcAjNK_FnxD9gBWbV-146" edge="1">
          <mxGeometry relative="1" as="geometry">
            <mxPoint x="-492.5" y="-685" as="sourcePoint" />
            <mxPoint x="-302.5" y="-625" as="targetPoint" />
          </mxGeometry>
        </mxCell>
        <mxCell id="FDoTcAjNK_FnxD9gBWbV-171" style="rounded=0;orthogonalLoop=1;jettySize=auto;html=1;exitX=0.75;exitY=0;exitDx=0;exitDy=0;entryX=0;entryY=1;entryDx=0;entryDy=0;endArrow=none;endFill=0;fontStyle=1" parent="1" source="FDoTcAjNK_FnxD9gBWbV-98" target="FDoTcAjNK_FnxD9gBWbV-95" edge="1">
          <mxGeometry relative="1" as="geometry">
            <mxPoint x="-762.5" y="-615" as="sourcePoint" />
            <mxPoint x="-652.5" y="-697" as="targetPoint" />
          </mxGeometry>
        </mxCell>
        <mxCell id="FDoTcAjNK_FnxD9gBWbV-172" style="rounded=0;orthogonalLoop=1;jettySize=auto;html=1;exitX=0.75;exitY=0;exitDx=0;exitDy=0;entryX=0.25;entryY=1;entryDx=0;entryDy=0;endArrow=none;endFill=0;fontStyle=1" parent="1" source="FDoTcAjNK_FnxD9gBWbV-114" target="FDoTcAjNK_FnxD9gBWbV-95" edge="1">
          <mxGeometry relative="1" as="geometry">
            <mxPoint x="-752.5" y="-605" as="sourcePoint" />
            <mxPoint x="-642.5" y="-687" as="targetPoint" />
          </mxGeometry>
        </mxCell>
        <mxCell id="FDoTcAjNK_FnxD9gBWbV-173" style="rounded=0;orthogonalLoop=1;jettySize=auto;html=1;exitX=0.75;exitY=0;exitDx=0;exitDy=0;entryX=0.75;entryY=1;entryDx=0;entryDy=0;endArrow=none;endFill=0;fontStyle=1" parent="1" source="FDoTcAjNK_FnxD9gBWbV-130" target="FDoTcAjNK_FnxD9gBWbV-95" edge="1">
          <mxGeometry relative="1" as="geometry">
            <mxPoint x="-742.5" y="-595" as="sourcePoint" />
            <mxPoint x="-632.5" y="-677" as="targetPoint" />
          </mxGeometry>
        </mxCell>
        <mxCell id="FDoTcAjNK_FnxD9gBWbV-174" style="rounded=0;orthogonalLoop=1;jettySize=auto;html=1;exitX=0.75;exitY=0;exitDx=0;exitDy=0;entryX=1;entryY=1;entryDx=0;entryDy=0;endArrow=none;endFill=0;fontStyle=1" parent="1" source="FDoTcAjNK_FnxD9gBWbV-146" target="FDoTcAjNK_FnxD9gBWbV-95" edge="1">
          <mxGeometry relative="1" as="geometry">
            <mxPoint x="-732.5" y="-585" as="sourcePoint" />
            <mxPoint x="-622.5" y="-667" as="targetPoint" />
          </mxGeometry>
        </mxCell>
        <mxCell id="FDoTcAjNK_FnxD9gBWbV-193" value="" style="endArrow=classic;html=1;rounded=0;fontColor=#ff0000;edgeStyle=orthogonalEdgeStyle;curved=1;dashed=1;dashPattern=1 1;" parent="1" edge="1">
          <mxGeometry width="50" height="50" relative="1" as="geometry">
            <mxPoint x="-780" y="-490" as="sourcePoint" />
            <mxPoint x="-750" y="-490" as="targetPoint" />
            <Array as="points">
              <mxPoint x="-780" y="-470" />
              <mxPoint x="-750" y="-470" />
            </Array>
          </mxGeometry>
        </mxCell>
        <mxCell id="FDoTcAjNK_FnxD9gBWbV-194" value="1" style="edgeLabel;html=1;align=center;verticalAlign=middle;resizable=0;points=[];" parent="FDoTcAjNK_FnxD9gBWbV-193" vertex="1" connectable="0">
          <mxGeometry x="-0.0559" relative="1" as="geometry">
            <mxPoint as="offset" />
          </mxGeometry>
        </mxCell>
        <mxCell id="FDoTcAjNK_FnxD9gBWbV-195" value="" style="endArrow=classic;html=1;rounded=0;fontColor=#ff0000;edgeStyle=orthogonalEdgeStyle;curved=1;dashed=1;dashPattern=1 1;strokeColor=#FF0000;" parent="1" edge="1">
          <mxGeometry width="50" height="50" relative="1" as="geometry">
            <mxPoint x="-780" y="-490" as="sourcePoint" />
            <mxPoint x="-720" y="-490" as="targetPoint" />
            <Array as="points">
              <mxPoint x="-780" y="-450" />
              <mxPoint x="-720" y="-450" />
            </Array>
          </mxGeometry>
        </mxCell>
        <mxCell id="FDoTcAjNK_FnxD9gBWbV-196" value="&lt;font color=&quot;#ff0000&quot;&gt;2&lt;/font&gt;" style="edgeLabel;html=1;align=center;verticalAlign=middle;resizable=0;points=[];" parent="FDoTcAjNK_FnxD9gBWbV-195" vertex="1" connectable="0">
          <mxGeometry x="-0.0559" relative="1" as="geometry">
            <mxPoint as="offset" />
          </mxGeometry>
        </mxCell>
        <mxCell id="FDoTcAjNK_FnxD9gBWbV-198" value="" style="endArrow=classic;html=1;rounded=0;fontColor=#ff0000;edgeStyle=orthogonalEdgeStyle;curved=1;dashed=1;dashPattern=1 1;strokeColor=#FF0000;" parent="1" edge="1">
          <mxGeometry width="50" height="50" relative="1" as="geometry">
            <mxPoint x="-740" y="-490" as="sourcePoint" />
            <mxPoint x="-680" y="-490" as="targetPoint" />
            <Array as="points">
              <mxPoint x="-740" y="-450" />
              <mxPoint x="-680" y="-450" />
            </Array>
          </mxGeometry>
        </mxCell>
        <mxCell id="FDoTcAjNK_FnxD9gBWbV-199" value="&lt;font color=&quot;#ff0000&quot;&gt;2&lt;/font&gt;" style="edgeLabel;html=1;align=center;verticalAlign=middle;resizable=0;points=[];" parent="FDoTcAjNK_FnxD9gBWbV-198" vertex="1" connectable="0">
          <mxGeometry x="-0.0559" relative="1" as="geometry">
            <mxPoint x="24" y="-10" as="offset" />
          </mxGeometry>
        </mxCell>
        <mxCell id="FDoTcAjNK_FnxD9gBWbV-200" value="" style="endArrow=classic;html=1;rounded=0;fontColor=#ff0000;edgeStyle=orthogonalEdgeStyle;curved=1;dashed=1;dashPattern=1 1;strokeColor=#002aff;" parent="1" edge="1">
          <mxGeometry width="50" height="50" relative="1" as="geometry">
            <mxPoint x="-780" y="-490" as="sourcePoint" />
            <mxPoint x="-660" y="-490" as="targetPoint" />
            <Array as="points">
              <mxPoint x="-780" y="-420" />
              <mxPoint x="-660" y="-420" />
            </Array>
          </mxGeometry>
        </mxCell>
        <mxCell id="FDoTcAjNK_FnxD9gBWbV-201" value="&lt;font color=&quot;#002aff&quot;&gt;3&lt;/font&gt;" style="edgeLabel;html=1;align=center;verticalAlign=middle;resizable=0;points=[];" parent="FDoTcAjNK_FnxD9gBWbV-200" vertex="1" connectable="0">
          <mxGeometry x="-0.0559" relative="1" as="geometry">
            <mxPoint x="65" y="-40" as="offset" />
          </mxGeometry>
        </mxCell>
        <mxCell id="FDoTcAjNK_FnxD9gBWbV-203" value="" style="endArrow=classic;html=1;rounded=0;fontColor=#ff0000;edgeStyle=orthogonalEdgeStyle;curved=1;dashed=1;dashPattern=1 1;strokeColor=#002aff;" parent="1" edge="1">
          <mxGeometry width="50" height="50" relative="1" as="geometry">
            <mxPoint x="-742.5" y="-490" as="sourcePoint" />
            <mxPoint x="-622.5" y="-490" as="targetPoint" />
            <Array as="points">
              <mxPoint x="-743" y="-420" />
              <mxPoint x="-623" y="-420" />
            </Array>
          </mxGeometry>
        </mxCell>
        <mxCell id="FDoTcAjNK_FnxD9gBWbV-204" value="&lt;font color=&quot;#002aff&quot;&gt;3&lt;/font&gt;" style="edgeLabel;html=1;align=center;verticalAlign=middle;resizable=0;points=[];" parent="FDoTcAjNK_FnxD9gBWbV-203" vertex="1" connectable="0">
          <mxGeometry x="-0.0559" relative="1" as="geometry">
            <mxPoint x="60" y="-30" as="offset" />
          </mxGeometry>
        </mxCell>
        <mxCell id="FDoTcAjNK_FnxD9gBWbV-205" value="" style="endArrow=classic;html=1;rounded=0;fontColor=#ff0000;edgeStyle=orthogonalEdgeStyle;curved=1;dashed=1;dashPattern=1 1;strokeColor=#002aff;" parent="1" edge="1">
          <mxGeometry width="50" height="50" relative="1" as="geometry">
            <mxPoint x="-720" y="-490" as="sourcePoint" />
            <mxPoint x="-600" y="-490" as="targetPoint" />
            <Array as="points">
              <mxPoint x="-720" y="-420" />
              <mxPoint x="-600" y="-420" />
            </Array>
          </mxGeometry>
        </mxCell>
        <mxCell id="FDoTcAjNK_FnxD9gBWbV-206" value="&lt;font color=&quot;#002aff&quot;&gt;3&lt;/font&gt;" style="edgeLabel;html=1;align=center;verticalAlign=middle;resizable=0;points=[];" parent="FDoTcAjNK_FnxD9gBWbV-205" vertex="1" connectable="0">
          <mxGeometry x="-0.0559" relative="1" as="geometry">
            <mxPoint x="57" y="-20" as="offset" />
          </mxGeometry>
        </mxCell>
        <mxCell id="FDoTcAjNK_FnxD9gBWbV-207" value="" style="endArrow=classic;html=1;rounded=0;fontColor=#ff0000;edgeStyle=orthogonalEdgeStyle;curved=1;dashed=1;dashPattern=1 1;strokeColor=#002aff;" parent="1" edge="1">
          <mxGeometry width="50" height="50" relative="1" as="geometry">
            <mxPoint x="-682.5" y="-490" as="sourcePoint" />
            <mxPoint x="-562.5" y="-490" as="targetPoint" />
            <Array as="points">
              <mxPoint x="-683" y="-420" />
              <mxPoint x="-563" y="-420" />
            </Array>
          </mxGeometry>
        </mxCell>
        <mxCell id="FDoTcAjNK_FnxD9gBWbV-208" value="&lt;font color=&quot;#002aff&quot;&gt;3&lt;/font&gt;" style="edgeLabel;html=1;align=center;verticalAlign=middle;resizable=0;points=[];" parent="FDoTcAjNK_FnxD9gBWbV-207" vertex="1" connectable="0">
          <mxGeometry x="-0.0559" relative="1" as="geometry">
            <mxPoint x="45" y="-10" as="offset" />
          </mxGeometry>
        </mxCell>
        <mxCell id="vtVFkfu3P3o5CMaK1P3m-1" value="" style="endArrow=none;dashed=1;html=1;dashPattern=1 3;strokeWidth=2;rounded=0;" parent="1" edge="1">
          <mxGeometry width="50" height="50" relative="1" as="geometry">
            <mxPoint x="-511" y="-458" as="sourcePoint" />
            <mxPoint x="-379" y="-458" as="targetPoint" />
          </mxGeometry>
        </mxCell>
        <mxCell id="vtVFkfu3P3o5CMaK1P3m-2" value="0" style="rounded=0;whiteSpace=wrap;html=1;fontStyle=1" parent="1" vertex="1">
          <mxGeometry x="110" y="-1080" width="49" height="18" as="geometry" />
        </mxCell>
        <mxCell id="vtVFkfu3P3o5CMaK1P3m-3" value="1" style="rounded=0;whiteSpace=wrap;html=1;fontStyle=1" parent="1" vertex="1">
          <mxGeometry x="207" y="-1080" width="49" height="18" as="geometry" />
        </mxCell>
        <mxCell id="vtVFkfu3P3o5CMaK1P3m-4" style="rounded=0;orthogonalLoop=1;jettySize=auto;html=1;exitX=0;exitY=1;exitDx=0;exitDy=0;entryX=0.25;entryY=0;entryDx=0;entryDy=0;endArrow=none;endFill=0;fontStyle=1;strokeColor=#ff0000;startArrow=classicThin;startFill=1;dashed=1;dashPattern=1 2;" parent="1" source="vtVFkfu3P3o5CMaK1P3m-5" target="vtVFkfu3P3o5CMaK1P3m-9" edge="1">
          <mxGeometry relative="1" as="geometry" />
        </mxCell>
        <mxCell id="vtVFkfu3P3o5CMaK1P3m-5" value="2" style="rounded=0;whiteSpace=wrap;html=1;fontStyle=1" parent="1" vertex="1">
          <mxGeometry x="304" y="-1080" width="49" height="18" as="geometry" />
        </mxCell>
        <mxCell id="vtVFkfu3P3o5CMaK1P3m-6" value="3" style="rounded=0;whiteSpace=wrap;html=1;fontStyle=1" parent="1" vertex="1">
          <mxGeometry x="401" y="-1080" width="49" height="18" as="geometry" />
        </mxCell>
        <mxCell id="vtVFkfu3P3o5CMaK1P3m-7" style="rounded=0;orthogonalLoop=1;jettySize=auto;html=1;exitX=0.25;exitY=1;exitDx=0;exitDy=0;entryX=0.25;entryY=0;entryDx=0;entryDy=0;endArrow=none;endFill=0;fontStyle=1;strokeColor=#ff0000;startArrow=classicThin;startFill=1;dashed=1;dashPattern=1 2;" parent="1" source="vtVFkfu3P3o5CMaK1P3m-8" target="vtVFkfu3P3o5CMaK1P3m-13" edge="1">
          <mxGeometry relative="1" as="geometry" />
        </mxCell>
        <mxCell id="vtVFkfu3P3o5CMaK1P3m-8" value="0" style="rounded=0;whiteSpace=wrap;html=1;fontStyle=1" parent="1" vertex="1">
          <mxGeometry x="50" y="-1005" width="40" height="18" as="geometry" />
        </mxCell>
        <mxCell id="vtVFkfu3P3o5CMaK1P3m-9" value="1" style="rounded=0;whiteSpace=wrap;html=1;fontStyle=1" parent="1" vertex="1">
          <mxGeometry x="110" y="-1005" width="40" height="18" as="geometry" />
        </mxCell>
        <mxCell id="vtVFkfu3P3o5CMaK1P3m-10" style="rounded=0;orthogonalLoop=1;jettySize=auto;html=1;exitX=0.25;exitY=1;exitDx=0;exitDy=0;entryX=0.5;entryY=0;entryDx=0;entryDy=0;endArrow=none;endFill=0;fontStyle=1;strokeColor=#ff0000;startArrow=classicThin;startFill=1;dashed=1;dashPattern=1 2;" parent="1" source="vtVFkfu3P3o5CMaK1P3m-13" target="vtVFkfu3P3o5CMaK1P3m-14" edge="1">
          <mxGeometry relative="1" as="geometry" />
        </mxCell>
        <mxCell id="vtVFkfu3P3o5CMaK1P3m-11" style="rounded=0;orthogonalLoop=1;jettySize=auto;html=1;exitX=0.75;exitY=1;exitDx=0;exitDy=0;entryX=0.5;entryY=0;entryDx=0;entryDy=0;endArrow=none;endFill=0;fontStyle=1" parent="1" source="vtVFkfu3P3o5CMaK1P3m-13" target="vtVFkfu3P3o5CMaK1P3m-15" edge="1">
          <mxGeometry relative="1" as="geometry" />
        </mxCell>
        <mxCell id="vtVFkfu3P3o5CMaK1P3m-12" style="rounded=0;orthogonalLoop=1;jettySize=auto;html=1;exitX=0.75;exitY=0;exitDx=0;exitDy=0;entryX=0.25;entryY=1;entryDx=0;entryDy=0;endArrow=classicThin;endFill=1;fontStyle=1;strokeColor=#ff0000;dashed=1;dashPattern=1 2;" parent="1" source="vtVFkfu3P3o5CMaK1P3m-13" target="vtVFkfu3P3o5CMaK1P3m-9" edge="1">
          <mxGeometry relative="1" as="geometry" />
        </mxCell>
        <mxCell id="vtVFkfu3P3o5CMaK1P3m-13" value="0" style="rounded=0;whiteSpace=wrap;html=1;fontStyle=1" parent="1" vertex="1">
          <mxGeometry x="50" y="-955" width="40" height="18" as="geometry" />
        </mxCell>
        <mxCell id="vtVFkfu3P3o5CMaK1P3m-14" value="0" style="ellipse;whiteSpace=wrap;html=1;aspect=fixed;fillColor=#000000;verticalAlign=top;fontStyle=1" parent="1" vertex="1">
          <mxGeometry x="50" y="-898" width="5" height="5" as="geometry" />
        </mxCell>
        <mxCell id="vtVFkfu3P3o5CMaK1P3m-15" value="1" style="ellipse;whiteSpace=wrap;html=1;aspect=fixed;fillColor=#000000;verticalAlign=top;fontStyle=1" parent="1" vertex="1">
          <mxGeometry x="85" y="-898" width="5" height="5" as="geometry" />
        </mxCell>
        <mxCell id="vtVFkfu3P3o5CMaK1P3m-16" style="rounded=0;orthogonalLoop=1;jettySize=auto;html=1;exitX=0.25;exitY=1;exitDx=0;exitDy=0;entryX=0.5;entryY=0;entryDx=0;entryDy=0;endArrow=none;endFill=0;fontStyle=1" parent="1" source="vtVFkfu3P3o5CMaK1P3m-18" target="vtVFkfu3P3o5CMaK1P3m-19" edge="1">
          <mxGeometry relative="1" as="geometry" />
        </mxCell>
        <mxCell id="vtVFkfu3P3o5CMaK1P3m-17" style="rounded=0;orthogonalLoop=1;jettySize=auto;html=1;exitX=0.75;exitY=1;exitDx=0;exitDy=0;entryX=0.5;entryY=0;entryDx=0;entryDy=0;endArrow=none;endFill=0;fontStyle=1" parent="1" source="vtVFkfu3P3o5CMaK1P3m-18" target="vtVFkfu3P3o5CMaK1P3m-20" edge="1">
          <mxGeometry relative="1" as="geometry" />
        </mxCell>
        <mxCell id="vtVFkfu3P3o5CMaK1P3m-18" value="1" style="rounded=0;whiteSpace=wrap;html=1;fontStyle=1" parent="1" vertex="1">
          <mxGeometry x="110" y="-955" width="40" height="18" as="geometry" />
        </mxCell>
        <mxCell id="vtVFkfu3P3o5CMaK1P3m-19" value="2" style="ellipse;whiteSpace=wrap;html=1;aspect=fixed;fillColor=#000000;verticalAlign=top;fontStyle=1" parent="1" vertex="1">
          <mxGeometry x="110" y="-898" width="5" height="5" as="geometry" />
        </mxCell>
        <mxCell id="vtVFkfu3P3o5CMaK1P3m-20" value="3" style="ellipse;whiteSpace=wrap;html=1;aspect=fixed;fillColor=#000000;verticalAlign=top;fontStyle=1" parent="1" vertex="1">
          <mxGeometry x="145" y="-898" width="5" height="5" as="geometry" />
        </mxCell>
        <mxCell id="vtVFkfu3P3o5CMaK1P3m-21" style="rounded=0;orthogonalLoop=1;jettySize=auto;html=1;exitX=0.25;exitY=0;exitDx=0;exitDy=0;entryX=0.75;entryY=1;entryDx=0;entryDy=0;endArrow=none;endFill=0;fontStyle=1" parent="1" source="vtVFkfu3P3o5CMaK1P3m-18" target="vtVFkfu3P3o5CMaK1P3m-8" edge="1">
          <mxGeometry relative="1" as="geometry">
            <mxPoint x="90" y="-945" as="sourcePoint" />
            <mxPoint x="130" y="-977" as="targetPoint" />
          </mxGeometry>
        </mxCell>
        <mxCell id="vtVFkfu3P3o5CMaK1P3m-22" style="rounded=0;orthogonalLoop=1;jettySize=auto;html=1;exitX=0.75;exitY=1;exitDx=0;exitDy=0;entryX=0.75;entryY=0;entryDx=0;entryDy=0;endArrow=none;endFill=0;fontStyle=1" parent="1" source="vtVFkfu3P3o5CMaK1P3m-9" target="vtVFkfu3P3o5CMaK1P3m-18" edge="1">
          <mxGeometry relative="1" as="geometry">
            <mxPoint x="70" y="-977" as="sourcePoint" />
            <mxPoint x="70" y="-945" as="targetPoint" />
          </mxGeometry>
        </mxCell>
        <mxCell id="vtVFkfu3P3o5CMaK1P3m-23" style="rounded=0;orthogonalLoop=1;jettySize=auto;html=1;exitX=0.25;exitY=1;exitDx=0;exitDy=0;entryX=0.25;entryY=0;entryDx=0;entryDy=0;endArrow=none;endFill=0;fontStyle=1;strokeColor=#0008ff;dashed=1;dashPattern=1 2;startArrow=classicThin;startFill=1;" parent="1" source="vtVFkfu3P3o5CMaK1P3m-24" target="vtVFkfu3P3o5CMaK1P3m-29" edge="1">
          <mxGeometry relative="1" as="geometry" />
        </mxCell>
        <mxCell id="vtVFkfu3P3o5CMaK1P3m-24" value="2" style="rounded=0;whiteSpace=wrap;html=1;fontStyle=1" parent="1" vertex="1">
          <mxGeometry x="170" y="-1005" width="40" height="18" as="geometry" />
        </mxCell>
        <mxCell id="vtVFkfu3P3o5CMaK1P3m-25" value="3" style="rounded=0;whiteSpace=wrap;html=1;fontStyle=1" parent="1" vertex="1">
          <mxGeometry x="230" y="-1005" width="40" height="18" as="geometry" />
        </mxCell>
        <mxCell id="vtVFkfu3P3o5CMaK1P3m-26" style="rounded=0;orthogonalLoop=1;jettySize=auto;html=1;exitX=0.25;exitY=1;exitDx=0;exitDy=0;entryX=0.5;entryY=0;entryDx=0;entryDy=0;endArrow=none;endFill=0;fontStyle=1" parent="1" source="vtVFkfu3P3o5CMaK1P3m-29" target="vtVFkfu3P3o5CMaK1P3m-30" edge="1">
          <mxGeometry relative="1" as="geometry" />
        </mxCell>
        <mxCell id="vtVFkfu3P3o5CMaK1P3m-27" style="rounded=0;orthogonalLoop=1;jettySize=auto;html=1;exitX=0.75;exitY=1;exitDx=0;exitDy=0;entryX=0.5;entryY=0;entryDx=0;entryDy=0;endArrow=none;endFill=0;fontStyle=1;strokeColor=#0008ff;dashed=1;dashPattern=1 2;startArrow=classicThin;startFill=1;" parent="1" source="vtVFkfu3P3o5CMaK1P3m-29" target="vtVFkfu3P3o5CMaK1P3m-31" edge="1">
          <mxGeometry relative="1" as="geometry" />
        </mxCell>
        <mxCell id="vtVFkfu3P3o5CMaK1P3m-28" style="rounded=0;orthogonalLoop=1;jettySize=auto;html=1;exitX=0.75;exitY=0;exitDx=0;exitDy=0;entryX=0.25;entryY=1;entryDx=0;entryDy=0;endArrow=classicThin;endFill=1;fontStyle=1;strokeColor=#0008ff;dashed=1;dashPattern=1 2;" parent="1" source="vtVFkfu3P3o5CMaK1P3m-29" target="vtVFkfu3P3o5CMaK1P3m-25" edge="1">
          <mxGeometry relative="1" as="geometry" />
        </mxCell>
        <mxCell id="vtVFkfu3P3o5CMaK1P3m-29" value="2" style="rounded=0;whiteSpace=wrap;html=1;fontStyle=1" parent="1" vertex="1">
          <mxGeometry x="170" y="-955" width="40" height="18" as="geometry" />
        </mxCell>
        <mxCell id="vtVFkfu3P3o5CMaK1P3m-30" value="4" style="ellipse;whiteSpace=wrap;html=1;aspect=fixed;fillColor=#000000;verticalAlign=top;fontStyle=1" parent="1" vertex="1">
          <mxGeometry x="170" y="-898" width="5" height="5" as="geometry" />
        </mxCell>
        <mxCell id="vtVFkfu3P3o5CMaK1P3m-31" value="5" style="ellipse;whiteSpace=wrap;html=1;aspect=fixed;fillColor=#000000;verticalAlign=top;fontStyle=1" parent="1" vertex="1">
          <mxGeometry x="205" y="-898" width="5" height="5" as="geometry" />
        </mxCell>
        <mxCell id="vtVFkfu3P3o5CMaK1P3m-32" style="rounded=0;orthogonalLoop=1;jettySize=auto;html=1;exitX=0.25;exitY=1;exitDx=0;exitDy=0;entryX=0.5;entryY=0;entryDx=0;entryDy=0;endArrow=none;endFill=0;fontStyle=1" parent="1" source="vtVFkfu3P3o5CMaK1P3m-34" target="vtVFkfu3P3o5CMaK1P3m-35" edge="1">
          <mxGeometry relative="1" as="geometry" />
        </mxCell>
        <mxCell id="vtVFkfu3P3o5CMaK1P3m-33" style="rounded=0;orthogonalLoop=1;jettySize=auto;html=1;exitX=0.75;exitY=1;exitDx=0;exitDy=0;entryX=0.5;entryY=0;entryDx=0;entryDy=0;endArrow=none;endFill=0;fontStyle=1" parent="1" source="vtVFkfu3P3o5CMaK1P3m-34" target="vtVFkfu3P3o5CMaK1P3m-36" edge="1">
          <mxGeometry relative="1" as="geometry" />
        </mxCell>
        <mxCell id="vtVFkfu3P3o5CMaK1P3m-34" value="3" style="rounded=0;whiteSpace=wrap;html=1;fontStyle=1" parent="1" vertex="1">
          <mxGeometry x="230" y="-955" width="40" height="18" as="geometry" />
        </mxCell>
        <mxCell id="vtVFkfu3P3o5CMaK1P3m-35" value="6" style="ellipse;whiteSpace=wrap;html=1;aspect=fixed;fillColor=#000000;verticalAlign=top;fontStyle=1" parent="1" vertex="1">
          <mxGeometry x="230" y="-898" width="5" height="5" as="geometry" />
        </mxCell>
        <mxCell id="vtVFkfu3P3o5CMaK1P3m-36" value="7" style="ellipse;whiteSpace=wrap;html=1;aspect=fixed;fillColor=#000000;verticalAlign=top;fontStyle=1" parent="1" vertex="1">
          <mxGeometry x="265" y="-898" width="5" height="5" as="geometry" />
        </mxCell>
        <mxCell id="vtVFkfu3P3o5CMaK1P3m-37" style="rounded=0;orthogonalLoop=1;jettySize=auto;html=1;exitX=0.25;exitY=0;exitDx=0;exitDy=0;entryX=0.75;entryY=1;entryDx=0;entryDy=0;endArrow=none;endFill=0;fontStyle=1" parent="1" source="vtVFkfu3P3o5CMaK1P3m-34" target="vtVFkfu3P3o5CMaK1P3m-24" edge="1">
          <mxGeometry relative="1" as="geometry">
            <mxPoint x="210" y="-945" as="sourcePoint" />
            <mxPoint x="250" y="-977" as="targetPoint" />
          </mxGeometry>
        </mxCell>
        <mxCell id="vtVFkfu3P3o5CMaK1P3m-38" style="rounded=0;orthogonalLoop=1;jettySize=auto;html=1;exitX=0.75;exitY=1;exitDx=0;exitDy=0;entryX=0.75;entryY=0;entryDx=0;entryDy=0;endArrow=none;endFill=0;fontStyle=1" parent="1" source="vtVFkfu3P3o5CMaK1P3m-25" target="vtVFkfu3P3o5CMaK1P3m-34" edge="1">
          <mxGeometry relative="1" as="geometry">
            <mxPoint x="190" y="-977" as="sourcePoint" />
            <mxPoint x="190" y="-945" as="targetPoint" />
          </mxGeometry>
        </mxCell>
        <mxCell id="vtVFkfu3P3o5CMaK1P3m-39" style="rounded=0;orthogonalLoop=1;jettySize=auto;html=1;exitX=0.25;exitY=1;exitDx=0;exitDy=0;entryX=0.25;entryY=0;entryDx=0;entryDy=0;endArrow=none;endFill=0;fontStyle=1" parent="1" source="vtVFkfu3P3o5CMaK1P3m-40" target="vtVFkfu3P3o5CMaK1P3m-45" edge="1">
          <mxGeometry relative="1" as="geometry" />
        </mxCell>
        <mxCell id="vtVFkfu3P3o5CMaK1P3m-40" value="4" style="rounded=0;whiteSpace=wrap;html=1;fontStyle=1" parent="1" vertex="1">
          <mxGeometry x="290" y="-1005" width="40" height="18" as="geometry" />
        </mxCell>
        <mxCell id="vtVFkfu3P3o5CMaK1P3m-41" value="5" style="rounded=0;whiteSpace=wrap;html=1;fontStyle=1" parent="1" vertex="1">
          <mxGeometry x="350" y="-1005" width="40" height="18" as="geometry" />
        </mxCell>
        <mxCell id="vtVFkfu3P3o5CMaK1P3m-42" style="rounded=0;orthogonalLoop=1;jettySize=auto;html=1;exitX=0.25;exitY=1;exitDx=0;exitDy=0;entryX=0.5;entryY=0;entryDx=0;entryDy=0;endArrow=none;endFill=0;fontStyle=1" parent="1" source="vtVFkfu3P3o5CMaK1P3m-45" target="vtVFkfu3P3o5CMaK1P3m-46" edge="1">
          <mxGeometry relative="1" as="geometry" />
        </mxCell>
        <mxCell id="vtVFkfu3P3o5CMaK1P3m-43" style="rounded=0;orthogonalLoop=1;jettySize=auto;html=1;exitX=0.75;exitY=1;exitDx=0;exitDy=0;entryX=0.5;entryY=0;entryDx=0;entryDy=0;endArrow=none;endFill=0;fontStyle=1" parent="1" source="vtVFkfu3P3o5CMaK1P3m-45" target="vtVFkfu3P3o5CMaK1P3m-47" edge="1">
          <mxGeometry relative="1" as="geometry" />
        </mxCell>
        <mxCell id="vtVFkfu3P3o5CMaK1P3m-44" style="rounded=0;orthogonalLoop=1;jettySize=auto;html=1;exitX=0.75;exitY=0;exitDx=0;exitDy=0;entryX=0.25;entryY=1;entryDx=0;entryDy=0;endArrow=none;endFill=0;fontStyle=1" parent="1" source="vtVFkfu3P3o5CMaK1P3m-45" target="vtVFkfu3P3o5CMaK1P3m-41" edge="1">
          <mxGeometry relative="1" as="geometry" />
        </mxCell>
        <mxCell id="vtVFkfu3P3o5CMaK1P3m-45" value="4" style="rounded=0;whiteSpace=wrap;html=1;fontStyle=1" parent="1" vertex="1">
          <mxGeometry x="290" y="-955" width="40" height="18" as="geometry" />
        </mxCell>
        <mxCell id="vtVFkfu3P3o5CMaK1P3m-46" value="8" style="ellipse;whiteSpace=wrap;html=1;aspect=fixed;fillColor=#000000;verticalAlign=top;fontStyle=1" parent="1" vertex="1">
          <mxGeometry x="290" y="-898" width="5" height="5" as="geometry" />
        </mxCell>
        <mxCell id="vtVFkfu3P3o5CMaK1P3m-47" value="9" style="ellipse;whiteSpace=wrap;html=1;aspect=fixed;fillColor=#000000;verticalAlign=top;fontStyle=1" parent="1" vertex="1">
          <mxGeometry x="325" y="-898" width="5" height="5" as="geometry" />
        </mxCell>
        <mxCell id="vtVFkfu3P3o5CMaK1P3m-48" style="rounded=0;orthogonalLoop=1;jettySize=auto;html=1;exitX=0.25;exitY=1;exitDx=0;exitDy=0;entryX=0.5;entryY=0;entryDx=0;entryDy=0;endArrow=none;endFill=0;fontStyle=1;strokeColor=#039900;startArrow=classicThin;startFill=1;dashed=1;dashPattern=1 2;" parent="1" source="vtVFkfu3P3o5CMaK1P3m-50" target="vtVFkfu3P3o5CMaK1P3m-51" edge="1">
          <mxGeometry relative="1" as="geometry" />
        </mxCell>
        <mxCell id="vtVFkfu3P3o5CMaK1P3m-49" style="rounded=0;orthogonalLoop=1;jettySize=auto;html=1;exitX=0.75;exitY=1;exitDx=0;exitDy=0;entryX=0.5;entryY=0;entryDx=0;entryDy=0;endArrow=none;endFill=0;fontStyle=1" parent="1" source="vtVFkfu3P3o5CMaK1P3m-50" target="vtVFkfu3P3o5CMaK1P3m-52" edge="1">
          <mxGeometry relative="1" as="geometry" />
        </mxCell>
        <mxCell id="vtVFkfu3P3o5CMaK1P3m-50" value="5" style="rounded=0;whiteSpace=wrap;html=1;fontStyle=1" parent="1" vertex="1">
          <mxGeometry x="350" y="-955" width="40" height="18" as="geometry" />
        </mxCell>
        <mxCell id="vtVFkfu3P3o5CMaK1P3m-51" value="10" style="ellipse;whiteSpace=wrap;html=1;aspect=fixed;fillColor=#000000;verticalAlign=top;fontStyle=1" parent="1" vertex="1">
          <mxGeometry x="350" y="-898" width="5" height="5" as="geometry" />
        </mxCell>
        <mxCell id="vtVFkfu3P3o5CMaK1P3m-52" value="11" style="ellipse;whiteSpace=wrap;html=1;aspect=fixed;fillColor=#000000;verticalAlign=top;fontStyle=1" parent="1" vertex="1">
          <mxGeometry x="385" y="-898" width="5" height="5" as="geometry" />
        </mxCell>
        <mxCell id="vtVFkfu3P3o5CMaK1P3m-53" style="rounded=0;orthogonalLoop=1;jettySize=auto;html=1;exitX=0.25;exitY=0;exitDx=0;exitDy=0;entryX=0.75;entryY=1;entryDx=0;entryDy=0;endArrow=classicThin;endFill=1;fontStyle=1;strokeColor=#039900;startArrow=none;startFill=0;dashed=1;dashPattern=1 2;" parent="1" source="vtVFkfu3P3o5CMaK1P3m-50" target="vtVFkfu3P3o5CMaK1P3m-40" edge="1">
          <mxGeometry relative="1" as="geometry">
            <mxPoint x="330" y="-945" as="sourcePoint" />
            <mxPoint x="370" y="-977" as="targetPoint" />
          </mxGeometry>
        </mxCell>
        <mxCell id="vtVFkfu3P3o5CMaK1P3m-54" style="rounded=0;orthogonalLoop=1;jettySize=auto;html=1;exitX=0.75;exitY=1;exitDx=0;exitDy=0;entryX=0.75;entryY=0;entryDx=0;entryDy=0;endArrow=none;endFill=0;fontStyle=1;strokeColor=#039900;startArrow=classicThin;startFill=1;dashed=1;dashPattern=1 2;" parent="1" source="vtVFkfu3P3o5CMaK1P3m-41" target="vtVFkfu3P3o5CMaK1P3m-50" edge="1">
          <mxGeometry relative="1" as="geometry">
            <mxPoint x="310" y="-977" as="sourcePoint" />
            <mxPoint x="310" y="-945" as="targetPoint" />
          </mxGeometry>
        </mxCell>
        <mxCell id="vtVFkfu3P3o5CMaK1P3m-55" style="rounded=0;orthogonalLoop=1;jettySize=auto;html=1;exitX=0.25;exitY=1;exitDx=0;exitDy=0;entryX=0.25;entryY=0;entryDx=0;entryDy=0;endArrow=none;endFill=0;fontStyle=1" parent="1" source="vtVFkfu3P3o5CMaK1P3m-56" target="vtVFkfu3P3o5CMaK1P3m-61" edge="1">
          <mxGeometry relative="1" as="geometry" />
        </mxCell>
        <mxCell id="vtVFkfu3P3o5CMaK1P3m-56" value="6" style="rounded=0;whiteSpace=wrap;html=1;fontStyle=1" parent="1" vertex="1">
          <mxGeometry x="410" y="-1005" width="40" height="18" as="geometry" />
        </mxCell>
        <mxCell id="vtVFkfu3P3o5CMaK1P3m-57" value="7" style="rounded=0;whiteSpace=wrap;html=1;fontStyle=1" parent="1" vertex="1">
          <mxGeometry x="470" y="-1005" width="40" height="18" as="geometry" />
        </mxCell>
        <mxCell id="vtVFkfu3P3o5CMaK1P3m-58" style="rounded=0;orthogonalLoop=1;jettySize=auto;html=1;exitX=0.25;exitY=1;exitDx=0;exitDy=0;entryX=0.5;entryY=0;entryDx=0;entryDy=0;endArrow=none;endFill=0;fontStyle=1" parent="1" source="vtVFkfu3P3o5CMaK1P3m-61" target="vtVFkfu3P3o5CMaK1P3m-62" edge="1">
          <mxGeometry relative="1" as="geometry" />
        </mxCell>
        <mxCell id="vtVFkfu3P3o5CMaK1P3m-59" style="rounded=0;orthogonalLoop=1;jettySize=auto;html=1;exitX=0.75;exitY=1;exitDx=0;exitDy=0;entryX=0.5;entryY=0;entryDx=0;entryDy=0;endArrow=none;endFill=0;fontStyle=1" parent="1" source="vtVFkfu3P3o5CMaK1P3m-61" target="vtVFkfu3P3o5CMaK1P3m-63" edge="1">
          <mxGeometry relative="1" as="geometry" />
        </mxCell>
        <mxCell id="vtVFkfu3P3o5CMaK1P3m-60" style="rounded=0;orthogonalLoop=1;jettySize=auto;html=1;exitX=0.75;exitY=0;exitDx=0;exitDy=0;entryX=0.25;entryY=1;entryDx=0;entryDy=0;endArrow=none;endFill=0;fontStyle=1" parent="1" source="vtVFkfu3P3o5CMaK1P3m-61" target="vtVFkfu3P3o5CMaK1P3m-57" edge="1">
          <mxGeometry relative="1" as="geometry" />
        </mxCell>
        <mxCell id="vtVFkfu3P3o5CMaK1P3m-61" value="6" style="rounded=0;whiteSpace=wrap;html=1;fontStyle=1" parent="1" vertex="1">
          <mxGeometry x="410" y="-955" width="40" height="18" as="geometry" />
        </mxCell>
        <mxCell id="vtVFkfu3P3o5CMaK1P3m-62" value="12" style="ellipse;whiteSpace=wrap;html=1;aspect=fixed;fillColor=#000000;verticalAlign=top;fontStyle=1" parent="1" vertex="1">
          <mxGeometry x="410" y="-898" width="5" height="5" as="geometry" />
        </mxCell>
        <mxCell id="vtVFkfu3P3o5CMaK1P3m-63" value="13" style="ellipse;whiteSpace=wrap;html=1;aspect=fixed;fillColor=#000000;verticalAlign=top;fontStyle=1" parent="1" vertex="1">
          <mxGeometry x="445" y="-898" width="5" height="5" as="geometry" />
        </mxCell>
        <mxCell id="vtVFkfu3P3o5CMaK1P3m-64" style="rounded=0;orthogonalLoop=1;jettySize=auto;html=1;exitX=0.25;exitY=1;exitDx=0;exitDy=0;entryX=0.5;entryY=0;entryDx=0;entryDy=0;endArrow=none;endFill=0;fontStyle=1" parent="1" source="vtVFkfu3P3o5CMaK1P3m-66" target="vtVFkfu3P3o5CMaK1P3m-67" edge="1">
          <mxGeometry relative="1" as="geometry" />
        </mxCell>
        <mxCell id="vtVFkfu3P3o5CMaK1P3m-65" style="rounded=0;orthogonalLoop=1;jettySize=auto;html=1;exitX=0.75;exitY=1;exitDx=0;exitDy=0;entryX=0.5;entryY=0;entryDx=0;entryDy=0;endArrow=none;endFill=0;fontStyle=1;strokeColor=#ff00ea;startArrow=classicThin;startFill=1;dashed=1;dashPattern=1 2;" parent="1" source="vtVFkfu3P3o5CMaK1P3m-66" target="vtVFkfu3P3o5CMaK1P3m-68" edge="1">
          <mxGeometry relative="1" as="geometry" />
        </mxCell>
        <mxCell id="vtVFkfu3P3o5CMaK1P3m-66" value="7" style="rounded=0;whiteSpace=wrap;html=1;fontStyle=1" parent="1" vertex="1">
          <mxGeometry x="470" y="-955" width="40" height="18" as="geometry" />
        </mxCell>
        <mxCell id="vtVFkfu3P3o5CMaK1P3m-67" value="14" style="ellipse;whiteSpace=wrap;html=1;aspect=fixed;fillColor=#000000;verticalAlign=top;fontStyle=1" parent="1" vertex="1">
          <mxGeometry x="470" y="-898" width="5" height="5" as="geometry" />
        </mxCell>
        <mxCell id="vtVFkfu3P3o5CMaK1P3m-68" value="15" style="ellipse;whiteSpace=wrap;html=1;aspect=fixed;fillColor=#000000;verticalAlign=top;fontStyle=1" parent="1" vertex="1">
          <mxGeometry x="505" y="-898" width="5" height="5" as="geometry" />
        </mxCell>
        <mxCell id="vtVFkfu3P3o5CMaK1P3m-69" style="rounded=0;orthogonalLoop=1;jettySize=auto;html=1;exitX=0.25;exitY=0;exitDx=0;exitDy=0;entryX=0.75;entryY=1;entryDx=0;entryDy=0;endArrow=classicThin;endFill=1;fontStyle=1;strokeColor=#ff00ea;startArrow=none;startFill=0;dashed=1;dashPattern=1 2;" parent="1" source="vtVFkfu3P3o5CMaK1P3m-66" target="vtVFkfu3P3o5CMaK1P3m-56" edge="1">
          <mxGeometry relative="1" as="geometry">
            <mxPoint x="450" y="-945" as="sourcePoint" />
            <mxPoint x="490" y="-977" as="targetPoint" />
          </mxGeometry>
        </mxCell>
        <mxCell id="vtVFkfu3P3o5CMaK1P3m-70" style="rounded=0;orthogonalLoop=1;jettySize=auto;html=1;exitX=0.75;exitY=1;exitDx=0;exitDy=0;entryX=0.75;entryY=0;entryDx=0;entryDy=0;endArrow=none;endFill=0;fontStyle=1;strokeColor=#ff00ea;startArrow=classicThin;startFill=1;dashed=1;dashPattern=1 2;" parent="1" source="vtVFkfu3P3o5CMaK1P3m-57" target="vtVFkfu3P3o5CMaK1P3m-66" edge="1">
          <mxGeometry relative="1" as="geometry">
            <mxPoint x="430" y="-977" as="sourcePoint" />
            <mxPoint x="430" y="-945" as="targetPoint" />
          </mxGeometry>
        </mxCell>
        <mxCell id="vtVFkfu3P3o5CMaK1P3m-71" style="rounded=0;orthogonalLoop=1;jettySize=auto;html=1;exitX=0.25;exitY=0;exitDx=0;exitDy=0;entryX=0;entryY=1;entryDx=0;entryDy=0;endArrow=classicThin;endFill=1;fontStyle=1;strokeColor=#ff0000;dashed=1;dashPattern=1 2;" parent="1" source="vtVFkfu3P3o5CMaK1P3m-8" target="vtVFkfu3P3o5CMaK1P3m-2" edge="1">
          <mxGeometry relative="1" as="geometry">
            <mxPoint x="130" y="-945" as="sourcePoint" />
            <mxPoint x="90" y="-977" as="targetPoint" />
          </mxGeometry>
        </mxCell>
        <mxCell id="vtVFkfu3P3o5CMaK1P3m-72" style="rounded=0;orthogonalLoop=1;jettySize=auto;html=1;exitX=0.25;exitY=0;exitDx=0;exitDy=0;entryX=0.25;entryY=1;entryDx=0;entryDy=0;endArrow=classicThin;endFill=1;fontStyle=1;strokeColor=#0008ff;dashed=1;dashPattern=1 2;" parent="1" source="vtVFkfu3P3o5CMaK1P3m-24" target="vtVFkfu3P3o5CMaK1P3m-2" edge="1">
          <mxGeometry relative="1" as="geometry">
            <mxPoint x="140" y="-935" as="sourcePoint" />
            <mxPoint x="100" y="-967" as="targetPoint" />
          </mxGeometry>
        </mxCell>
        <mxCell id="vtVFkfu3P3o5CMaK1P3m-73" style="rounded=0;orthogonalLoop=1;jettySize=auto;html=1;exitX=0.75;exitY=1;exitDx=0;exitDy=0;entryX=0.25;entryY=0;entryDx=0;entryDy=0;endArrow=none;endFill=0;fontStyle=1;strokeColor=#039900;startArrow=classicThin;startFill=1;dashed=1;dashPattern=1 2;" parent="1" source="vtVFkfu3P3o5CMaK1P3m-2" target="vtVFkfu3P3o5CMaK1P3m-40" edge="1">
          <mxGeometry relative="1" as="geometry">
            <mxPoint x="150" y="-925" as="sourcePoint" />
            <mxPoint x="110" y="-957" as="targetPoint" />
          </mxGeometry>
        </mxCell>
        <mxCell id="vtVFkfu3P3o5CMaK1P3m-74" style="rounded=0;orthogonalLoop=1;jettySize=auto;html=1;exitX=1;exitY=1;exitDx=0;exitDy=0;entryX=0.25;entryY=0;entryDx=0;entryDy=0;endArrow=none;endFill=0;fontStyle=1;strokeColor=#ff00ea;startArrow=classicThin;startFill=1;dashed=1;dashPattern=1 2;" parent="1" source="vtVFkfu3P3o5CMaK1P3m-2" target="vtVFkfu3P3o5CMaK1P3m-56" edge="1">
          <mxGeometry relative="1" as="geometry">
            <mxPoint x="210" y="-1027" as="sourcePoint" />
            <mxPoint x="310" y="-995" as="targetPoint" />
          </mxGeometry>
        </mxCell>
        <mxCell id="vtVFkfu3P3o5CMaK1P3m-75" style="rounded=0;orthogonalLoop=1;jettySize=auto;html=1;exitX=0.75;exitY=0;exitDx=0;exitDy=0;entryX=0.25;entryY=1;entryDx=0;entryDy=0;endArrow=classicThin;endFill=1;fontStyle=1;strokeColor=#0008ff;dashed=1;dashPattern=1 2;" parent="1" source="vtVFkfu3P3o5CMaK1P3m-24" target="vtVFkfu3P3o5CMaK1P3m-3" edge="1">
          <mxGeometry relative="1" as="geometry">
            <mxPoint x="245" y="-1005" as="sourcePoint" />
            <mxPoint x="245" y="-1037" as="targetPoint" />
          </mxGeometry>
        </mxCell>
        <mxCell id="vtVFkfu3P3o5CMaK1P3m-76" style="rounded=0;orthogonalLoop=1;jettySize=auto;html=1;exitX=0.75;exitY=1;exitDx=0;exitDy=0;entryX=0.75;entryY=0;entryDx=0;entryDy=0;endArrow=none;endFill=0;fontStyle=1;strokeColor=#039900;startArrow=classicThin;startFill=1;dashed=1;dashPattern=1 2;" parent="1" source="vtVFkfu3P3o5CMaK1P3m-3" target="vtVFkfu3P3o5CMaK1P3m-40" edge="1">
          <mxGeometry relative="1" as="geometry">
            <mxPoint x="265" y="-1037" as="sourcePoint" />
            <mxPoint x="365" y="-1005" as="targetPoint" />
          </mxGeometry>
        </mxCell>
        <mxCell id="vtVFkfu3P3o5CMaK1P3m-77" style="rounded=0;orthogonalLoop=1;jettySize=auto;html=1;exitX=1;exitY=1;exitDx=0;exitDy=0;entryX=0.75;entryY=0;entryDx=0;entryDy=0;endArrow=none;endFill=0;fontStyle=1;strokeColor=#ff00ea;startArrow=classicThin;startFill=1;dashed=1;dashPattern=1 2;" parent="1" source="vtVFkfu3P3o5CMaK1P3m-3" target="vtVFkfu3P3o5CMaK1P3m-56" edge="1">
          <mxGeometry relative="1" as="geometry">
            <mxPoint x="275" y="-1037" as="sourcePoint" />
            <mxPoint x="485" y="-1005" as="targetPoint" />
          </mxGeometry>
        </mxCell>
        <mxCell id="vtVFkfu3P3o5CMaK1P3m-78" style="rounded=0;orthogonalLoop=1;jettySize=auto;html=1;exitX=0.75;exitY=0;exitDx=0;exitDy=0;endArrow=classicThin;endFill=1;entryX=0;entryY=1;entryDx=0;entryDy=0;fontStyle=1;strokeColor=#ff0000;dashed=1;dashPattern=1 2;" parent="1" source="vtVFkfu3P3o5CMaK1P3m-8" target="vtVFkfu3P3o5CMaK1P3m-3" edge="1">
          <mxGeometry relative="1" as="geometry">
            <mxPoint x="200" y="-1005" as="sourcePoint" />
            <mxPoint x="291" y="-1067" as="targetPoint" />
          </mxGeometry>
        </mxCell>
        <mxCell id="vtVFkfu3P3o5CMaK1P3m-79" style="rounded=0;orthogonalLoop=1;jettySize=auto;html=1;exitX=0.25;exitY=0;exitDx=0;exitDy=0;entryX=0.25;entryY=1;entryDx=0;entryDy=0;endArrow=classicThin;endFill=1;fontStyle=1;strokeColor=#0008ff;dashed=1;dashPattern=1 2;" parent="1" source="vtVFkfu3P3o5CMaK1P3m-25" target="vtVFkfu3P3o5CMaK1P3m-5" edge="1">
          <mxGeometry relative="1" as="geometry">
            <mxPoint x="300" y="-1005" as="sourcePoint" />
            <mxPoint x="300" y="-1067" as="targetPoint" />
          </mxGeometry>
        </mxCell>
        <mxCell id="vtVFkfu3P3o5CMaK1P3m-80" style="rounded=0;orthogonalLoop=1;jettySize=auto;html=1;exitX=0.75;exitY=1;exitDx=0;exitDy=0;entryX=0.25;entryY=0;entryDx=0;entryDy=0;endArrow=none;endFill=0;fontStyle=1;strokeColor=#039900;startArrow=classicThin;startFill=1;dashed=1;dashPattern=1 2;" parent="1" source="vtVFkfu3P3o5CMaK1P3m-5" target="vtVFkfu3P3o5CMaK1P3m-41" edge="1">
          <mxGeometry relative="1" as="geometry">
            <mxPoint x="320" y="-1067" as="sourcePoint" />
            <mxPoint x="420" y="-1005" as="targetPoint" />
          </mxGeometry>
        </mxCell>
        <mxCell id="vtVFkfu3P3o5CMaK1P3m-81" style="rounded=0;orthogonalLoop=1;jettySize=auto;html=1;entryX=0.25;entryY=0;entryDx=0;entryDy=0;endArrow=none;endFill=0;exitX=1;exitY=1;exitDx=0;exitDy=0;fontStyle=1;strokeColor=#ff00ea;startArrow=classicThin;startFill=1;dashed=1;dashPattern=1 2;" parent="1" source="vtVFkfu3P3o5CMaK1P3m-5" target="vtVFkfu3P3o5CMaK1P3m-57" edge="1">
          <mxGeometry relative="1" as="geometry">
            <mxPoint x="340" y="-1065" as="sourcePoint" />
            <mxPoint x="530" y="-1005" as="targetPoint" />
          </mxGeometry>
        </mxCell>
        <mxCell id="vtVFkfu3P3o5CMaK1P3m-82" style="rounded=0;orthogonalLoop=1;jettySize=auto;html=1;exitX=0.75;exitY=0;exitDx=0;exitDy=0;entryX=0;entryY=1;entryDx=0;entryDy=0;endArrow=classicThin;endFill=1;fontStyle=1;strokeColor=#ff0000;dashed=1;dashPattern=1 2;" parent="1" source="vtVFkfu3P3o5CMaK1P3m-9" target="vtVFkfu3P3o5CMaK1P3m-6" edge="1">
          <mxGeometry relative="1" as="geometry">
            <mxPoint x="70" y="-995" as="sourcePoint" />
            <mxPoint x="180" y="-1077" as="targetPoint" />
          </mxGeometry>
        </mxCell>
        <mxCell id="vtVFkfu3P3o5CMaK1P3m-83" style="rounded=0;orthogonalLoop=1;jettySize=auto;html=1;exitX=0.75;exitY=0;exitDx=0;exitDy=0;entryX=0.25;entryY=1;entryDx=0;entryDy=0;endArrow=classicThin;endFill=1;fontStyle=1;strokeColor=#0008ff;dashed=1;dashPattern=1 2;" parent="1" source="vtVFkfu3P3o5CMaK1P3m-25" target="vtVFkfu3P3o5CMaK1P3m-6" edge="1">
          <mxGeometry relative="1" as="geometry">
            <mxPoint x="80" y="-985" as="sourcePoint" />
            <mxPoint x="190" y="-1067" as="targetPoint" />
          </mxGeometry>
        </mxCell>
        <mxCell id="vtVFkfu3P3o5CMaK1P3m-84" style="rounded=0;orthogonalLoop=1;jettySize=auto;html=1;exitX=0.75;exitY=0;exitDx=0;exitDy=0;entryX=0.75;entryY=1;entryDx=0;entryDy=0;endArrow=classicThin;endFill=1;fontStyle=1;strokeColor=#039900;startArrow=none;startFill=0;dashed=1;dashPattern=1 2;" parent="1" source="vtVFkfu3P3o5CMaK1P3m-41" target="vtVFkfu3P3o5CMaK1P3m-6" edge="1">
          <mxGeometry relative="1" as="geometry">
            <mxPoint x="90" y="-975" as="sourcePoint" />
            <mxPoint x="200" y="-1057" as="targetPoint" />
          </mxGeometry>
        </mxCell>
        <mxCell id="vtVFkfu3P3o5CMaK1P3m-85" style="rounded=0;orthogonalLoop=1;jettySize=auto;html=1;exitX=0.75;exitY=0;exitDx=0;exitDy=0;entryX=1;entryY=1;entryDx=0;entryDy=0;endArrow=classicThin;endFill=1;fontStyle=1;strokeColor=#ff00ea;startArrow=none;startFill=0;dashed=1;dashPattern=1 2;" parent="1" source="vtVFkfu3P3o5CMaK1P3m-57" target="vtVFkfu3P3o5CMaK1P3m-6" edge="1">
          <mxGeometry relative="1" as="geometry">
            <mxPoint x="100" y="-965" as="sourcePoint" />
            <mxPoint x="210" y="-1047" as="targetPoint" />
          </mxGeometry>
        </mxCell>
        <mxCell id="vtVFkfu3P3o5CMaK1P3m-96" value="0" style="rounded=0;whiteSpace=wrap;html=1;fontStyle=1" parent="1" vertex="1">
          <mxGeometry x="115" y="-840" width="49" height="18" as="geometry" />
        </mxCell>
        <mxCell id="vtVFkfu3P3o5CMaK1P3m-97" value="1" style="rounded=0;whiteSpace=wrap;html=1;fontStyle=1" parent="1" vertex="1">
          <mxGeometry x="212" y="-840" width="49" height="18" as="geometry" />
        </mxCell>
        <mxCell id="vtVFkfu3P3o5CMaK1P3m-98" style="rounded=0;orthogonalLoop=1;jettySize=auto;html=1;exitX=0;exitY=1;exitDx=0;exitDy=0;entryX=0.25;entryY=0;entryDx=0;entryDy=0;endArrow=classicThin;endFill=1;fontStyle=1;strokeColor=#ff0000;dashed=1;dashPattern=1 2;" parent="1" source="vtVFkfu3P3o5CMaK1P3m-99" target="vtVFkfu3P3o5CMaK1P3m-103" edge="1">
          <mxGeometry relative="1" as="geometry" />
        </mxCell>
        <mxCell id="vtVFkfu3P3o5CMaK1P3m-99" value="2" style="rounded=0;whiteSpace=wrap;html=1;fontStyle=1" parent="1" vertex="1">
          <mxGeometry x="309" y="-840" width="49" height="18" as="geometry" />
        </mxCell>
        <mxCell id="vtVFkfu3P3o5CMaK1P3m-100" value="3" style="rounded=0;whiteSpace=wrap;html=1;fontStyle=1" parent="1" vertex="1">
          <mxGeometry x="406" y="-840" width="49" height="18" as="geometry" />
        </mxCell>
        <mxCell id="vtVFkfu3P3o5CMaK1P3m-101" style="rounded=0;orthogonalLoop=1;jettySize=auto;html=1;exitX=0.25;exitY=1;exitDx=0;exitDy=0;entryX=0.25;entryY=0;entryDx=0;entryDy=0;endArrow=classicThin;endFill=1;fontStyle=1;dashed=1;dashPattern=1 2;strokeColor=#ff0000;" parent="1" source="vtVFkfu3P3o5CMaK1P3m-102" target="vtVFkfu3P3o5CMaK1P3m-107" edge="1">
          <mxGeometry relative="1" as="geometry" />
        </mxCell>
        <mxCell id="vtVFkfu3P3o5CMaK1P3m-102" value="0" style="rounded=0;whiteSpace=wrap;html=1;fontStyle=1" parent="1" vertex="1">
          <mxGeometry x="55" y="-765" width="40" height="18" as="geometry" />
        </mxCell>
        <mxCell id="vtVFkfu3P3o5CMaK1P3m-103" value="1" style="rounded=0;whiteSpace=wrap;html=1;fontStyle=1" parent="1" vertex="1">
          <mxGeometry x="115" y="-765" width="40" height="18" as="geometry" />
        </mxCell>
        <mxCell id="vtVFkfu3P3o5CMaK1P3m-104" style="rounded=0;orthogonalLoop=1;jettySize=auto;html=1;exitX=0.25;exitY=1;exitDx=0;exitDy=0;entryX=0.5;entryY=0;entryDx=0;entryDy=0;endArrow=classicThin;endFill=1;fontStyle=1;dashed=1;dashPattern=1 2;strokeColor=#ff0000;" parent="1" source="vtVFkfu3P3o5CMaK1P3m-107" target="vtVFkfu3P3o5CMaK1P3m-108" edge="1">
          <mxGeometry relative="1" as="geometry" />
        </mxCell>
        <mxCell id="vtVFkfu3P3o5CMaK1P3m-105" style="rounded=0;orthogonalLoop=1;jettySize=auto;html=1;exitX=0.75;exitY=1;exitDx=0;exitDy=0;entryX=0.5;entryY=0;entryDx=0;entryDy=0;endArrow=classicThin;endFill=1;fontStyle=1;dashed=1;dashPattern=1 2;strokeColor=#ff0000;" parent="1" source="vtVFkfu3P3o5CMaK1P3m-107" target="vtVFkfu3P3o5CMaK1P3m-109" edge="1">
          <mxGeometry relative="1" as="geometry" />
        </mxCell>
        <mxCell id="vtVFkfu3P3o5CMaK1P3m-106" style="rounded=0;orthogonalLoop=1;jettySize=auto;html=1;exitX=0.75;exitY=0;exitDx=0;exitDy=0;entryX=0.25;entryY=1;entryDx=0;entryDy=0;endArrow=none;endFill=0;fontStyle=1;strokeColor=#ff0000;dashed=1;dashPattern=1 2;startArrow=classicThin;startFill=1;" parent="1" source="vtVFkfu3P3o5CMaK1P3m-107" target="vtVFkfu3P3o5CMaK1P3m-103" edge="1">
          <mxGeometry relative="1" as="geometry" />
        </mxCell>
        <mxCell id="vtVFkfu3P3o5CMaK1P3m-107" value="0" style="rounded=0;whiteSpace=wrap;html=1;fontStyle=1" parent="1" vertex="1">
          <mxGeometry x="55" y="-715" width="40" height="18" as="geometry" />
        </mxCell>
        <mxCell id="vtVFkfu3P3o5CMaK1P3m-108" value="0" style="ellipse;whiteSpace=wrap;html=1;aspect=fixed;fillColor=#000000;verticalAlign=top;fontStyle=1" parent="1" vertex="1">
          <mxGeometry x="55" y="-658" width="5" height="5" as="geometry" />
        </mxCell>
        <mxCell id="vtVFkfu3P3o5CMaK1P3m-109" value="1" style="ellipse;whiteSpace=wrap;html=1;aspect=fixed;fillColor=#000000;verticalAlign=top;fontStyle=1" parent="1" vertex="1">
          <mxGeometry x="90" y="-658" width="5" height="5" as="geometry" />
        </mxCell>
        <mxCell id="vtVFkfu3P3o5CMaK1P3m-110" style="rounded=0;orthogonalLoop=1;jettySize=auto;html=1;exitX=0.25;exitY=1;exitDx=0;exitDy=0;entryX=0.5;entryY=0;entryDx=0;entryDy=0;endArrow=classicThin;endFill=1;fontStyle=1;dashed=1;dashPattern=1 2;strokeColor=#ff0000;" parent="1" source="vtVFkfu3P3o5CMaK1P3m-112" target="vtVFkfu3P3o5CMaK1P3m-113" edge="1">
          <mxGeometry relative="1" as="geometry" />
        </mxCell>
        <mxCell id="vtVFkfu3P3o5CMaK1P3m-111" style="rounded=0;orthogonalLoop=1;jettySize=auto;html=1;exitX=0.75;exitY=1;exitDx=0;exitDy=0;entryX=0.5;entryY=0;entryDx=0;entryDy=0;endArrow=classicThin;endFill=1;fontStyle=1;dashed=1;dashPattern=1 2;strokeColor=#ff0000;" parent="1" source="vtVFkfu3P3o5CMaK1P3m-112" target="vtVFkfu3P3o5CMaK1P3m-114" edge="1">
          <mxGeometry relative="1" as="geometry" />
        </mxCell>
        <mxCell id="vtVFkfu3P3o5CMaK1P3m-112" value="1" style="rounded=0;whiteSpace=wrap;html=1;fontStyle=1" parent="1" vertex="1">
          <mxGeometry x="115" y="-715" width="40" height="18" as="geometry" />
        </mxCell>
        <mxCell id="vtVFkfu3P3o5CMaK1P3m-113" value="2" style="ellipse;whiteSpace=wrap;html=1;aspect=fixed;fillColor=#000000;verticalAlign=top;fontStyle=1" parent="1" vertex="1">
          <mxGeometry x="115" y="-658" width="5" height="5" as="geometry" />
        </mxCell>
        <mxCell id="vtVFkfu3P3o5CMaK1P3m-114" value="3" style="ellipse;whiteSpace=wrap;html=1;aspect=fixed;fillColor=#000000;verticalAlign=top;fontStyle=1" parent="1" vertex="1">
          <mxGeometry x="150" y="-658" width="5" height="5" as="geometry" />
        </mxCell>
        <mxCell id="vtVFkfu3P3o5CMaK1P3m-115" style="rounded=0;orthogonalLoop=1;jettySize=auto;html=1;exitX=0.25;exitY=0;exitDx=0;exitDy=0;entryX=0.75;entryY=1;entryDx=0;entryDy=0;endArrow=none;endFill=0;fontStyle=1;dashed=1;dashPattern=1 2;strokeColor=#ff0000;startArrow=classicThin;startFill=1;" parent="1" source="vtVFkfu3P3o5CMaK1P3m-112" target="vtVFkfu3P3o5CMaK1P3m-102" edge="1">
          <mxGeometry relative="1" as="geometry">
            <mxPoint x="95" y="-705" as="sourcePoint" />
            <mxPoint x="135" y="-737" as="targetPoint" />
          </mxGeometry>
        </mxCell>
        <mxCell id="vtVFkfu3P3o5CMaK1P3m-116" style="rounded=0;orthogonalLoop=1;jettySize=auto;html=1;exitX=0.75;exitY=1;exitDx=0;exitDy=0;entryX=0.75;entryY=0;entryDx=0;entryDy=0;endArrow=classicThin;endFill=1;fontStyle=1;strokeColor=#ff0000;dashed=1;dashPattern=1 2;" parent="1" source="vtVFkfu3P3o5CMaK1P3m-103" target="vtVFkfu3P3o5CMaK1P3m-112" edge="1">
          <mxGeometry relative="1" as="geometry">
            <mxPoint x="75" y="-737" as="sourcePoint" />
            <mxPoint x="75" y="-705" as="targetPoint" />
          </mxGeometry>
        </mxCell>
        <mxCell id="vtVFkfu3P3o5CMaK1P3m-117" style="rounded=0;orthogonalLoop=1;jettySize=auto;html=1;exitX=0.25;exitY=1;exitDx=0;exitDy=0;entryX=0.25;entryY=0;entryDx=0;entryDy=0;endArrow=classicThin;endFill=1;fontStyle=1;strokeColor=#0000ff;dashed=1;dashPattern=1 2;" parent="1" source="vtVFkfu3P3o5CMaK1P3m-118" target="vtVFkfu3P3o5CMaK1P3m-123" edge="1">
          <mxGeometry relative="1" as="geometry" />
        </mxCell>
        <mxCell id="vtVFkfu3P3o5CMaK1P3m-118" value="2" style="rounded=0;whiteSpace=wrap;html=1;fontStyle=1" parent="1" vertex="1">
          <mxGeometry x="175" y="-765" width="40" height="18" as="geometry" />
        </mxCell>
        <mxCell id="vtVFkfu3P3o5CMaK1P3m-119" value="3" style="rounded=0;whiteSpace=wrap;html=1;fontStyle=1" parent="1" vertex="1">
          <mxGeometry x="235" y="-765" width="40" height="18" as="geometry" />
        </mxCell>
        <mxCell id="vtVFkfu3P3o5CMaK1P3m-120" style="rounded=0;orthogonalLoop=1;jettySize=auto;html=1;exitX=0.25;exitY=1;exitDx=0;exitDy=0;entryX=0.5;entryY=0;entryDx=0;entryDy=0;endArrow=classicThin;endFill=1;fontStyle=1;strokeColor=#0000ff;dashed=1;dashPattern=1 2;" parent="1" source="vtVFkfu3P3o5CMaK1P3m-123" target="vtVFkfu3P3o5CMaK1P3m-124" edge="1">
          <mxGeometry relative="1" as="geometry" />
        </mxCell>
        <mxCell id="vtVFkfu3P3o5CMaK1P3m-121" style="rounded=0;orthogonalLoop=1;jettySize=auto;html=1;exitX=0.75;exitY=1;exitDx=0;exitDy=0;entryX=0.5;entryY=0;entryDx=0;entryDy=0;endArrow=classicThin;endFill=1;fontStyle=1;strokeColor=#0000ff;dashed=1;dashPattern=1 2;" parent="1" source="vtVFkfu3P3o5CMaK1P3m-123" target="vtVFkfu3P3o5CMaK1P3m-125" edge="1">
          <mxGeometry relative="1" as="geometry" />
        </mxCell>
        <mxCell id="vtVFkfu3P3o5CMaK1P3m-122" style="rounded=0;orthogonalLoop=1;jettySize=auto;html=1;exitX=0.75;exitY=0;exitDx=0;exitDy=0;entryX=0.25;entryY=1;entryDx=0;entryDy=0;endArrow=none;endFill=0;fontStyle=1;strokeColor=#0000ff;dashed=1;dashPattern=1 2;startArrow=classicThin;startFill=1;" parent="1" source="vtVFkfu3P3o5CMaK1P3m-123" target="vtVFkfu3P3o5CMaK1P3m-119" edge="1">
          <mxGeometry relative="1" as="geometry" />
        </mxCell>
        <mxCell id="vtVFkfu3P3o5CMaK1P3m-123" value="2" style="rounded=0;whiteSpace=wrap;html=1;fontStyle=1" parent="1" vertex="1">
          <mxGeometry x="175" y="-715" width="40" height="18" as="geometry" />
        </mxCell>
        <mxCell id="vtVFkfu3P3o5CMaK1P3m-124" value="4" style="ellipse;whiteSpace=wrap;html=1;aspect=fixed;fillColor=#000000;verticalAlign=top;fontStyle=1" parent="1" vertex="1">
          <mxGeometry x="175" y="-658" width="5" height="5" as="geometry" />
        </mxCell>
        <mxCell id="vtVFkfu3P3o5CMaK1P3m-125" value="5" style="ellipse;whiteSpace=wrap;html=1;aspect=fixed;fillColor=#000000;verticalAlign=top;fontStyle=1" parent="1" vertex="1">
          <mxGeometry x="210" y="-658" width="5" height="5" as="geometry" />
        </mxCell>
        <mxCell id="vtVFkfu3P3o5CMaK1P3m-126" style="rounded=0;orthogonalLoop=1;jettySize=auto;html=1;exitX=0.25;exitY=1;exitDx=0;exitDy=0;entryX=0.5;entryY=0;entryDx=0;entryDy=0;endArrow=classicThin;endFill=1;fontStyle=1;strokeColor=#0000ff;dashed=1;dashPattern=1 2;" parent="1" source="vtVFkfu3P3o5CMaK1P3m-128" target="vtVFkfu3P3o5CMaK1P3m-129" edge="1">
          <mxGeometry relative="1" as="geometry" />
        </mxCell>
        <mxCell id="vtVFkfu3P3o5CMaK1P3m-127" style="rounded=0;orthogonalLoop=1;jettySize=auto;html=1;exitX=0.75;exitY=1;exitDx=0;exitDy=0;entryX=0.5;entryY=0;entryDx=0;entryDy=0;endArrow=classicThin;endFill=1;fontStyle=1;strokeColor=#0000ff;dashed=1;dashPattern=1 2;" parent="1" source="vtVFkfu3P3o5CMaK1P3m-128" target="vtVFkfu3P3o5CMaK1P3m-130" edge="1">
          <mxGeometry relative="1" as="geometry" />
        </mxCell>
        <mxCell id="vtVFkfu3P3o5CMaK1P3m-128" value="3" style="rounded=0;whiteSpace=wrap;html=1;fontStyle=1" parent="1" vertex="1">
          <mxGeometry x="235" y="-715" width="40" height="18" as="geometry" />
        </mxCell>
        <mxCell id="vtVFkfu3P3o5CMaK1P3m-129" value="6" style="ellipse;whiteSpace=wrap;html=1;aspect=fixed;fillColor=#000000;verticalAlign=top;fontStyle=1" parent="1" vertex="1">
          <mxGeometry x="235" y="-658" width="5" height="5" as="geometry" />
        </mxCell>
        <mxCell id="vtVFkfu3P3o5CMaK1P3m-130" value="7" style="ellipse;whiteSpace=wrap;html=1;aspect=fixed;fillColor=#000000;verticalAlign=top;fontStyle=1" parent="1" vertex="1">
          <mxGeometry x="270" y="-658" width="5" height="5" as="geometry" />
        </mxCell>
        <mxCell id="vtVFkfu3P3o5CMaK1P3m-131" style="rounded=0;orthogonalLoop=1;jettySize=auto;html=1;exitX=0.25;exitY=0;exitDx=0;exitDy=0;entryX=0.75;entryY=1;entryDx=0;entryDy=0;endArrow=none;endFill=0;fontStyle=1;strokeColor=#0000ff;dashed=1;dashPattern=1 2;startArrow=classicThin;startFill=1;" parent="1" source="vtVFkfu3P3o5CMaK1P3m-128" target="vtVFkfu3P3o5CMaK1P3m-118" edge="1">
          <mxGeometry relative="1" as="geometry">
            <mxPoint x="215" y="-705" as="sourcePoint" />
            <mxPoint x="255" y="-737" as="targetPoint" />
          </mxGeometry>
        </mxCell>
        <mxCell id="vtVFkfu3P3o5CMaK1P3m-132" style="rounded=0;orthogonalLoop=1;jettySize=auto;html=1;exitX=0.75;exitY=1;exitDx=0;exitDy=0;entryX=0.75;entryY=0;entryDx=0;entryDy=0;endArrow=classicThin;endFill=1;fontStyle=1;strokeColor=#0000ff;dashed=1;dashPattern=1 2;" parent="1" source="vtVFkfu3P3o5CMaK1P3m-119" target="vtVFkfu3P3o5CMaK1P3m-128" edge="1">
          <mxGeometry relative="1" as="geometry">
            <mxPoint x="195" y="-737" as="sourcePoint" />
            <mxPoint x="195" y="-705" as="targetPoint" />
          </mxGeometry>
        </mxCell>
        <mxCell id="vtVFkfu3P3o5CMaK1P3m-133" style="rounded=0;orthogonalLoop=1;jettySize=auto;html=1;exitX=0.25;exitY=1;exitDx=0;exitDy=0;entryX=0.25;entryY=0;entryDx=0;entryDy=0;endArrow=classicThin;endFill=1;fontStyle=1;dashed=1;dashPattern=1 2;strokeColor=#039900;" parent="1" source="vtVFkfu3P3o5CMaK1P3m-134" target="vtVFkfu3P3o5CMaK1P3m-139" edge="1">
          <mxGeometry relative="1" as="geometry" />
        </mxCell>
        <mxCell id="vtVFkfu3P3o5CMaK1P3m-134" value="4" style="rounded=0;whiteSpace=wrap;html=1;fontStyle=1" parent="1" vertex="1">
          <mxGeometry x="295" y="-765" width="40" height="18" as="geometry" />
        </mxCell>
        <mxCell id="vtVFkfu3P3o5CMaK1P3m-135" value="5" style="rounded=0;whiteSpace=wrap;html=1;fontStyle=1" parent="1" vertex="1">
          <mxGeometry x="355" y="-765" width="40" height="18" as="geometry" />
        </mxCell>
        <mxCell id="vtVFkfu3P3o5CMaK1P3m-136" style="rounded=0;orthogonalLoop=1;jettySize=auto;html=1;exitX=0.25;exitY=1;exitDx=0;exitDy=0;entryX=0.5;entryY=0;entryDx=0;entryDy=0;endArrow=classicThin;endFill=1;fontStyle=1;dashed=1;dashPattern=1 2;strokeColor=#039900;" parent="1" source="vtVFkfu3P3o5CMaK1P3m-139" target="vtVFkfu3P3o5CMaK1P3m-140" edge="1">
          <mxGeometry relative="1" as="geometry" />
        </mxCell>
        <mxCell id="vtVFkfu3P3o5CMaK1P3m-137" style="rounded=0;orthogonalLoop=1;jettySize=auto;html=1;exitX=0.75;exitY=1;exitDx=0;exitDy=0;entryX=0.5;entryY=0;entryDx=0;entryDy=0;endArrow=classicThin;endFill=1;fontStyle=1;dashed=1;dashPattern=1 2;strokeColor=#039900;" parent="1" source="vtVFkfu3P3o5CMaK1P3m-139" target="vtVFkfu3P3o5CMaK1P3m-141" edge="1">
          <mxGeometry relative="1" as="geometry" />
        </mxCell>
        <mxCell id="vtVFkfu3P3o5CMaK1P3m-138" style="rounded=0;orthogonalLoop=1;jettySize=auto;html=1;exitX=0.75;exitY=0;exitDx=0;exitDy=0;entryX=0.25;entryY=1;entryDx=0;entryDy=0;endArrow=none;endFill=0;fontStyle=1;dashed=1;dashPattern=1 2;strokeColor=#039900;startArrow=classicThin;startFill=1;" parent="1" source="vtVFkfu3P3o5CMaK1P3m-139" target="vtVFkfu3P3o5CMaK1P3m-135" edge="1">
          <mxGeometry relative="1" as="geometry" />
        </mxCell>
        <mxCell id="vtVFkfu3P3o5CMaK1P3m-139" value="4" style="rounded=0;whiteSpace=wrap;html=1;fontStyle=1" parent="1" vertex="1">
          <mxGeometry x="295" y="-715" width="40" height="18" as="geometry" />
        </mxCell>
        <mxCell id="vtVFkfu3P3o5CMaK1P3m-140" value="8" style="ellipse;whiteSpace=wrap;html=1;aspect=fixed;fillColor=#000000;verticalAlign=top;fontStyle=1" parent="1" vertex="1">
          <mxGeometry x="295" y="-658" width="5" height="5" as="geometry" />
        </mxCell>
        <mxCell id="vtVFkfu3P3o5CMaK1P3m-141" value="9" style="ellipse;whiteSpace=wrap;html=1;aspect=fixed;fillColor=#000000;verticalAlign=top;fontStyle=1" parent="1" vertex="1">
          <mxGeometry x="330" y="-658" width="5" height="5" as="geometry" />
        </mxCell>
        <mxCell id="vtVFkfu3P3o5CMaK1P3m-142" style="rounded=0;orthogonalLoop=1;jettySize=auto;html=1;exitX=0.25;exitY=1;exitDx=0;exitDy=0;entryX=0.5;entryY=0;entryDx=0;entryDy=0;endArrow=classicThin;endFill=1;fontStyle=1;dashed=1;dashPattern=1 2;strokeColor=#039900;" parent="1" source="vtVFkfu3P3o5CMaK1P3m-144" target="vtVFkfu3P3o5CMaK1P3m-145" edge="1">
          <mxGeometry relative="1" as="geometry" />
        </mxCell>
        <mxCell id="vtVFkfu3P3o5CMaK1P3m-143" style="rounded=0;orthogonalLoop=1;jettySize=auto;html=1;exitX=0.75;exitY=1;exitDx=0;exitDy=0;entryX=0.5;entryY=0;entryDx=0;entryDy=0;endArrow=classicThin;endFill=1;fontStyle=1;dashed=1;dashPattern=1 2;strokeColor=#039900;" parent="1" source="vtVFkfu3P3o5CMaK1P3m-144" target="vtVFkfu3P3o5CMaK1P3m-146" edge="1">
          <mxGeometry relative="1" as="geometry" />
        </mxCell>
        <mxCell id="vtVFkfu3P3o5CMaK1P3m-144" value="5" style="rounded=0;whiteSpace=wrap;html=1;fontStyle=1" parent="1" vertex="1">
          <mxGeometry x="355" y="-715" width="40" height="18" as="geometry" />
        </mxCell>
        <mxCell id="vtVFkfu3P3o5CMaK1P3m-145" value="10" style="ellipse;whiteSpace=wrap;html=1;aspect=fixed;fillColor=#000000;verticalAlign=top;fontStyle=1" parent="1" vertex="1">
          <mxGeometry x="355" y="-658" width="5" height="5" as="geometry" />
        </mxCell>
        <mxCell id="vtVFkfu3P3o5CMaK1P3m-146" value="11" style="ellipse;whiteSpace=wrap;html=1;aspect=fixed;fillColor=#000000;verticalAlign=top;fontStyle=1" parent="1" vertex="1">
          <mxGeometry x="390" y="-658" width="5" height="5" as="geometry" />
        </mxCell>
        <mxCell id="vtVFkfu3P3o5CMaK1P3m-147" style="rounded=0;orthogonalLoop=1;jettySize=auto;html=1;exitX=0.25;exitY=0;exitDx=0;exitDy=0;entryX=0.75;entryY=1;entryDx=0;entryDy=0;endArrow=none;endFill=0;fontStyle=1;dashed=1;dashPattern=1 2;strokeColor=#039900;startArrow=classicThin;startFill=1;" parent="1" source="vtVFkfu3P3o5CMaK1P3m-144" target="vtVFkfu3P3o5CMaK1P3m-134" edge="1">
          <mxGeometry relative="1" as="geometry">
            <mxPoint x="335" y="-705" as="sourcePoint" />
            <mxPoint x="375" y="-737" as="targetPoint" />
          </mxGeometry>
        </mxCell>
        <mxCell id="vtVFkfu3P3o5CMaK1P3m-148" style="rounded=0;orthogonalLoop=1;jettySize=auto;html=1;exitX=0.75;exitY=1;exitDx=0;exitDy=0;entryX=0.75;entryY=0;entryDx=0;entryDy=0;endArrow=classicThin;endFill=1;fontStyle=1;dashed=1;dashPattern=1 2;strokeColor=#039900;" parent="1" source="vtVFkfu3P3o5CMaK1P3m-135" target="vtVFkfu3P3o5CMaK1P3m-144" edge="1">
          <mxGeometry relative="1" as="geometry">
            <mxPoint x="315" y="-737" as="sourcePoint" />
            <mxPoint x="315" y="-705" as="targetPoint" />
          </mxGeometry>
        </mxCell>
        <mxCell id="vtVFkfu3P3o5CMaK1P3m-149" style="rounded=0;orthogonalLoop=1;jettySize=auto;html=1;exitX=0.25;exitY=1;exitDx=0;exitDy=0;entryX=0.25;entryY=0;entryDx=0;entryDy=0;endArrow=classicThin;endFill=1;fontStyle=1;dashed=1;dashPattern=1 2;strokeColor=#ff00ea;" parent="1" source="vtVFkfu3P3o5CMaK1P3m-150" target="vtVFkfu3P3o5CMaK1P3m-155" edge="1">
          <mxGeometry relative="1" as="geometry" />
        </mxCell>
        <mxCell id="vtVFkfu3P3o5CMaK1P3m-150" value="6" style="rounded=0;whiteSpace=wrap;html=1;fontStyle=1" parent="1" vertex="1">
          <mxGeometry x="415" y="-765" width="40" height="18" as="geometry" />
        </mxCell>
        <mxCell id="vtVFkfu3P3o5CMaK1P3m-151" value="7" style="rounded=0;whiteSpace=wrap;html=1;fontStyle=1" parent="1" vertex="1">
          <mxGeometry x="475" y="-765" width="40" height="18" as="geometry" />
        </mxCell>
        <mxCell id="vtVFkfu3P3o5CMaK1P3m-152" style="rounded=0;orthogonalLoop=1;jettySize=auto;html=1;exitX=0.25;exitY=1;exitDx=0;exitDy=0;entryX=0.5;entryY=0;entryDx=0;entryDy=0;endArrow=classicThin;endFill=1;fontStyle=1;dashed=1;dashPattern=1 2;strokeColor=#ff00ea;" parent="1" source="vtVFkfu3P3o5CMaK1P3m-155" target="vtVFkfu3P3o5CMaK1P3m-156" edge="1">
          <mxGeometry relative="1" as="geometry" />
        </mxCell>
        <mxCell id="vtVFkfu3P3o5CMaK1P3m-153" style="rounded=0;orthogonalLoop=1;jettySize=auto;html=1;exitX=0.75;exitY=1;exitDx=0;exitDy=0;entryX=0.5;entryY=0;entryDx=0;entryDy=0;endArrow=classicThin;endFill=1;fontStyle=1;dashed=1;dashPattern=1 2;strokeColor=#ff00ea;" parent="1" source="vtVFkfu3P3o5CMaK1P3m-155" target="vtVFkfu3P3o5CMaK1P3m-157" edge="1">
          <mxGeometry relative="1" as="geometry" />
        </mxCell>
        <mxCell id="vtVFkfu3P3o5CMaK1P3m-154" style="rounded=0;orthogonalLoop=1;jettySize=auto;html=1;exitX=0.75;exitY=0;exitDx=0;exitDy=0;entryX=0.25;entryY=1;entryDx=0;entryDy=0;endArrow=none;endFill=0;fontStyle=1;dashed=1;dashPattern=1 2;strokeColor=#ff00ea;startArrow=classicThin;startFill=1;" parent="1" source="vtVFkfu3P3o5CMaK1P3m-155" target="vtVFkfu3P3o5CMaK1P3m-151" edge="1">
          <mxGeometry relative="1" as="geometry" />
        </mxCell>
        <mxCell id="vtVFkfu3P3o5CMaK1P3m-155" value="6" style="rounded=0;whiteSpace=wrap;html=1;fontStyle=1" parent="1" vertex="1">
          <mxGeometry x="415" y="-715" width="40" height="18" as="geometry" />
        </mxCell>
        <mxCell id="vtVFkfu3P3o5CMaK1P3m-156" value="12" style="ellipse;whiteSpace=wrap;html=1;aspect=fixed;fillColor=#000000;verticalAlign=top;fontStyle=1" parent="1" vertex="1">
          <mxGeometry x="415" y="-658" width="5" height="5" as="geometry" />
        </mxCell>
        <mxCell id="vtVFkfu3P3o5CMaK1P3m-157" value="13" style="ellipse;whiteSpace=wrap;html=1;aspect=fixed;fillColor=#000000;verticalAlign=top;fontStyle=1" parent="1" vertex="1">
          <mxGeometry x="450" y="-658" width="5" height="5" as="geometry" />
        </mxCell>
        <mxCell id="vtVFkfu3P3o5CMaK1P3m-158" style="rounded=0;orthogonalLoop=1;jettySize=auto;html=1;exitX=0.25;exitY=1;exitDx=0;exitDy=0;entryX=0.5;entryY=0;entryDx=0;entryDy=0;endArrow=classicThin;endFill=1;fontStyle=1;dashed=1;dashPattern=1 2;strokeColor=#ff00ea;" parent="1" source="vtVFkfu3P3o5CMaK1P3m-160" target="vtVFkfu3P3o5CMaK1P3m-161" edge="1">
          <mxGeometry relative="1" as="geometry" />
        </mxCell>
        <mxCell id="vtVFkfu3P3o5CMaK1P3m-159" style="rounded=0;orthogonalLoop=1;jettySize=auto;html=1;exitX=0.75;exitY=1;exitDx=0;exitDy=0;entryX=0.5;entryY=0;entryDx=0;entryDy=0;endArrow=classicThin;endFill=1;fontStyle=1;dashed=1;dashPattern=1 2;strokeColor=#ff00ea;" parent="1" source="vtVFkfu3P3o5CMaK1P3m-160" target="vtVFkfu3P3o5CMaK1P3m-162" edge="1">
          <mxGeometry relative="1" as="geometry" />
        </mxCell>
        <mxCell id="vtVFkfu3P3o5CMaK1P3m-160" value="7" style="rounded=0;whiteSpace=wrap;html=1;fontStyle=1" parent="1" vertex="1">
          <mxGeometry x="475" y="-715" width="40" height="18" as="geometry" />
        </mxCell>
        <mxCell id="vtVFkfu3P3o5CMaK1P3m-161" value="14" style="ellipse;whiteSpace=wrap;html=1;aspect=fixed;fillColor=#000000;verticalAlign=top;fontStyle=1" parent="1" vertex="1">
          <mxGeometry x="475" y="-658" width="5" height="5" as="geometry" />
        </mxCell>
        <mxCell id="vtVFkfu3P3o5CMaK1P3m-162" value="15" style="ellipse;whiteSpace=wrap;html=1;aspect=fixed;fillColor=#000000;verticalAlign=top;fontStyle=1" parent="1" vertex="1">
          <mxGeometry x="510" y="-658" width="5" height="5" as="geometry" />
        </mxCell>
        <mxCell id="vtVFkfu3P3o5CMaK1P3m-163" style="rounded=0;orthogonalLoop=1;jettySize=auto;html=1;exitX=0.25;exitY=0;exitDx=0;exitDy=0;entryX=0.75;entryY=1;entryDx=0;entryDy=0;endArrow=none;endFill=0;fontStyle=1;dashed=1;dashPattern=1 2;strokeColor=#ff00ea;startArrow=classicThin;startFill=1;" parent="1" source="vtVFkfu3P3o5CMaK1P3m-160" target="vtVFkfu3P3o5CMaK1P3m-150" edge="1">
          <mxGeometry relative="1" as="geometry">
            <mxPoint x="455" y="-705" as="sourcePoint" />
            <mxPoint x="495" y="-737" as="targetPoint" />
          </mxGeometry>
        </mxCell>
        <mxCell id="vtVFkfu3P3o5CMaK1P3m-164" style="rounded=0;orthogonalLoop=1;jettySize=auto;html=1;exitX=0.75;exitY=1;exitDx=0;exitDy=0;entryX=0.75;entryY=0;entryDx=0;entryDy=0;endArrow=classicThin;endFill=1;fontStyle=1;dashed=1;dashPattern=1 2;strokeColor=#ff00ea;" parent="1" source="vtVFkfu3P3o5CMaK1P3m-151" target="vtVFkfu3P3o5CMaK1P3m-160" edge="1">
          <mxGeometry relative="1" as="geometry">
            <mxPoint x="435" y="-737" as="sourcePoint" />
            <mxPoint x="435" y="-705" as="targetPoint" />
          </mxGeometry>
        </mxCell>
        <mxCell id="vtVFkfu3P3o5CMaK1P3m-165" style="rounded=0;orthogonalLoop=1;jettySize=auto;html=1;exitX=0.25;exitY=0;exitDx=0;exitDy=0;entryX=0;entryY=1;entryDx=0;entryDy=0;endArrow=none;endFill=0;fontStyle=1;dashed=1;dashPattern=1 2;strokeColor=#ff0000;startArrow=classicThin;startFill=1;" parent="1" source="vtVFkfu3P3o5CMaK1P3m-102" target="vtVFkfu3P3o5CMaK1P3m-96" edge="1">
          <mxGeometry relative="1" as="geometry">
            <mxPoint x="135" y="-705" as="sourcePoint" />
            <mxPoint x="95" y="-737" as="targetPoint" />
          </mxGeometry>
        </mxCell>
        <mxCell id="vtVFkfu3P3o5CMaK1P3m-166" style="rounded=0;orthogonalLoop=1;jettySize=auto;html=1;exitX=0.25;exitY=0;exitDx=0;exitDy=0;entryX=0.25;entryY=1;entryDx=0;entryDy=0;endArrow=none;endFill=0;fontStyle=1;strokeColor=#0000ff;dashed=1;dashPattern=1 2;startArrow=classicThin;startFill=1;" parent="1" source="vtVFkfu3P3o5CMaK1P3m-118" target="vtVFkfu3P3o5CMaK1P3m-96" edge="1">
          <mxGeometry relative="1" as="geometry">
            <mxPoint x="145" y="-695" as="sourcePoint" />
            <mxPoint x="105" y="-727" as="targetPoint" />
          </mxGeometry>
        </mxCell>
        <mxCell id="vtVFkfu3P3o5CMaK1P3m-167" style="rounded=0;orthogonalLoop=1;jettySize=auto;html=1;exitX=0.75;exitY=1;exitDx=0;exitDy=0;entryX=0.25;entryY=0;entryDx=0;entryDy=0;endArrow=classicThin;endFill=1;fontStyle=1;dashed=1;dashPattern=1 2;strokeColor=#039900;" parent="1" source="vtVFkfu3P3o5CMaK1P3m-96" target="vtVFkfu3P3o5CMaK1P3m-134" edge="1">
          <mxGeometry relative="1" as="geometry">
            <mxPoint x="155" y="-685" as="sourcePoint" />
            <mxPoint x="115" y="-717" as="targetPoint" />
          </mxGeometry>
        </mxCell>
        <mxCell id="vtVFkfu3P3o5CMaK1P3m-168" style="rounded=0;orthogonalLoop=1;jettySize=auto;html=1;exitX=1;exitY=1;exitDx=0;exitDy=0;entryX=0.25;entryY=0;entryDx=0;entryDy=0;endArrow=classicThin;endFill=1;fontStyle=1;dashed=1;dashPattern=1 2;strokeColor=#ff00ea;" parent="1" source="vtVFkfu3P3o5CMaK1P3m-96" target="vtVFkfu3P3o5CMaK1P3m-150" edge="1">
          <mxGeometry relative="1" as="geometry">
            <mxPoint x="215" y="-787" as="sourcePoint" />
            <mxPoint x="315" y="-755" as="targetPoint" />
          </mxGeometry>
        </mxCell>
        <mxCell id="vtVFkfu3P3o5CMaK1P3m-169" style="rounded=0;orthogonalLoop=1;jettySize=auto;html=1;exitX=0.75;exitY=0;exitDx=0;exitDy=0;entryX=0.25;entryY=1;entryDx=0;entryDy=0;endArrow=none;endFill=0;fontStyle=1;strokeColor=#0000ff;dashed=1;dashPattern=1 2;startArrow=classicThin;startFill=1;" parent="1" source="vtVFkfu3P3o5CMaK1P3m-118" target="vtVFkfu3P3o5CMaK1P3m-97" edge="1">
          <mxGeometry relative="1" as="geometry">
            <mxPoint x="250" y="-765" as="sourcePoint" />
            <mxPoint x="250" y="-797" as="targetPoint" />
          </mxGeometry>
        </mxCell>
        <mxCell id="vtVFkfu3P3o5CMaK1P3m-170" style="rounded=0;orthogonalLoop=1;jettySize=auto;html=1;exitX=0.75;exitY=1;exitDx=0;exitDy=0;entryX=0.75;entryY=0;entryDx=0;entryDy=0;endArrow=classicThin;endFill=1;fontStyle=1;dashed=1;dashPattern=1 2;strokeColor=#039900;" parent="1" source="vtVFkfu3P3o5CMaK1P3m-97" target="vtVFkfu3P3o5CMaK1P3m-134" edge="1">
          <mxGeometry relative="1" as="geometry">
            <mxPoint x="270" y="-797" as="sourcePoint" />
            <mxPoint x="370" y="-765" as="targetPoint" />
          </mxGeometry>
        </mxCell>
        <mxCell id="vtVFkfu3P3o5CMaK1P3m-171" style="rounded=0;orthogonalLoop=1;jettySize=auto;html=1;exitX=1;exitY=1;exitDx=0;exitDy=0;entryX=0.75;entryY=0;entryDx=0;entryDy=0;endArrow=classicThin;endFill=1;fontStyle=1;dashed=1;dashPattern=1 2;strokeColor=#ff00ea;" parent="1" source="vtVFkfu3P3o5CMaK1P3m-97" target="vtVFkfu3P3o5CMaK1P3m-150" edge="1">
          <mxGeometry relative="1" as="geometry">
            <mxPoint x="280" y="-797" as="sourcePoint" />
            <mxPoint x="490" y="-765" as="targetPoint" />
          </mxGeometry>
        </mxCell>
        <mxCell id="vtVFkfu3P3o5CMaK1P3m-172" style="rounded=0;orthogonalLoop=1;jettySize=auto;html=1;exitX=0.75;exitY=0;exitDx=0;exitDy=0;endArrow=none;endFill=0;entryX=0;entryY=1;entryDx=0;entryDy=0;fontStyle=1;strokeColor=#ff0000;dashed=1;dashPattern=1 2;startArrow=classicThin;startFill=1;" parent="1" source="vtVFkfu3P3o5CMaK1P3m-102" target="vtVFkfu3P3o5CMaK1P3m-97" edge="1">
          <mxGeometry relative="1" as="geometry">
            <mxPoint x="205" y="-765" as="sourcePoint" />
            <mxPoint x="296" y="-827" as="targetPoint" />
          </mxGeometry>
        </mxCell>
        <mxCell id="vtVFkfu3P3o5CMaK1P3m-173" style="rounded=0;orthogonalLoop=1;jettySize=auto;html=1;exitX=0.25;exitY=0;exitDx=0;exitDy=0;entryX=0.25;entryY=1;entryDx=0;entryDy=0;endArrow=none;endFill=0;fontStyle=1;strokeColor=#0000ff;dashed=1;dashPattern=1 2;startArrow=classicThin;startFill=1;" parent="1" source="vtVFkfu3P3o5CMaK1P3m-119" target="vtVFkfu3P3o5CMaK1P3m-99" edge="1">
          <mxGeometry relative="1" as="geometry">
            <mxPoint x="305" y="-765" as="sourcePoint" />
            <mxPoint x="305" y="-827" as="targetPoint" />
          </mxGeometry>
        </mxCell>
        <mxCell id="vtVFkfu3P3o5CMaK1P3m-174" style="rounded=0;orthogonalLoop=1;jettySize=auto;html=1;exitX=0.75;exitY=1;exitDx=0;exitDy=0;entryX=0.25;entryY=0;entryDx=0;entryDy=0;endArrow=classicThin;endFill=1;fontStyle=1;dashed=1;dashPattern=1 2;strokeColor=#039900;" parent="1" source="vtVFkfu3P3o5CMaK1P3m-99" target="vtVFkfu3P3o5CMaK1P3m-135" edge="1">
          <mxGeometry relative="1" as="geometry">
            <mxPoint x="325" y="-827" as="sourcePoint" />
            <mxPoint x="425" y="-765" as="targetPoint" />
          </mxGeometry>
        </mxCell>
        <mxCell id="vtVFkfu3P3o5CMaK1P3m-175" style="rounded=0;orthogonalLoop=1;jettySize=auto;html=1;entryX=0.25;entryY=0;entryDx=0;entryDy=0;endArrow=classicThin;endFill=1;exitX=1;exitY=1;exitDx=0;exitDy=0;fontStyle=1;dashed=1;dashPattern=1 2;strokeColor=#ff00ea;" parent="1" source="vtVFkfu3P3o5CMaK1P3m-99" target="vtVFkfu3P3o5CMaK1P3m-151" edge="1">
          <mxGeometry relative="1" as="geometry">
            <mxPoint x="345" y="-825" as="sourcePoint" />
            <mxPoint x="535" y="-765" as="targetPoint" />
          </mxGeometry>
        </mxCell>
        <mxCell id="vtVFkfu3P3o5CMaK1P3m-176" style="rounded=0;orthogonalLoop=1;jettySize=auto;html=1;exitX=0.75;exitY=0;exitDx=0;exitDy=0;entryX=0;entryY=1;entryDx=0;entryDy=0;endArrow=none;endFill=0;fontStyle=1;strokeColor=#ff0000;dashed=1;dashPattern=1 2;startArrow=classicThin;startFill=1;" parent="1" source="vtVFkfu3P3o5CMaK1P3m-103" target="vtVFkfu3P3o5CMaK1P3m-100" edge="1">
          <mxGeometry relative="1" as="geometry">
            <mxPoint x="75" y="-755" as="sourcePoint" />
            <mxPoint x="185" y="-837" as="targetPoint" />
          </mxGeometry>
        </mxCell>
        <mxCell id="vtVFkfu3P3o5CMaK1P3m-177" style="rounded=0;orthogonalLoop=1;jettySize=auto;html=1;exitX=0.75;exitY=0;exitDx=0;exitDy=0;entryX=0.25;entryY=1;entryDx=0;entryDy=0;endArrow=none;endFill=0;fontStyle=1;strokeColor=#0000ff;dashed=1;dashPattern=1 2;startArrow=classicThin;startFill=1;" parent="1" source="vtVFkfu3P3o5CMaK1P3m-119" target="vtVFkfu3P3o5CMaK1P3m-100" edge="1">
          <mxGeometry relative="1" as="geometry">
            <mxPoint x="85" y="-745" as="sourcePoint" />
            <mxPoint x="195" y="-827" as="targetPoint" />
          </mxGeometry>
        </mxCell>
        <mxCell id="vtVFkfu3P3o5CMaK1P3m-178" style="rounded=0;orthogonalLoop=1;jettySize=auto;html=1;exitX=0.75;exitY=0;exitDx=0;exitDy=0;entryX=0.75;entryY=1;entryDx=0;entryDy=0;endArrow=none;endFill=0;fontStyle=1;dashed=1;dashPattern=1 2;strokeColor=#039900;startArrow=classicThin;startFill=1;" parent="1" source="vtVFkfu3P3o5CMaK1P3m-135" target="vtVFkfu3P3o5CMaK1P3m-100" edge="1">
          <mxGeometry relative="1" as="geometry">
            <mxPoint x="95" y="-735" as="sourcePoint" />
            <mxPoint x="205" y="-817" as="targetPoint" />
          </mxGeometry>
        </mxCell>
        <mxCell id="vtVFkfu3P3o5CMaK1P3m-179" style="rounded=0;orthogonalLoop=1;jettySize=auto;html=1;exitX=0.75;exitY=0;exitDx=0;exitDy=0;entryX=1;entryY=1;entryDx=0;entryDy=0;endArrow=none;endFill=0;fontStyle=1;dashed=1;dashPattern=1 2;strokeColor=#ff00ea;startArrow=classicThin;startFill=1;" parent="1" source="vtVFkfu3P3o5CMaK1P3m-151" target="vtVFkfu3P3o5CMaK1P3m-100" edge="1">
          <mxGeometry relative="1" as="geometry">
            <mxPoint x="105" y="-725" as="sourcePoint" />
            <mxPoint x="215" y="-807" as="targetPoint" />
          </mxGeometry>
        </mxCell>
        <mxCell id="SttFto60E0Hf1jtHZvab-18" value="" style="endArrow=none;html=1;rounded=0;fontColor=#ff0000;edgeStyle=orthogonalEdgeStyle;curved=1;dashed=1;dashPattern=1 1;startArrow=classicThin;startFill=1;endFill=0;" edge="1" parent="1">
          <mxGeometry width="50" height="50" relative="1" as="geometry">
            <mxPoint x="-553" y="-874" as="sourcePoint" />
            <mxPoint x="-315" y="-875" as="targetPoint" />
            <Array as="points">
              <mxPoint x="-553" y="-826" />
              <mxPoint x="-315" y="-826" />
            </Array>
          </mxGeometry>
        </mxCell>
        <mxCell id="SttFto60E0Hf1jtHZvab-19" value="1" style="edgeLabel;html=1;align=center;verticalAlign=middle;resizable=0;points=[];" vertex="1" connectable="0" parent="SttFto60E0Hf1jtHZvab-18">
          <mxGeometry x="-0.0559" relative="1" as="geometry">
            <mxPoint x="15" as="offset" />
          </mxGeometry>
        </mxCell>
        <mxCell id="SttFto60E0Hf1jtHZvab-24" value="" style="endArrow=none;dashed=1;html=1;dashPattern=1 3;strokeWidth=2;rounded=0;" edge="1" parent="1">
          <mxGeometry width="50" height="50" relative="1" as="geometry">
            <mxPoint x="-512" y="-865" as="sourcePoint" />
            <mxPoint x="-410" y="-865" as="targetPoint" />
          </mxGeometry>
        </mxCell>
        <mxCell id="SttFto60E0Hf1jtHZvab-25" value="" style="endArrow=none;html=1;rounded=0;fontColor=#ff0000;edgeStyle=orthogonalEdgeStyle;curved=1;dashed=1;dashPattern=1 1;strokeColor=#FF0000;startArrow=classicThin;startFill=1;endFill=0;" edge="1" parent="1">
          <mxGeometry width="50" height="50" relative="1" as="geometry">
            <mxPoint x="-674" y="-876" as="sourcePoint" />
            <mxPoint x="-553" y="-874" as="targetPoint" />
            <Array as="points">
              <mxPoint x="-674" y="-843" />
              <mxPoint x="-553" y="-843" />
            </Array>
          </mxGeometry>
        </mxCell>
        <mxCell id="SttFto60E0Hf1jtHZvab-26" value="&lt;font color=&quot;#ff0000&quot;&gt;2&lt;/font&gt;" style="edgeLabel;html=1;align=center;verticalAlign=middle;resizable=0;points=[];" vertex="1" connectable="0" parent="SttFto60E0Hf1jtHZvab-25">
          <mxGeometry x="-0.0559" relative="1" as="geometry">
            <mxPoint x="2" y="-1" as="offset" />
          </mxGeometry>
        </mxCell>
        <mxCell id="SttFto60E0Hf1jtHZvab-29" value="" style="endArrow=none;dashed=1;html=1;dashPattern=1 3;strokeWidth=2;rounded=0;strokeColor=#ff0000;" edge="1" parent="1">
          <mxGeometry width="50" height="50" relative="1" as="geometry">
            <mxPoint x="-652.5" y="-862" as="sourcePoint" />
            <mxPoint x="-602.5" y="-862" as="targetPoint" />
          </mxGeometry>
        </mxCell>
        <mxCell id="SttFto60E0Hf1jtHZvab-30" value="" style="endArrow=none;html=1;rounded=0;fontColor=#ff0000;edgeStyle=orthogonalEdgeStyle;curved=1;dashed=1;dashPattern=1 1;strokeColor=#002aff;startArrow=classicThin;startFill=1;endFill=0;" edge="1" parent="1">
          <mxGeometry width="50" height="50" relative="1" as="geometry">
            <mxPoint x="-734" y="-868" as="sourcePoint" />
            <mxPoint x="-673.5" y="-877" as="targetPoint" />
            <Array as="points">
              <mxPoint x="-734" y="-836" />
              <mxPoint x="-673" y="-836" />
            </Array>
          </mxGeometry>
        </mxCell>
        <mxCell id="SttFto60E0Hf1jtHZvab-31" value="&lt;font color=&quot;#002aff&quot;&gt;3&lt;/font&gt;" style="edgeLabel;html=1;align=center;verticalAlign=middle;resizable=0;points=[];" vertex="1" connectable="0" parent="SttFto60E0Hf1jtHZvab-30">
          <mxGeometry x="-0.0559" relative="1" as="geometry">
            <mxPoint x="1" y="-1" as="offset" />
          </mxGeometry>
        </mxCell>
        <mxCell id="SttFto60E0Hf1jtHZvab-32" value="" style="endArrow=none;html=1;rounded=0;fontColor=#ff0000;edgeStyle=orthogonalEdgeStyle;curved=1;dashed=1;dashPattern=1 1;strokeColor=#002aff;startArrow=classicThin;startFill=1;endFill=0;" edge="1" parent="1">
          <mxGeometry width="50" height="50" relative="1" as="geometry">
            <mxPoint x="-767" y="-865" as="sourcePoint" />
            <mxPoint x="-707.5" y="-878" as="targetPoint" />
            <Array as="points">
              <mxPoint x="-767" y="-839" />
              <mxPoint x="-707" y="-839" />
            </Array>
          </mxGeometry>
        </mxCell>
        <mxCell id="SttFto60E0Hf1jtHZvab-33" value="&lt;font color=&quot;#002aff&quot;&gt;3&lt;/font&gt;" style="edgeLabel;html=1;align=center;verticalAlign=middle;resizable=0;points=[];" vertex="1" connectable="0" parent="SttFto60E0Hf1jtHZvab-32">
          <mxGeometry x="-0.0559" relative="1" as="geometry">
            <mxPoint x="-13" y="-1" as="offset" />
          </mxGeometry>
        </mxCell>
        <mxCell id="SttFto60E0Hf1jtHZvab-34" value="" style="endArrow=none;html=1;rounded=0;fontColor=#ff0000;edgeStyle=orthogonalEdgeStyle;curved=1;dashed=1;dashPattern=1 1;strokeColor=#00ff00;startArrow=classicThin;startFill=1;endFill=0;" edge="1" parent="1">
          <mxGeometry width="50" height="50" relative="1" as="geometry">
            <mxPoint x="-767" y="-876" as="sourcePoint" />
            <mxPoint x="-732.48" y="-879" as="targetPoint" />
            <Array as="points">
              <mxPoint x="-767" y="-871" />
              <mxPoint x="-766" y="-871" />
              <mxPoint x="-766" y="-864" />
              <mxPoint x="-732" y="-864" />
            </Array>
          </mxGeometry>
        </mxCell>
        <mxCell id="SttFto60E0Hf1jtHZvab-35" value="&lt;font color=&quot;#00ff00&quot;&gt;4&lt;/font&gt;" style="edgeLabel;html=1;align=center;verticalAlign=middle;resizable=0;points=[];" vertex="1" connectable="0" parent="SttFto60E0Hf1jtHZvab-34">
          <mxGeometry x="-0.0559" relative="1" as="geometry">
            <mxPoint x="1" y="-1" as="offset" />
          </mxGeometry>
        </mxCell>
        <mxCell id="SttFto60E0Hf1jtHZvab-37" value="" style="endArrow=none;html=1;rounded=0;fontColor=#ff0000;edgeStyle=orthogonalEdgeStyle;curved=1;dashed=1;dashPattern=1 1;startArrow=classicThin;startFill=1;endFill=0;" edge="1" parent="1">
          <mxGeometry width="50" height="50" relative="1" as="geometry">
            <mxPoint x="-586.5" y="-876" as="sourcePoint" />
            <mxPoint x="-348.5" y="-877" as="targetPoint" />
            <Array as="points">
              <mxPoint x="-587" y="-844" />
              <mxPoint x="-349" y="-844" />
            </Array>
          </mxGeometry>
        </mxCell>
        <mxCell id="SttFto60E0Hf1jtHZvab-38" value="1" style="edgeLabel;html=1;align=center;verticalAlign=middle;resizable=0;points=[];" vertex="1" connectable="0" parent="SttFto60E0Hf1jtHZvab-37">
          <mxGeometry x="-0.0559" relative="1" as="geometry">
            <mxPoint x="15" as="offset" />
          </mxGeometry>
        </mxCell>
      </root>
    </mxGraphModel>
  </diagram>
</mxfile>
